# Blender 4.4.0
# www.blender.org
mtllib abdomen.mtl
o abdomen
v -0.000993 0.185565 -0.018308
v -0.018085 0.185565 -0.018308
v 0.016099 0.185565 -0.018308
v -0.018085 0.188030 -0.026990
v -0.028190 0.194288 -0.032122
v 0.026203 0.194288 -0.032122
v -0.028190 0.187612 -0.007249
v 0.026203 0.187612 -0.007249
v -0.000993 0.187612 -0.007249
v -0.000993 0.194288 -0.032122
v -0.000993 0.210343 -0.003232
v -0.000993 0.199962 0.014049
v -0.028190 0.199962 0.014049
v 0.026203 0.199962 0.014048
v -0.028190 0.210343 -0.003232
v 0.026203 0.210343 -0.003232
v -0.017614 0.208793 0.004452
v 0.015627 0.208793 0.004452
v -0.000993 0.208793 0.004452
v -0.000993 0.209719 0.005995
v -0.017614 0.209719 0.005995
v 0.015627 0.209719 0.005995
v -0.026624 0.215645 0.000446
v 0.024638 0.215645 0.000446
v -0.026624 0.202912 0.031791
v 0.024638 0.202912 0.031791
v -0.000993 0.202912 0.031791
v -0.000993 0.215645 0.000446
v -0.000993 0.218873 -0.003976
v -0.000993 0.221598 0.029269
v -0.026624 0.221598 0.029269
v 0.024638 0.221598 0.029269
v -0.026624 0.218873 -0.003976
v 0.024638 0.218873 -0.003976
v -0.018213 0.221861 0.019902
v -0.000993 0.221861 0.019902
v -0.000993 0.220567 -0.012377
v -0.000993 0.224663 0.031626
v -0.026215 0.224663 0.031626
v 0.024228 0.224663 0.031626
v -0.026215 0.220567 -0.012377
v 0.024228 0.220567 -0.012377
v -0.026215 0.238035 -0.015065
v 0.024228 0.238035 -0.015065
v -0.026215 0.242131 0.028938
v 0.024228 0.242131 0.028938
v -0.000993 0.242131 0.028938
v -0.000993 0.238035 -0.015065
v -0.000993 0.244539 -0.015575
v -0.000993 0.252343 0.026654
v -0.026215 0.252343 0.026654
v 0.024228 0.252343 0.026654
v 0.024228 0.244539 -0.015575
v -0.019649 0.252844 0.020392
v 0.017662 0.252844 0.020392
v -0.000993 0.246470 -0.015911
v -0.000993 0.257802 0.027796
v -0.025873 0.257802 0.027796
v 0.023885 0.257802 0.027796
v -0.025873 0.246470 -0.015911
v 0.023885 0.246470 -0.015911
v -0.025873 0.260820 -0.019619
v 0.023885 0.260820 -0.019619
v -0.025873 0.268444 0.025861
v 0.023885 0.268444 0.025861
v -0.000993 0.268444 0.025861
v -0.000993 0.260820 -0.019619
v -0.000993 0.268882 -0.019619
v -0.000993 0.278602 0.021023
v -0.025873 0.278602 0.021023
v 0.023885 0.278602 0.021023
v -0.025873 0.268882 -0.019619
v 0.023885 0.268882 -0.019619
v -0.030264 0.247272 -0.034988
v 0.028277 0.247272 -0.034988
v -0.038790 0.247272 -0.034988
v 0.036803 0.247272 -0.034988
v -0.038790 0.237782 -0.029798
v 0.036803 0.237782 -0.029798
v -0.030264 0.237782 -0.029798
v 0.028277 0.237782 -0.029798
v -0.029971 0.227046 -0.031834
v 0.027984 0.227046 -0.031834
v -0.040079 0.227046 -0.031834
v 0.038092 0.227046 -0.031834
v -0.040079 0.217318 -0.030275
v 0.038092 0.217318 -0.030275
v -0.029971 0.217318 -0.030275
v 0.027984 0.217318 -0.030275
v -0.019000 0.278861 0.010316
v 0.017013 0.278861 0.010316
v -0.029934 0.266328 -0.039964
v 0.027948 0.266328 -0.039964
v -0.038257 0.266328 -0.039964
v 0.036270 0.266328 -0.039964
v -0.038257 0.275592 -0.045030
v 0.036270 0.275592 -0.045030
v -0.029934 0.275592 -0.045030
v 0.027948 0.275592 -0.045030
v -0.000993 0.288816 -0.030027
v -0.000993 0.296258 0.014369
v -0.025648 0.296258 0.014369
v 0.023660 0.296258 0.014369
v -0.025648 0.288816 -0.030027
v 0.023660 0.288816 -0.030027
v -0.025648 0.274808 -0.026407
v 0.023660 0.274808 -0.026407
v -0.025648 0.285870 0.016258
v 0.023660 0.285870 0.016258
v -0.000993 0.285870 0.016258
v -0.000993 0.274808 -0.026407
v -0.000993 0.274794 -0.008750
v -0.000993 0.278660 0.010333
v -0.019573 0.274794 -0.008750
v 0.036270 0.286732 -0.047381
v 0.027948 0.286732 -0.047381
v -0.000993 0.199962 0.014049
v -0.028190 0.199962 0.014049
v 0.026203 0.199962 0.014048
v -0.028190 0.210343 -0.003232
v 0.026203 0.210343 -0.003232
v -0.017614 0.208793 0.004452
v 0.015627 0.208793 0.004452
v -0.000993 0.206678 0.010501
v -0.017614 0.206678 0.010501
v 0.015627 0.206678 0.010501
v -0.017614 0.209719 0.005995
v 0.015627 0.209719 0.005995
v -0.026624 0.215645 0.000446
v 0.024638 0.215645 0.000446
v -0.026624 0.202912 0.031791
v 0.024638 0.202912 0.031791
v -0.000993 0.202912 0.031791
v -0.000993 0.218873 -0.003976
v -0.000993 0.221598 0.029269
v -0.026624 0.221598 0.029269
v 0.024638 0.221598 0.029269
v -0.026624 0.218873 -0.003976
v 0.024638 0.218873 -0.003976
v -0.018213 0.221861 0.019902
v 0.016226 0.221861 0.019902
v -0.000993 0.221861 0.019902
v -0.000993 0.220925 0.008477
v -0.000993 0.220567 -0.012377
v -0.000993 0.224663 0.031626
v -0.026215 0.224663 0.031626
v 0.024228 0.224663 0.031626
v -0.026215 0.220567 -0.012377
v 0.024228 0.220567 -0.012377
v -0.026215 0.238035 -0.015065
v -0.026215 0.242131 0.028938
v -0.000993 0.238035 -0.015065
v -0.000993 0.244539 -0.015575
v -0.000993 0.252343 0.026654
v -0.026215 0.252343 0.026654
v 0.024228 0.252343 0.026654
v -0.026215 0.244539 -0.015575
v 0.024228 0.244539 -0.015575
v -0.019649 0.246456 -0.006626
v 0.017662 0.246456 -0.006626
v -0.019649 0.252844 0.020392
v 0.017662 0.252844 0.020392
v -0.000993 0.252844 0.020392
v -0.000993 0.246456 -0.006626
v -0.000993 0.246470 -0.015911
v -0.000993 0.257802 0.027796
v -0.025873 0.257802 0.027796
v 0.023885 0.257802 0.027796
v -0.025873 0.246470 -0.015911
v -0.000993 0.268882 -0.019619
v 0.023885 0.278602 0.021023
v 0.023885 0.268882 -0.019619
v 0.017013 0.278861 0.010316
v -0.000993 0.274808 -0.026407
v -0.000993 0.274794 -0.008750
v -0.000993 0.278660 0.010333
v 0.017585 0.274794 -0.008750
v -0.000993 0.199962 0.014049
v -0.028190 0.199962 0.014049
v 0.026203 0.199962 0.014048
v -0.028190 0.210343 -0.003232
v 0.026203 0.210343 -0.003232
v -0.017614 0.208793 0.004452
v 0.015627 0.208793 0.004452
v -0.017614 0.205752 0.008957
v 0.015627 0.205752 0.008957
v -0.000993 0.205752 0.008957
v -0.000993 0.206678 0.010501
v -0.017614 0.206678 0.010501
v 0.015627 0.206678 0.010501
v -0.017614 0.209719 0.005995
v 0.015627 0.209719 0.005995
v -0.000993 0.218873 -0.003976
v -0.026624 0.221598 0.029269
v 0.024638 0.221598 0.029269
v -0.026624 0.218873 -0.003976
v 0.024638 0.218873 -0.003976
v -0.018213 0.220925 0.008477
v 0.016226 0.220925 0.008477
v -0.018213 0.221861 0.019902
v 0.016226 0.221861 0.019902
v -0.000993 0.220925 0.008477
v -0.026215 0.224663 0.031626
v 0.024228 0.224663 0.031626
v -0.026215 0.220567 -0.012377
v 0.024228 0.220567 -0.012377
v 0.017662 0.246456 -0.006626
v 0.017662 0.252844 0.020392
v -0.000993 0.246456 -0.006626
v -0.000993 0.246470 -0.015911
v 0.023885 0.257802 0.027796
v 0.023885 0.246470 -0.015911
v 0.017013 0.278861 0.010316
v 0.023660 0.274808 -0.026407
v 0.023660 0.285870 0.016258
v -0.000993 0.274808 -0.026407
v -0.000993 0.274794 -0.008750
v 0.017585 0.274794 -0.008750
v -0.018213 0.220925 0.008477
v 0.016226 0.220925 0.008477
v -0.000993 0.220925 0.008477
v -0.000993 0.220567 -0.012377
v -0.026215 0.220567 -0.012377
v 0.024228 0.220567 -0.012377
vn -0.0000 -0.9833 0.1820
vn -0.2246 -0.9740 -0.0291
vn -0.4280 -0.8720 -0.2376
vn -0.7371 0.2843 -0.6131
vn 0.4399 0.7850 -0.4362
vn -0.6699 -0.7194 0.1834
vn 0.7035 -0.6527 0.2811
vn -0.0000 -0.9379 0.3469
vn -0.0000 0.8741 -0.4858
vn -0.0000 0.9882 -0.1535
vn -0.0000 -0.8651 0.5016
vn -0.5617 -0.7157 0.4150
vn 0.5617 -0.7157 0.4150
vn -0.7065 0.6743 -0.2149
vn 0.7065 0.6743 -0.2149
vn -0.0000 0.9966 -0.0821
vn -0.0000 0.9855 -0.1699
vn -0.0000 0.1384 -0.9904
vn -0.0000 -0.1158 -0.9933
vn -0.7838 -0.4789 -0.3954
vn 0.7838 -0.4789 -0.3954
vn -0.5560 0.1112 0.8237
vn 0.5560 0.1112 0.8237
vn -0.0000 0.1338 0.9910
vn -0.0000 -0.7489 -0.6627
vn -0.0000 -0.8077 -0.5896
vn -0.0000 0.5333 0.8459
vn -0.6502 0.4202 0.6330
vn 0.7186 0.0930 0.6892
vn -0.4130 -0.7356 -0.5370
vn 0.4130 -0.7356 -0.5370
vn -0.0000 0.3384 0.9410
vn -0.0000 0.1030 0.9947
vn -0.0000 -0.5263 -0.8503
vn -0.0000 -0.2896 0.9571
vn -0.6182 -0.2942 0.7289
vn 0.6933 0.1096 0.7123
vn -0.7644 -0.5375 0.3560
vn 0.7644 -0.5375 0.3560
vn -0.7807 0.6078 -0.1449
vn 0.8297 0.3719 -0.4162
vn -0.4609 0.1644 0.8721
vn 0.6996 0.1324 0.7022
vn -0.0000 0.1853 0.9827
vn -0.0000 0.1206 -0.9927
vn -0.0000 -0.0782 -0.9969
vn -0.0000 0.2183 0.9759
vn 0.7154 0.1525 0.6819
vn 0.7295 -0.0535 -0.6819
vn -0.0000 -0.6495 -0.7604
vn -0.0000 0.1789 0.9839
vn -0.7231 0.1236 0.6796
vn 0.7231 0.1236 0.6796
vn -0.7504 -0.3774 0.5427
vn 0.7504 -0.3774 0.5427
vn -0.7909 0.3800 -0.4798
vn 0.7909 0.3800 -0.4798
vn -0.6786 0.2256 0.6990
vn 0.6786 0.2256 0.6990
vn -0.0000 0.3071 0.9517
vn -0.0000 0.0218 -0.9998
vn 0.0637 0.3335 -0.9406
vn 0.0449 0.8403 0.5402
vn -0.6183 0.6774 0.3985
vn 0.6271 0.5917 0.5066
vn -0.6099 0.4337 -0.6633
vn 0.7545 -0.0000 -0.6564
vn 0.1924 0.1400 -0.9713
vn -0.1924 0.1400 -0.9713
vn -0.7816 0.2021 -0.5901
vn 0.7816 0.2021 -0.5901
vn -0.7141 -0.6993 -0.0312
vn 0.7141 -0.6993 -0.0312
vn 0.2123 -0.9211 -0.3263
vn -0.2123 -0.9211 -0.3263
vn 0.1986 0.3383 -0.9198
vn -0.1986 0.3383 -0.9198
vn -0.7876 0.3816 -0.4838
vn 0.7876 0.3816 -0.4838
vn -0.7452 -0.6073 -0.2753
vn 0.7452 -0.6073 -0.2753
vn 0.2118 -0.7630 -0.6107
vn -0.2118 -0.7630 -0.6107
vn 0.0367 0.9512 -0.3063
vn -0.0044 0.9064 -0.4224
vn -0.2101 0.9216 0.3263
vn 0.2101 0.9216 0.3263
vn 0.7141 0.6993 0.0312
vn -0.7141 0.6993 0.0312
vn 0.7816 -0.2022 0.5901
vn -0.7816 -0.2022 0.5901
vn -0.1902 -0.1405 0.9716
vn 0.1902 -0.1405 0.9716
vn -0.0000 -0.0408 0.9992
vn -0.0000 -0.1789 -0.9839
vn 0.7102 -0.1260 -0.6927
vn -0.7102 -0.1260 -0.6927
vn 0.7735 -0.5862 0.2408
vn -0.7735 -0.5862 0.2408
vn 0.6506 0.6115 -0.4504
vn -0.7504 0.3774 -0.5427
vn 0.6356 0.2879 -0.7163
vn -0.5835 0.1151 -0.8039
vn -0.0000 0.2555 -0.9668
vn -0.0000 0.8402 0.5423
vn 0.5258 0.8275 -0.1971
vn 0.3786 0.8598 -0.3428
vn 0.0606 0.9698 -0.2361
vn -0.0000 -0.9847 -0.1742
vn -0.2448 -0.9248 -0.2913
vn 0.2448 -0.9248 -0.2913
vn -0.4190 -0.8311 -0.3657
vn 0.4190 -0.8311 -0.3657
vn -0.1178 -0.9655 -0.2323
vn 0.1178 -0.9655 -0.2323
vn -0.0000 0.9996 0.0281
vn -0.0000 0.3385 0.9410
vn -0.0000 -0.9726 0.2324
vn -0.7038 -0.0556 -0.7082
vn -1.0000 -0.0000 -0.0000
vn -0.0000 0.7984 -0.6021
vn -0.0000 0.9968 0.0798
vn -0.7374 0.6740 -0.0454
vn 0.0732 0.9951 -0.0670
vn -0.5987 0.4790 -0.6420
vn 0.0548 0.9771 -0.2057
vn -0.9489 0.1316 -0.2868
vn 0.0739 0.9761 -0.2043
vn -0.6198 0.2902 0.7291
vn 0.1069 0.9411 0.3209
vn -0.0000 0.2523 0.9676
vn -0.0000 0.9153 -0.4027
vn -0.0000 -1.0000 -0.0015
vn -0.0000 -0.8309 0.5564
vn -0.1682 -0.8860 0.4322
vn -0.1580 -0.9834 0.0896
vn -0.0000 0.8785 -0.4778
vn 0.4135 0.8880 -0.2011
vn 0.1391 0.9066 -0.3983
vn 0.2558 0.9444 -0.2067
vn -0.0028 0.9388 -0.3444
vn -0.0055 0.9790 -0.2037
vn 0.1788 0.9363 -0.3021
vn -0.0000 0.6604 0.7510
vn -0.1413 0.7756 0.6152
vn 0.1413 0.7756 0.6152
vn -0.2287 0.8288 0.5106
vn 0.2287 0.8288 0.5106
vn -0.6131 0.6726 0.4144
vn 0.6131 0.6726 0.4144
vn -0.4987 0.4212 0.7576
vn 0.4987 0.4212 0.7576
vn -0.0000 -0.1539 0.9881
vn -0.0000 -0.8575 0.5145
vn -0.5854 -0.6952 0.4171
vn 0.5854 -0.6952 0.4171
vn 1.0000 -0.0000 -0.0000
vn -0.0000 0.9867 -0.1626
vn -0.1213 0.9893 -0.0811
vn 0.1213 0.9893 -0.0811
vn -0.0457 0.9902 -0.1322
vn 0.0457 0.9902 -0.1322
vn -0.4002 0.9049 -0.1450
vn 0.4002 0.9049 -0.1450
vn -0.9917 -0.1234 0.0373
vn 0.9916 -0.1235 0.0373
vn -0.1995 -0.9759 0.0886
vn 0.1995 -0.9759 0.0886
vn 0.2158 -0.9687 0.1229
vn 0.3905 -0.8930 0.2237
vn 0.1580 -0.9834 0.0896
vn -0.6054 0.7718 -0.1948
vn -0.1588 0.9860 -0.0505
vn -0.0000 1.0000 0.0008
vn -0.3808 0.9166 -0.1222
vn -0.0000 -0.9999 0.0172
vt 0.000000 0.000000
vt 1.000000 0.000000
vt 1.000000 1.000000
vt 0.000000 1.000000
s 1
usemtl skeleton
f 2/1/2 7/2/6 5/3/4 4/4/3
f 1/1/1 9/2/8 7/3/6 2/4/2
f 8/3/7 9/2/8 1/1/1 3/4/1
f 9/1/8 12/2/11 13/3/12 7/4/6
f 14/3/13 12/2/11 9/1/8 8/4/7
f 5/1/4 15/2/14 11/3/10 10/4/9
f 11/3/10 16/2/15 6/1/5 10/4/9
f 7/1/6 13/2/12 15/3/14 5/4/4
f 16/3/15 14/2/13 8/1/7 6/4/5
f 15/1/14 17/2/16 19/3/17 11/4/10
f 19/3/17 18/2/16 16/1/15 11/4/10
f 17/1/16 21/2/19 20/3/18 19/4/17
f 20/3/18 22/2/19 18/1/16 19/4/17
f 21/1/19 23/2/20 28/3/25 20/4/18
f 28/3/25 24/2/21 22/1/19 20/4/18
f 27/1/24 30/2/27 31/3/28 25/4/22
f 32/3/29 30/2/27 27/1/24 26/4/23
f 23/1/20 33/2/30 29/3/26 28/4/25
f 29/3/26 34/2/31 24/1/21 28/4/25
f 25/1/22 31/2/28 33/3/30 23/4/20
f 34/3/31 32/2/29 26/1/23 24/4/21
f 30/1/27 36/2/33 35/3/32 31/4/28
f 36/1/33 38/2/35 39/3/36 35/4/32
f 39/1/36 45/2/42 43/3/40 41/4/38
f 44/3/41 46/2/43 40/1/37 42/4/39
f 38/1/35 47/2/44 45/3/42 39/4/36
f 46/3/43 47/2/44 38/1/35 40/4/37
f 47/1/44 50/2/47 51/3/47 45/4/42
f 52/3/48 50/2/47 47/1/44 46/4/43
f 49/3/46 53/2/49 44/1/41 48/4/45
f 53/3/49 52/2/48 46/1/43 44/4/41
f 58/1/52 64/2/58 62/3/56 60/4/54
f 63/3/57 65/2/59 59/1/53 61/4/55
f 57/1/51 66/2/60 64/3/58 58/4/52
f 65/3/59 66/2/60 57/1/51 59/4/53
f 66/1/60 69/2/63 70/3/64 64/4/58
f 71/3/65 69/2/63 66/1/60 65/4/59
f 62/1/56 72/2/66 68/3/62 67/4/61
f 68/3/62 73/2/67 63/1/57 67/4/61
f 64/1/58 70/2/64 72/3/66 62/4/56
f 73/3/67 71/2/65 65/1/59 63/4/57
f 67/1/61 74/2/68 76/3/70 62/4/56
f 77/3/71 75/2/69 67/1/61 63/4/57
f 62/1/56 76/2/70 78/3/72 60/4/54
f 79/3/73 77/2/71 63/1/57 61/4/55
f 60/1/54 78/2/72 80/3/74 56/4/50
f 81/3/75 79/2/73 61/1/55 56/4/50
f 78/1/72 76/2/70 74/3/68 80/4/74
f 75/3/69 77/2/71 79/1/73 81/4/75
f 48/1/45 82/2/76 84/3/78 43/4/40
f 85/3/79 83/2/77 48/1/45 44/4/41
f 43/1/40 84/2/78 86/3/80 41/4/38
f 87/3/81 85/2/79 44/1/41 42/4/39
f 41/1/38 86/2/80 88/3/82 37/4/34
f 89/3/83 87/2/81 42/1/39 37/4/34
f 86/1/80 84/2/78 82/3/76 88/4/82
f 83/3/77 85/2/79 87/1/81 89/4/83
f 56/1/50 80/2/74 74/3/68 67/4/61
f 75/3/69 81/2/75 56/1/50 67/4/61
f 37/1/34 88/2/82 82/3/76 48/4/45
f 83/3/77 89/2/83 37/1/34 48/4/45
f 68/1/62 112/2/106 113/3/107 69/4/63
f 70/1/64 90/2/84 114/3/108 72/4/66
f 72/1/66 114/2/108 112/3/106 68/4/62
f 69/1/63 113/2/107 90/3/84 70/4/64
f 91/3/85 113/2/107 69/1/63 71/4/65
f 90/1/84 113/2/107 112/3/106 114/4/108
f 111/1/105 100/2/94 98/3/92 92/4/86
f 99/3/93 100/2/94 111/1/105 93/4/87
f 94/1/88 92/2/86 98/3/92 96/4/90
f 99/3/93 93/2/87 95/1/89 97/4/91
f 106/1/100 111/2/105 92/3/86 94/4/88
f 93/3/87 111/2/105 107/1/101 95/4/89
f 104/1/98 106/2/100 94/3/88 96/4/90
f 95/3/89 107/2/101 105/1/99 97/4/91
f 100/1/94 104/2/98 96/3/90 98/4/92
f 97/3/91 105/2/99 100/1/94 99/4/93
f 110/1/104 108/2/102 102/3/96 101/4/95
f 103/3/97 109/2/103 110/1/104 101/4/95
f 108/1/102 106/2/100 104/3/98 102/4/96
f 105/3/99 107/2/101 109/1/103 103/4/97
f 90/1/84 114/2/108 106/3/100 108/4/102
f 114/1/108 112/2/106 111/3/105 106/4/100
f 113/1/107 90/2/84 108/3/102 110/4/104
f 109/3/103 91/2/85 113/1/107 110/4/104
f 125/1/110 131/2/114 129/3/112 127/4/112
f 130/3/113 132/2/115 126/1/111 128/4/113
f 124/1/109 133/2/109 131/3/114 125/4/110
f 132/3/115 133/2/109 124/1/109 126/4/111
f 141/3/117 142/2/33 135/1/116 137/4/116
f 147/3/118 145/2/118 142/1/33 141/4/117
f 150/1/119 157/2/125 153/3/121 152/4/46
f 151/1/120 155/2/123 157/3/125 150/4/119
f 155/1/123 161/2/129 159/3/127 157/4/125
f 160/3/128 162/2/130 156/1/124 158/4/126
f 157/1/125 159/2/127 164/3/132 153/4/121
f 164/3/132 160/2/128 158/1/126 153/4/121
f 154/1/122 163/2/131 161/3/129 155/4/123
f 162/3/130 163/2/131 154/1/122 156/4/124
f 163/1/131 166/2/134 167/3/135 161/4/129
f 168/3/134 166/2/134 163/1/131 162/4/130
f 159/1/127 169/2/136 165/3/133 164/4/132
f 161/1/129 167/2/135 169/3/136 159/4/127
f 177/3/143 173/2/140 171/1/138 172/4/139
f 175/3/141 177/2/143 172/1/139 170/4/137
f 175/3/141 176/2/142 173/1/140 177/4/143
f 179/1/145 185/2/151 183/3/149 181/4/147
f 184/3/150 186/2/152 180/1/146 182/4/148
f 178/1/144 187/2/153 185/3/151 179/4/145
f 186/3/152 187/2/153 178/1/144 180/4/146
f 187/1/153 188/2/154 189/3/155 185/4/151
f 190/3/156 188/2/154 187/1/153 186/4/152
f 185/1/151 189/2/155 191/3/120 183/4/149
f 192/3/157 190/2/156 186/1/152 184/4/150
f 194/1/159 200/2/165 198/3/163 196/4/161
f 199/3/164 201/2/166 195/1/160 197/4/162
f 196/1/161 198/2/163 202/3/158 193/4/158
f 202/3/158 199/2/164 197/1/162 193/4/158
f 200/1/165 203/2/167 205/3/167 198/4/163
f 206/3/168 204/2/168 201/1/166 199/4/164
f 210/3/133 212/2/171 207/1/169 209/4/133
f 212/3/171 211/2/170 208/1/170 207/4/169
f 214/3/173 218/2/175 213/1/172 215/4/172
f 216/3/174 217/2/174 218/1/175 214/4/173
f 219/1/176 223/2/176 222/3/176 221/4/176
f 222/3/176 224/2/176 220/1/176 221/4/176
l 54 58
l 55 59
l 51 54
l 52 55
l 115 116
l 121 123
l 174 175
l 122 127
l 146 148
l 123 128
l 147 149
l 134 138
l 134 139
l 134 143
l 140 146
l 117 118
l 117 119
l 118 120
l 136 138
l 136 140
l 119 121
l 137 139
l 143 144
l 120 122
l 144 148
l 144 149
