# Blender 4.4.0
# www.blender.org
mtllib head.mtl
o head
v -0.000000 0.611583 0.029351
v -0.000000 0.634554 0.025670
v -0.000000 0.654111 0.005123
v -0.012834 0.660252 -0.020147
v 0.012833 0.660252 -0.020147
v -0.000000 0.663248 -0.020644
v -0.000000 0.666912 -0.045284
v -0.013088 0.663971 -0.043894
v 0.013088 0.663971 -0.043894
v -0.012504 0.655611 -0.068528
v 0.012504 0.655611 -0.068528
v -0.000000 0.658775 -0.066497
v -0.000000 0.642190 -0.086138
v -0.012504 0.637999 -0.085231
v 0.012504 0.637999 -0.085231
v -0.000000 0.604771 -0.101603
v -0.014765 0.604002 -0.096670
v 0.014765 0.604002 -0.096670
v -0.012471 0.648322 0.008697
v 0.012471 0.648322 0.008697
v -0.012981 0.629968 0.023034
v 0.012981 0.629968 0.023034
v -0.015146 0.610506 0.026647
v 0.015146 0.610506 0.026647
v -0.031428 0.609378 0.022094
v 0.031428 0.609378 0.022094
v -0.029526 0.627379 0.019314
v 0.029526 0.627379 0.019314
v -0.029079 0.643902 0.003767
v 0.029079 0.643902 0.003767
v -0.031094 0.602728 -0.092189
v 0.031094 0.602728 -0.092190
v -0.029108 0.636569 -0.081407
v 0.029108 0.636569 -0.081407
v -0.029108 0.650304 -0.064062
v 0.029108 0.650304 -0.064063
v -0.029621 0.658990 -0.043097
v 0.029621 0.658990 -0.043097
v -0.029397 0.654381 -0.021567
v 0.029397 0.654381 -0.021567
v -0.043755 0.642979 -0.022882
v 0.043755 0.642979 -0.022882
v -0.043950 0.646997 -0.041652
v 0.043950 0.646997 -0.041652
v -0.043503 0.639425 -0.059931
v 0.043503 0.639425 -0.059931
v -0.043503 0.627648 -0.075222
v 0.043503 0.627648 -0.075222
v -0.043248 0.601734 -0.085044
v 0.043248 0.601734 -0.085044
v -0.043478 0.633843 -0.000794
v 0.043478 0.633843 -0.000794
v -0.043868 0.619438 0.012760
v 0.043868 0.619438 0.012760
v -0.043539 0.604810 0.015317
v 0.043540 0.604810 0.015317
v -0.051225 0.602328 0.007428
v 0.051225 0.602328 0.007428
v -0.051831 0.614508 0.005298
v 0.051831 0.614508 0.005298
v -0.051506 0.622987 -0.004918
v 0.051506 0.622987 -0.004918
v -0.050982 0.599915 -0.076394
v 0.050983 0.599915 -0.076394
v -0.051527 0.621602 -0.068179
v 0.051527 0.621602 -0.068179
v -0.051527 0.631149 -0.055226
v 0.051527 0.631149 -0.055226
v -0.051899 0.637455 -0.040007
v 0.051900 0.637455 -0.040007
v -0.051737 0.634109 -0.024378
v 0.051737 0.634109 -0.024378
v -0.000000 0.626642 -0.092892
v -0.013635 0.622280 -0.090951
v 0.013635 0.622280 -0.090951
v -0.030101 0.621756 -0.087024
v 0.030101 0.621756 -0.087024
v -0.044369 0.614691 -0.080133
v 0.044369 0.614691 -0.080133
v -0.052248 0.610758 -0.072287
v 0.052248 0.610758 -0.072287
v -0.053839 0.611607 -0.056352
v 0.053839 0.611607 -0.056352
v -0.053119 0.623149 -0.055245
v 0.053118 0.623149 -0.055245
v -0.052574 0.600064 -0.057459
v 0.052574 0.600064 -0.057459
v -0.054328 0.600199 -0.041274
v 0.054328 0.600199 -0.041274
v -0.054873 0.623283 -0.039059
v 0.054873 0.623283 -0.039059
v -0.055594 0.611741 -0.040167
v 0.055594 0.611741 -0.040167
v -0.053839 0.611983 -0.021848
v 0.053839 0.611983 -0.021848
v -0.053119 0.623579 -0.021784
v 0.053118 0.623579 -0.021784
v -0.052574 0.600388 -0.021913
v 0.052574 0.600388 -0.021913
v -0.045939 0.579646 -0.041013
v 0.045939 0.579646 -0.041014
v -0.044601 0.579512 -0.056159
v 0.044600 0.579512 -0.056159
v -0.043387 0.579362 -0.075094
v 0.043387 0.579362 -0.075094
v -0.037488 0.581182 -0.083743
v 0.037488 0.581182 -0.083743
v -0.028219 0.582176 -0.090889
v 0.028219 0.582176 -0.090889
v -0.015766 0.583450 -0.095370
v 0.015766 0.583450 -0.095370
v -0.000000 0.584219 -0.100302
v -0.000000 0.569345 -0.094986
v -0.016577 0.568658 -0.090582
v 0.016577 0.568658 -0.090582
v -0.025008 0.567520 -0.086580
v 0.025008 0.567520 -0.086580
v -0.031284 0.566632 -0.080199
v 0.031284 0.566632 -0.080199
v -0.035277 0.565008 -0.072474
v 0.035277 0.565008 -0.072475
v -0.036099 0.565141 -0.055565
v 0.036099 0.565141 -0.055565
v -0.037005 0.565261 -0.041110
v 0.037005 0.565261 -0.041110
v -0.034187 0.555564 -0.043404
v 0.034188 0.555564 -0.043404
v -0.033511 0.555474 -0.054193
v 0.033511 0.555474 -0.054193
v -0.032898 0.555374 -0.066815
v 0.032898 0.555374 -0.066815
v -0.029917 0.556587 -0.072581
v 0.029917 0.556587 -0.072581
v -0.025232 0.557250 -0.077345
v 0.025232 0.557250 -0.077345
v -0.018939 0.558099 -0.080332
v 0.018939 0.558099 -0.080332
v -0.000000 0.558612 -0.083620
v -0.000000 0.553491 -0.083620
v -0.000000 0.552979 -0.080332
v -0.000000 0.552129 -0.077345
v -0.000000 0.551467 -0.072581
v -0.000000 0.550254 -0.066815
v -0.000000 0.550354 -0.054193
v -0.000000 0.550443 -0.043404
v -0.000000 0.555564 -0.040378
v -0.040165 0.563984 -0.034197
v 0.040166 0.563984 -0.034197
v -0.045939 0.581036 -0.028470
v 0.045939 0.581036 -0.028470
v -0.045939 0.582885 0.000687
v 0.045939 0.582885 0.000687
v -0.038459 0.564980 -0.003334
v 0.038459 0.564980 -0.003334
v -0.028387 0.551701 -0.008929
v 0.028387 0.551701 -0.008929
v -0.040165 0.551184 -0.027797
v 0.040166 0.551184 -0.027797
v -0.037528 0.539502 -0.022961
v 0.037528 0.539502 -0.022961
v -0.030922 0.529619 0.002097
v 0.030922 0.529619 0.002097
v -0.034488 0.525951 -0.008001
v 0.034488 0.525951 -0.008001
v -0.017562 0.517673 0.014623
v 0.017562 0.517673 0.014623
v -0.014306 0.520716 0.024721
v 0.014306 0.520716 0.024721
v -0.000000 0.518790 0.037649
v -0.000000 0.533790 0.030960
v -0.014955 0.535584 0.019671
v 0.014955 0.535584 0.019671
v -0.027891 0.543194 -0.002103
v 0.027891 0.543194 -0.002103
v -0.000000 0.543194 -0.002103
v -0.000000 0.535584 0.019671
v -0.000000 0.533790 0.030960
v -0.004513 0.536452 0.032351
v 0.004514 0.536452 0.032351
v -0.004513 0.537445 0.027234
v 0.004514 0.537445 0.027234
v -0.000308 0.537096 0.027167
v 0.000308 0.537096 0.027167
v -0.000308 0.536103 0.032283
v 0.000308 0.536103 0.032283
v -0.002869 0.539999 0.031169
v 0.002869 0.539999 0.031169
v -0.002869 0.540292 0.029658
v 0.002869 0.540292 0.029658
v -0.001668 0.540272 0.029654
v 0.001668 0.540272 0.029654
v -0.001668 0.539978 0.031165
v 0.001668 0.539978 0.031165
v -0.000000 0.532294 0.029417
v -0.000000 0.532773 0.026946
v -0.005948 0.532887 0.026968
v 0.005948 0.532887 0.026968
v -0.005948 0.532407 0.029439
v 0.005948 0.532407 0.029439
v -0.003377 0.527635 0.028513
v 0.003377 0.527635 0.028513
v -0.003377 0.528115 0.026041
v 0.003377 0.528115 0.026041
v -0.002013 0.528002 0.026019
v 0.002012 0.528002 0.026019
v -0.002013 0.527522 0.028491
v 0.002012 0.527522 0.028491
v -0.008385 0.527877 0.026741
v 0.008385 0.527877 0.026741
v -0.007398 0.528357 0.024474
v 0.007398 0.528357 0.024474
v -0.008658 0.528470 0.023949
v 0.008658 0.528470 0.023949
v -0.009645 0.527990 0.026216
v 0.009646 0.527990 0.026216
v -0.012372 0.532762 0.026038
v 0.012372 0.532762 0.026038
v -0.011385 0.533242 0.023772
v 0.011385 0.533242 0.023772
v -0.005923 0.533129 0.026127
v 0.005923 0.533129 0.026127
v -0.006910 0.532649 0.028394
v 0.006910 0.532649 0.028394
v -0.005999 0.539959 0.031550
v 0.005999 0.539959 0.031550
v -0.003956 0.540952 0.026859
v 0.003956 0.540952 0.026859
v -0.010231 0.541022 0.025249
v 0.010231 0.541022 0.025249
v -0.012274 0.540029 0.029939
v 0.012274 0.540029 0.029939
v -0.008337 0.536458 0.030898
v 0.008337 0.536458 0.030898
v -0.006294 0.537452 0.026207
v 0.006294 0.537452 0.026207
v -0.010176 0.537801 0.024590
v 0.010176 0.537801 0.024590
v -0.012219 0.536807 0.029281
v 0.012219 0.536807 0.029281
v -0.017426 0.537466 0.022409
v 0.017426 0.537466 0.022409
v -0.013177 0.538278 0.019502
v 0.013177 0.538278 0.019502
v -0.010764 0.536715 0.022592
v 0.010764 0.536715 0.022592
v -0.015013 0.535904 0.025499
v 0.015014 0.535904 0.025499
v -0.017158 0.540501 0.023648
v 0.017158 0.540501 0.023648
v -0.012909 0.541312 0.020741
v 0.012909 0.541312 0.020741
v -0.010566 0.540059 0.023816
v 0.010566 0.540059 0.023816
v -0.014815 0.539248 0.026723
v 0.014815 0.539248 0.026723
v -0.013323 0.532094 0.023165
v 0.013323 0.532094 0.023165
v -0.011270 0.532486 0.021760
v 0.011270 0.532486 0.021760
v -0.014699 0.534331 0.017263
v 0.014699 0.534331 0.017263
v -0.016752 0.533939 0.018667
v 0.016752 0.533939 0.018667
v -0.015482 0.528601 0.019034
v 0.015482 0.528601 0.019034
v -0.013430 0.528993 0.017629
v 0.013429 0.528993 0.017629
v -0.012647 0.528486 0.018632
v 0.012646 0.528486 0.018632
v -0.014699 0.528094 0.020037
v 0.014700 0.528094 0.020037
v -0.017917 0.530018 0.014131
v 0.017916 0.530018 0.014131
v -0.015864 0.530410 0.012727
v 0.015864 0.530410 0.012727
v -0.016646 0.530917 0.011724
v 0.016647 0.530917 0.011724
v -0.018700 0.530525 0.013128
v 0.018699 0.530525 0.013128
v -0.019969 0.535862 0.012762
v 0.019969 0.535862 0.012762
v -0.017916 0.536254 0.011357
v 0.017916 0.536254 0.011357
v -0.014487 0.534409 0.015855
v 0.014487 0.534409 0.015855
v -0.016540 0.534017 0.017259
v 0.016540 0.534017 0.017259
v -0.017383 0.541874 0.018779
v 0.017383 0.541874 0.018779
v -0.016028 0.542133 0.017853
v 0.016028 0.542133 0.017853
v -0.016775 0.542532 0.016873
v 0.016775 0.542532 0.016873
v -0.018130 0.542274 0.017799
v 0.018130 0.542274 0.017799
v -0.018231 0.537827 0.019594
v 0.018231 0.537827 0.019594
v -0.013981 0.538638 0.016687
v 0.013981 0.538638 0.016687
v -0.016394 0.540201 0.013597
v 0.016394 0.540201 0.013597
v -0.020643 0.539390 0.016504
v 0.020643 0.539390 0.016504
v -0.023568 0.541699 0.012104
v 0.023568 0.541699 0.012104
v -0.019319 0.542510 0.009197
v 0.019319 0.542510 0.009197
v -0.016906 0.540947 0.012287
v 0.016906 0.540947 0.012287
v -0.021156 0.540136 0.015194
v 0.021156 0.540136 0.015194
v -0.023300 0.544733 0.013343
v 0.023300 0.544733 0.013343
v -0.019051 0.545545 0.010436
v 0.019051 0.545545 0.010436
v -0.016708 0.544292 0.013511
v 0.016708 0.544292 0.013511
v -0.020957 0.543480 0.016418
v 0.020957 0.543480 0.016418
v -0.019465 0.536326 0.012860
v 0.019465 0.536326 0.012860
v -0.017412 0.536718 0.011456
v 0.017412 0.536718 0.011456
v -0.020841 0.538563 0.006958
v 0.020841 0.538563 0.006958
v -0.022894 0.538172 0.008363
v 0.022894 0.538172 0.008363
v -0.021624 0.532834 0.008729
v 0.021624 0.532834 0.008729
v -0.019571 0.533226 0.007325
v 0.019572 0.533226 0.007325
v -0.018788 0.532719 0.008327
v 0.018789 0.532719 0.008327
v -0.020842 0.532327 0.009732
v 0.020841 0.532327 0.009732
v -0.022082 0.533845 0.001331
v 0.022082 0.533845 0.001331
v -0.020029 0.534237 -0.000074
v 0.020029 0.534237 -0.000074
v -0.020812 0.534744 -0.001077
v 0.020812 0.534744 -0.001077
v -0.022865 0.534352 0.000328
v 0.022865 0.534352 0.000328
v -0.024135 0.539690 -0.000039
v 0.024134 0.539690 -0.000039
v -0.022082 0.540081 -0.001443
v 0.022082 0.540081 -0.001443
v -0.018653 0.538237 0.003054
v 0.018653 0.538237 0.003054
v -0.020706 0.537845 0.004459
v 0.020706 0.537845 0.004459
v -0.021509 0.545744 0.005855
v 0.021509 0.545744 0.005855
v -0.020330 0.545970 0.005049
v 0.020330 0.545970 0.005049
v -0.020980 0.546317 0.004196
v 0.020980 0.546317 0.004196
v -0.022159 0.546092 0.005002
v 0.022159 0.546092 0.005002
v -0.022396 0.541654 0.006793
v 0.022396 0.541654 0.006793
v -0.018147 0.542465 0.003886
v 0.018147 0.542465 0.003886
v -0.020559 0.544028 0.000796
v 0.020559 0.544028 0.000796
v -0.024808 0.543217 0.003703
v 0.024809 0.543217 0.003703
v -0.024808 0.550708 0.005361
v 0.024809 0.550708 0.005361
v -0.020559 0.551382 0.002419
v 0.020559 0.551382 0.002419
v -0.018147 0.551281 0.005881
v 0.018147 0.551281 0.005881
v -0.022396 0.550607 0.008822
v 0.022396 0.550607 0.008822
v -0.022159 0.547561 0.005131
v 0.022159 0.547561 0.005131
v -0.020980 0.547748 0.004315
v 0.020980 0.547748 0.004315
v -0.020330 0.547647 0.005231
v 0.020330 0.547647 0.005231
v -0.021509 0.547460 0.006047
v 0.021509 0.547460 0.006047
v -0.020706 0.555069 0.008588
v 0.020706 0.555069 0.008588
v -0.018653 0.555395 0.007167
v 0.018653 0.555395 0.007167
v -0.022082 0.555919 0.002334
v 0.022082 0.555919 0.002334
v -0.024135 0.555593 0.003755
v 0.024134 0.555593 0.003755
v -0.022865 0.560109 0.002933
v 0.022865 0.560109 0.002933
v -0.020812 0.560435 0.001512
v 0.020812 0.560435 0.001512
v -0.020029 0.560402 0.002635
v 0.020029 0.560402 0.002635
v -0.022082 0.560076 0.004056
v 0.022082 0.560076 0.004056
v -0.020842 0.557403 0.012164
v 0.020841 0.557403 0.012164
v -0.018788 0.557728 0.010743
v 0.018789 0.557728 0.010743
v -0.019571 0.557761 0.009619
v 0.019572 0.557761 0.009619
v -0.021624 0.557436 0.011041
v 0.021624 0.557436 0.011041
v -0.022894 0.552920 0.011863
v 0.022894 0.552920 0.011863
v -0.020841 0.553245 0.010442
v 0.020841 0.553245 0.010442
v -0.017412 0.552721 0.015275
v 0.017412 0.552721 0.015275
v -0.019465 0.552396 0.016696
v 0.019465 0.552396 0.016696
v -0.020957 0.544411 0.016410
v 0.020957 0.544411 0.016410
v -0.016708 0.545085 0.013468
v 0.016708 0.545085 0.013468
v -0.019051 0.545451 0.010168
v 0.019051 0.545451 0.010168
v -0.023300 0.544777 0.013110
v 0.023300 0.544777 0.013110
v -0.021156 0.547934 0.016930
v 0.021156 0.547934 0.016930
v -0.016906 0.548608 0.013988
v 0.016906 0.548608 0.013988
v -0.019319 0.548708 0.010527
v 0.019319 0.548708 0.010527
v -0.023568 0.548034 0.013469
v 0.023568 0.548034 0.013469
v -0.020643 0.547966 0.018437
v 0.020643 0.547966 0.018437
v -0.016394 0.548639 0.015495
v 0.016394 0.548639 0.015495
v -0.013981 0.548539 0.018957
v 0.013981 0.548539 0.018957
v -0.018231 0.547865 0.021899
v 0.018231 0.547865 0.021898
v -0.018130 0.544813 0.018200
v 0.018130 0.544813 0.018200
v -0.016775 0.545027 0.017262
v 0.016775 0.545027 0.017262
v -0.016028 0.544911 0.018314
v 0.016028 0.544911 0.018314
v -0.017383 0.544696 0.019252
v 0.017383 0.544696 0.019252
v -0.016540 0.552327 0.021664
v 0.016540 0.552327 0.021664
v -0.014487 0.552652 0.020243
v 0.014487 0.552652 0.020243
v -0.017916 0.553176 0.015410
v 0.017916 0.553176 0.015410
v -0.019969 0.552851 0.016831
v 0.019969 0.552851 0.016831
v -0.018700 0.557367 0.016009
v 0.018699 0.557367 0.016009
v -0.016646 0.557692 0.014588
v 0.016647 0.557692 0.014588
v -0.015864 0.557660 0.015711
v 0.015864 0.557660 0.015711
v -0.017917 0.557334 0.017132
v 0.017916 0.557334 0.017132
v -0.014699 0.556207 0.023240
v 0.014700 0.556207 0.023240
v -0.012647 0.556533 0.021819
v 0.012646 0.556533 0.021819
v -0.013430 0.556565 0.020695
v 0.013429 0.556565 0.020695
v -0.015482 0.556240 0.022116
v 0.015482 0.556240 0.022116
v -0.016752 0.551723 0.022939
v 0.016752 0.551724 0.022939
v -0.014699 0.552049 0.021518
v 0.014699 0.552049 0.021518
v -0.011270 0.551525 0.026350
v 0.011270 0.551525 0.026350
v -0.013323 0.551200 0.027772
v 0.013323 0.551200 0.027772
v -0.014815 0.543215 0.027486
v 0.014815 0.543215 0.027486
v -0.010566 0.543889 0.024544
v 0.010566 0.543889 0.024544
v -0.012909 0.544255 0.021243
v 0.012909 0.544255 0.021243
v -0.017158 0.543581 0.024186
v 0.017158 0.543581 0.024186
v -0.015013 0.546738 0.028006
v 0.015014 0.546738 0.028006
v -0.010764 0.547412 0.025064
v 0.010764 0.547412 0.025064
v -0.013177 0.547512 0.021603
v 0.013177 0.547512 0.021603
v -0.017426 0.546839 0.024545
v 0.017426 0.546839 0.024545
v -0.012219 0.544140 0.030899
v 0.012219 0.544140 0.030899
v -0.010176 0.545505 0.026302
v 0.010176 0.545505 0.026302
v -0.006294 0.545040 0.027890
v 0.006294 0.545040 0.027890
v -0.008337 0.543675 0.032486
v 0.008337 0.543675 0.032486
v -0.012274 0.540995 0.029941
v 0.012274 0.540995 0.029941
v -0.010231 0.542359 0.025344
v 0.010231 0.542359 0.025344
v -0.003956 0.541653 0.026792
v 0.003956 0.541653 0.026792
v -0.005999 0.540288 0.031389
v 0.005999 0.540288 0.031389
v -0.006910 0.548218 0.032102
v 0.006910 0.548218 0.032102
v -0.005923 0.548877 0.029881
v 0.005923 0.548877 0.029881
v -0.011385 0.549901 0.027758
v 0.011385 0.549901 0.027758
v -0.012372 0.549242 0.029979
v 0.012372 0.549242 0.029979
v -0.009645 0.553351 0.028720
v 0.009646 0.553351 0.028720
v -0.008658 0.554010 0.026499
v 0.008658 0.554010 0.026499
v -0.007398 0.553859 0.027015
v 0.007398 0.553859 0.027015
v -0.008385 0.553200 0.029235
v 0.008385 0.553200 0.029235
v -0.002013 0.552677 0.030943
v 0.002012 0.552677 0.030943
v -0.002013 0.553435 0.028542
v 0.002012 0.553435 0.028542
v -0.003377 0.553324 0.028507
v 0.003377 0.553324 0.028507
v -0.003377 0.552567 0.030909
v 0.003377 0.552567 0.030909
v -0.005948 0.547932 0.033137
v 0.005948 0.547932 0.033137
v -0.005948 0.548689 0.030736
v 0.005948 0.548689 0.030736
v -0.001400 0.548799 0.030770
v 0.001401 0.548799 0.030770
v -0.001400 0.548042 0.033172
v 0.001401 0.548042 0.033172
v -0.001668 0.540454 0.031042
v 0.001668 0.540454 0.031042
v -0.001668 0.540917 0.029573
v 0.001668 0.540917 0.029573
v -0.002869 0.540897 0.029567
v 0.002869 0.540897 0.029567
v -0.002869 0.540434 0.031036
v 0.002869 0.540434 0.031036
v -0.000308 0.543326 0.033873
v 0.000308 0.543326 0.033873
v -0.000308 0.544894 0.028903
v 0.000308 0.544894 0.028903
v -0.004513 0.544555 0.028796
v 0.004514 0.544555 0.028796
v -0.004513 0.542987 0.033766
v 0.004514 0.542987 0.033766
v -0.000000 0.552199 -0.000056
v -0.027891 0.552199 -0.000056
v 0.027891 0.552199 -0.000056
v -0.027891 0.558851 0.001888
v 0.027891 0.558851 0.001888
v -0.000000 0.558851 0.001888
v -0.000000 0.552916 0.018466
v -0.020573 0.552916 0.018466
v 0.020573 0.552916 0.018466
v -0.012106 0.548413 0.031359
v 0.012106 0.548413 0.031359
v -0.000000 0.548413 0.031359
v -0.000000 0.548618 0.034736
v -0.003913 0.548618 0.034736
v 0.003913 0.548618 0.034736
v -0.005898 0.560827 0.032277
v 0.005898 0.560827 0.032277
v -0.000000 0.560827 0.032277
v -0.012863 0.561758 0.027441
v 0.012863 0.561758 0.027441
v -0.020061 0.564481 0.018445
v 0.020061 0.564481 0.018445
v -0.026283 0.569527 0.004351
v 0.026283 0.569527 0.004351
v -0.038505 0.595684 0.013019
v 0.038505 0.595684 0.013019
v -0.030814 0.604456 0.021033
v 0.030814 0.604456 0.021033
v -0.014778 0.608015 0.026824
v 0.014778 0.608015 0.026824
v -0.000000 0.598321 0.029704
v -0.000000 0.590462 0.036949
v -0.006674 0.586036 0.034191
v 0.006674 0.586036 0.034191
v -0.025287 0.583336 0.028155
v 0.025287 0.583336 0.028155
v -0.032816 0.583404 0.019036
v 0.032816 0.583404 0.019036
v -0.028135 0.572476 0.021246
v 0.028135 0.572476 0.021246
v -0.022328 0.572654 0.024472
v 0.022328 0.572654 0.024472
v -0.010972 0.571548 0.027683
v 0.010972 0.571548 0.027683
v -0.000000 0.565660 0.030933
v -0.000000 0.570968 0.037446
v -0.000000 0.585458 0.036664
v -0.040064 0.580377 -0.063462
v 0.040064 0.580377 -0.063462
v -0.025192 0.577373 -0.054102
v 0.025193 0.577373 -0.054102
v -0.000000 0.578287 -0.053021
v -0.006670 0.613314 -0.056143
v 0.006670 0.613314 -0.056143
v -0.032788 0.610977 -0.057468
v 0.032788 0.610977 -0.057468
v -0.048866 0.600603 -0.066909
v 0.048866 0.600603 -0.066909
v -0.000928 0.585032 0.025987
v 0.000927 0.585032 0.025987
v -0.000928 0.570541 0.026769
v 0.000927 0.570541 0.026769
v -0.002278 0.573986 -0.049625
v 0.002278 0.573986 -0.049625
v -0.001390 0.585243 -0.049876
v 0.001390 0.585243 -0.049876
v -0.003190 0.572640 -0.048290
v 0.003190 0.572640 -0.048290
v -0.006708 0.574527 -0.049332
v 0.006708 0.574527 -0.049332
v -0.004442 0.585784 -0.047245
v 0.004442 0.585784 -0.047245
v -0.000000 0.514894 0.031476
v -0.000000 0.517673 0.014623
v -0.000000 0.525951 -0.008001
v -0.000000 0.539502 -0.022961
v -0.000000 0.551184 -0.027797
v -0.000000 0.563984 -0.034197
vn -0.0000 0.1075 0.9942
vn -0.0000 0.4806 0.8770
vn -0.0000 0.8618 0.5072
vn -0.2805 0.9230 0.2633
vn 0.2805 0.9230 0.2633
vn -0.0000 0.9679 0.2514
vn -0.0000 0.9939 -0.1104
vn -0.2722 0.9584 -0.0853
vn 0.2722 0.9584 -0.0853
vn -0.2564 0.8116 -0.5249
vn 0.2564 0.8116 -0.5249
vn -0.0000 0.8688 -0.4951
vn -0.0000 0.5911 -0.8066
vn -0.2394 0.5323 -0.8120
vn 0.2394 0.5323 -0.8120
vn -0.0000 0.1488 -0.9889
vn -0.2866 0.1268 -0.9496
vn 0.2866 0.1268 -0.9496
vn -0.2924 0.7613 0.5788
vn 0.2924 0.7613 0.5788
vn -0.2667 0.4125 0.8710
vn 0.2667 0.4125 0.8710
vn -0.2386 0.0589 0.9693
vn 0.2386 0.0589 0.9693
vn -0.3791 -0.0180 0.9252
vn 0.3791 -0.0180 0.9252
vn -0.4230 0.4168 0.8046
vn 0.4230 0.4168 0.8046
vn -0.4664 0.7281 0.5023
vn 0.4664 0.7281 0.5023
vn -0.4126 0.0756 -0.9078
vn 0.4126 0.0756 -0.9078
vn -0.4260 0.5382 -0.7273
vn 0.4260 0.5381 -0.7273
vn -0.4713 0.7566 -0.4533
vn 0.4713 0.7566 -0.4533
vn -0.4823 0.8724 -0.0798
vn 0.4823 0.8723 -0.0798
vn -0.4745 0.8417 0.2575
vn 0.4745 0.8417 0.2575
vn -0.6925 0.6840 0.2296
vn 0.6925 0.6840 0.2296
vn -0.7032 0.7075 -0.0697
vn 0.7032 0.7075 -0.0697
vn -0.6895 0.6210 -0.3728
vn 0.6895 0.6210 -0.3728
vn -0.6637 0.4489 -0.5983
vn 0.6637 0.4489 -0.5983
vn -0.6486 0.0036 -0.7611
vn 0.6486 0.0036 -0.7611
vn -0.6880 0.5970 0.4126
vn 0.6880 0.5970 0.4126
vn -0.6563 0.3308 0.6781
vn 0.6563 0.3308 0.6781
vn -0.5687 -0.1436 0.8099
vn 0.5687 -0.1436 0.8099
vn -0.8623 -0.2044 0.4634
vn 0.8623 -0.2044 0.4634
vn -0.9061 0.1693 0.3876
vn 0.9062 0.1693 0.3876
vn -0.9140 0.3277 0.2392
vn 0.9140 0.3278 0.2392
vn -0.9005 -0.1402 -0.4116
vn 0.9005 -0.1402 -0.4116
vn -0.8858 0.2911 -0.3614
vn 0.8858 0.2911 -0.3614
vn -0.8849 0.4006 -0.2378
vn 0.8849 0.4006 -0.2378
vn -0.8866 0.4611 -0.0374
vn 0.8866 0.4611 -0.0374
vn -0.8939 0.4181 0.1614
vn 0.8939 0.4181 0.1614
vn -0.0000 0.3640 -0.9314
vn -0.2488 0.3329 -0.9095
vn 0.2488 0.3329 -0.9095
vn -0.3895 0.3135 -0.8660
vn 0.3895 0.3135 -0.8660
vn -0.6454 0.2592 -0.7185
vn 0.6454 0.2592 -0.7185
vn -0.9203 0.1021 -0.3777
vn 0.9203 0.1021 -0.3777
vn -0.9944 -0.0053 -0.1058
vn 0.9944 -0.0053 -0.1058
vn -0.9830 0.1399 -0.1188
vn 0.9830 0.1399 -0.1188
vn -0.9688 -0.2319 -0.0876
vn 0.9688 -0.2319 -0.0876
vn -0.9715 -0.2368 -0.0115
vn 0.9715 -0.2368 -0.0115
vn -0.9919 0.1270 -0.0057
vn 0.9919 0.1270 -0.0057
vn -0.9998 -0.0207 -0.0061
vn 0.9998 -0.0207 -0.0061
vn -0.9964 -0.0116 0.0835
vn 0.9964 -0.0116 0.0835
vn -0.9887 0.1211 0.0881
vn 0.9887 0.1210 0.0881
vn -0.9744 -0.2149 0.0663
vn 0.9744 -0.2149 0.0663
vn -0.9086 -0.4135 -0.0597
vn 0.9086 -0.4135 -0.0597
vn -0.8959 -0.4395 -0.0652
vn 0.8959 -0.4395 -0.0652
vn -0.8448 -0.4169 -0.3354
vn 0.8448 -0.4169 -0.3353
vn -0.6477 -0.3202 -0.6913
vn 0.6478 -0.3202 -0.6913
vn -0.4403 -0.2324 -0.8672
vn 0.4403 -0.2324 -0.8672
vn -0.2931 -0.1837 -0.9382
vn 0.2931 -0.1837 -0.9383
vn -0.0000 -0.1794 -0.9838
vn -0.0000 -0.5045 -0.8634
vn -0.2433 -0.4957 -0.8337
vn 0.2433 -0.4957 -0.8337
vn -0.4215 -0.4836 -0.7671
vn 0.4215 -0.4836 -0.7671
vn -0.6382 -0.4747 -0.6061
vn 0.6382 -0.4747 -0.6061
vn -0.8326 -0.4573 -0.3126
vn 0.8326 -0.4573 -0.3126
vn -0.9188 -0.3913 -0.0522
vn 0.9188 -0.3913 -0.0522
vn -0.7090 -0.7011 0.0759
vn 0.7090 -0.7011 0.0759
vn -0.5585 -0.7160 0.4187
vn 0.5586 -0.7160 0.4187
vn -0.6625 -0.7485 -0.0286
vn 0.6625 -0.7485 -0.0286
vn -0.6412 -0.7473 -0.1742
vn 0.6412 -0.7474 -0.1742
vn -0.4809 -0.7651 -0.4283
vn 0.4808 -0.7651 -0.4282
vn -0.3463 -0.7903 -0.5055
vn 0.3463 -0.7903 -0.5054
vn -0.2116 -0.7496 -0.6272
vn 0.2116 -0.7496 -0.6272
vn -0.0000 -0.6163 -0.7875
vn -0.0000 -0.5041 -0.8637
vn -0.0000 -0.7302 -0.6833
vn -0.0000 -0.9385 -0.3454
vn -0.0000 -0.9720 -0.2349
vn -0.0000 -0.9928 -0.1200
vn -0.0000 -1.0000 0.0039
vn -0.0000 -0.8784 0.4780
vn -0.0000 -0.4741 0.8805
vn -0.7178 -0.6348 -0.2859
vn 0.7178 -0.6348 -0.2859
vn -0.9329 -0.3597 0.0166
vn 0.9329 -0.3597 0.0166
vn -0.8403 -0.4077 0.3573
vn 0.8403 -0.4077 0.3573
vn -0.7900 -0.3869 0.4757
vn 0.7900 -0.3869 0.4757
vn -0.9253 -0.1647 0.3417
vn 0.9253 -0.1647 0.3417
vn -0.7569 -0.4752 -0.4488
vn 0.7569 -0.4752 -0.4487
vn -0.7870 -0.4096 -0.4613
vn 0.7870 -0.4097 -0.4613
vn -0.8734 -0.0335 0.4859
vn 0.8734 -0.0335 0.4859
vn -0.7644 -0.6249 -0.1590
vn 0.7644 -0.6248 -0.1590
vn -0.4595 -0.8841 0.0855
vn 0.4595 -0.8841 0.0855
vn -0.7092 -0.2673 0.6524
vn 0.7092 -0.2673 0.6524
vn -0.0000 -0.3094 0.9509
vn -0.0000 0.7782 0.6280
vn -0.4547 0.6752 0.5808
vn 0.4547 0.6752 0.5808
vn -0.7287 0.2531 0.6363
vn 0.7288 0.2531 0.6363
vn -0.0000 0.4843 0.8749
vn -0.0000 0.9697 0.2445
vn -0.0000 0.9876 0.1570
vn -0.6008 0.0422 0.7983
vn 0.6008 0.0422 0.7983
vn -0.5978 0.4593 -0.6571
vn 0.5978 0.4593 -0.6571
vn 0.6590 0.3487 -0.6665
vn -0.6590 0.3487 -0.6665
vn 0.6416 -0.0578 0.7649
vn -0.6416 -0.0578 0.7649
vn -0.4107 0.7193 0.5604
vn 0.4107 0.7193 0.5604
vn -0.4107 0.8767 -0.2505
vn 0.4107 0.8767 -0.2505
vn 0.4808 0.8390 -0.2547
vn -0.4807 0.8391 -0.2547
vn 0.4808 0.6828 0.5502
vn -0.4808 0.6828 0.5502
vn -0.0000 -0.5618 0.8273
vn -0.0000 -0.0578 -0.9983
vn -0.7860 0.0149 -0.6181
vn 0.7860 0.0149 -0.6181
vn -0.8148 -0.2730 0.5114
vn 0.8148 -0.2730 0.5114
vn -0.4356 -0.7636 0.4767
vn 0.4356 -0.7636 0.4767
vn -0.4356 -0.5297 -0.7277
vn 0.4356 -0.5298 -0.7277
vn 0.4179 -0.5602 -0.7152
vn -0.4179 -0.5602 -0.7152
vn 0.4179 -0.7871 0.4536
vn -0.4179 -0.7871 0.4536
vn 0.2020 -0.7871 0.5828
vn -0.2020 -0.7871 0.5828
vn 0.6688 -0.5602 -0.4888
vn -0.6688 -0.5602 -0.4888
vn -0.1088 -0.5298 -0.8411
vn 0.1087 -0.5297 -0.8412
vn -0.5897 -0.7636 0.2630
vn 0.5897 -0.7636 0.2630
vn -0.9513 -0.2729 0.1435
vn 0.9513 -0.2729 0.1434
vn -0.4738 0.0149 -0.8805
vn 0.4737 0.0149 -0.8806
vn 0.9528 -0.0380 -0.3013
vn -0.9528 -0.0380 -0.3013
vn 0.5071 -0.3522 0.7866
vn -0.5072 -0.3522 0.7866
vn 0.5181 0.2836 0.8069
vn -0.5182 0.2835 0.8069
vn 0.8535 0.4654 -0.2343
vn -0.8535 0.4654 -0.2343
vn -0.3634 0.6816 -0.6351
vn 0.3634 0.6816 -0.6351
vn -0.7414 0.5077 0.4389
vn 0.7413 0.5078 0.4389
vn 0.1901 -0.4150 0.8898
vn -0.1901 -0.4150 0.8898
vn 0.8357 -0.1370 -0.5319
vn -0.8357 -0.1369 -0.5319
vn -0.3392 0.1656 -0.9260
vn 0.3392 0.1656 -0.9260
vn -0.8763 -0.1802 0.4467
vn 0.8763 -0.1802 0.4467
vn -0.9959 0.0011 -0.0906
vn 0.9959 0.0012 -0.0906
vn 0.2340 0.3709 -0.8987
vn -0.2340 0.3709 -0.8987
vn 0.9880 -0.1195 0.0980
vn -0.9880 -0.1195 0.0980
vn -0.2410 -0.4611 0.8540
vn 0.2410 -0.4611 0.8540
vn -0.7650 0.6364 0.0991
vn 0.7650 0.6364 0.0991
vn 0.1805 0.8169 -0.5478
vn -0.1806 0.8169 -0.5478
vn 0.8351 0.4528 0.3122
vn -0.8352 0.4528 0.3122
vn -0.1061 0.2731 0.9561
vn 0.1060 0.2731 0.9561
vn -0.0308 -0.5501 0.8345
vn 0.0309 -0.5501 0.8345
vn 0.9474 -0.2740 0.1655
vn -0.9474 -0.2739 0.1656
vn 0.0387 0.2270 -0.9731
vn -0.0386 0.2270 -0.9731
vn -0.9297 -0.0093 -0.3682
vn 0.9297 -0.0093 -0.3682
vn -0.7807 -0.5900 -0.2060
vn 0.7807 -0.5899 -0.2060
vn 0.2195 -0.3990 -0.8903
vn -0.2196 -0.3990 -0.8903
vn 0.6964 -0.6769 -0.2384
vn -0.6964 -0.6769 -0.2383
vn -0.2743 -0.8623 0.4257
vn 0.2743 -0.8623 0.4257
vn -0.2743 -0.8622 0.4258
vn 0.2743 -0.8623 0.4258
vn -0.6964 -0.6769 -0.2384
vn 0.2196 -0.3990 -0.8903
vn -0.2195 -0.3990 -0.8903
vn 0.7807 -0.5900 -0.2060
vn -0.9297 -0.0092 -0.3682
vn 0.9297 -0.0092 -0.3682
vn 0.0387 0.2269 -0.9731
vn -0.0386 0.2269 -0.9731
vn 0.9474 -0.2739 0.1656
vn -0.9474 -0.2739 0.1655
vn -0.0309 -0.5501 0.8345
vn -0.0249 0.5206 0.8534
vn 0.0249 0.5206 0.8534
vn 0.6522 0.6499 0.3902
vn -0.6522 0.6499 0.3902
vn 0.1368 0.9486 -0.2853
vn -0.1368 0.9486 -0.2853
vn -0.5453 0.8184 0.1814
vn 0.5453 0.8184 0.1814
vn -0.2469 -0.2277 0.9419
vn 0.2469 -0.2277 0.9419
vn 0.9785 0.1174 0.1693
vn -0.9785 0.1174 0.1694
vn 0.2659 0.5910 -0.7616
vn -0.2659 0.5910 -0.7616
vn -0.9721 0.2320 0.0348
vn 0.9721 0.2320 0.0348
vn -0.9880 -0.1195 0.0979
vn 0.7649 0.6364 0.0991
vn 0.1805 0.8169 -0.5477
vn -0.1806 0.8169 -0.5477
vn 0.9474 -0.2740 0.1656
vn 0.2743 -0.8622 0.4258
vn 0.0386 0.2270 -0.9731
vn 0.9474 -0.2739 0.1655
vn -0.0205 0.5324 0.8462
vn 0.0205 0.5324 0.8462
vn 0.6412 0.6588 0.3936
vn -0.6412 0.6588 0.3936
vn 0.1345 0.9533 -0.2706
vn -0.1345 0.9532 -0.2707
vn -0.5324 0.8259 0.1856
vn 0.5323 0.8260 0.1856
vn -0.2467 -0.2174 0.9444
vn 0.2467 -0.2174 0.9444
vn 0.9768 0.1272 0.1724
vn -0.9768 0.1272 0.1724
vn 0.2669 0.5994 -0.7546
vn -0.2669 0.5994 -0.7546
vn -0.9696 0.2414 0.0403
vn 0.9696 0.2414 0.0403
vn 0.9696 0.2314 0.0797
vn -0.9696 0.2314 0.0797
vn -0.2669 0.1668 0.9492
vn 0.2669 0.1668 0.9492
vn -0.9768 0.1940 -0.0908
vn 0.9768 0.1940 -0.0908
vn 0.2467 0.2595 -0.9337
vn -0.2467 0.2595 -0.9337
vn 0.5324 0.8144 0.2310
vn -0.5323 0.8144 0.2310
vn -0.1345 0.7087 0.6926
vn 0.1345 0.7087 0.6926
vn -0.6412 0.7667 -0.0316
vn 0.6412 0.7667 -0.0316
vn 0.0205 0.8716 -0.4897
vn -0.0205 0.8716 -0.4897
vn 0.0340 -0.3068 -0.9512
vn -0.0340 -0.3068 -0.9512
vn -0.8901 -0.2932 -0.3490
vn 0.8901 -0.2932 -0.3490
vn -0.0447 0.1025 0.9937
vn 0.0447 0.1025 0.9937
vn 0.9680 -0.1303 0.2147
vn -0.9680 -0.1303 0.2147
vn 0.7554 -0.6267 0.1913
vn -0.7554 -0.6267 0.1913
vn -0.2004 -0.5366 0.8197
vn 0.2004 -0.5366 0.8197
vn -0.7623 -0.6344 0.1282
vn 0.7623 -0.6344 0.1282
vn 0.2731 -0.7685 -0.5786
vn -0.2732 -0.7685 -0.5786
vn -0.2731 -0.7685 -0.5786
vn -0.7622 -0.6345 0.1282
vn 0.7622 -0.6345 0.1282
vn -0.2004 -0.5365 0.8197
vn 0.2004 -0.5365 0.8198
vn 0.9680 -0.1303 0.2146
vn -0.9680 -0.1303 0.2146
vn -0.0447 0.1024 0.9937
vn 0.0446 0.1024 0.9937
vn -0.8901 -0.2931 -0.3490
vn 0.8901 -0.2931 -0.3490
vn 0.0339 -0.3068 -0.9512
vn 0.1061 0.6962 -0.7100
vn -0.1060 0.6962 -0.7100
vn -0.8351 0.5469 -0.0584
vn 0.8352 0.5469 -0.0584
vn -0.1805 0.4567 0.8711
vn 0.1806 0.4567 0.8711
vn 0.7650 0.6066 0.2165
vn -0.7650 0.6066 0.2165
vn 0.2410 0.0022 -0.9705
vn -0.2410 0.0022 -0.9705
vn -0.9880 -0.0583 -0.1431
vn 0.9880 -0.0583 -0.1431
vn -0.2340 -0.1027 0.9668
vn 0.2340 -0.1027 0.9668
vn 0.9959 -0.0422 0.0802
vn -0.9959 -0.0422 0.0802
vn 0.9721 0.2204 0.0801
vn -0.9721 0.2204 0.0801
vn -0.2659 0.1560 0.9513
vn 0.2658 0.1561 0.9513
vn -0.9785 0.1839 -0.0929
vn 0.9785 0.1840 -0.0929
vn 0.2469 0.2492 -0.9365
vn -0.2469 0.2492 -0.9364
vn 0.5453 0.8058 0.2310
vn -0.5453 0.8058 0.2310
vn -0.1368 0.6977 0.7032
vn 0.1368 0.6977 0.7032
vn -0.6522 0.7573 -0.0329
vn 0.6522 0.7573 -0.0329
vn 0.0249 0.8647 -0.5017
vn -0.0250 0.8647 -0.5017
vn 0.7555 -0.6266 0.1913
vn -0.7555 -0.6266 0.1913
vn -0.2003 -0.5365 0.8198
vn 0.2003 -0.5365 0.8198
vn 0.7622 -0.6345 0.1283
vn 0.2732 -0.7685 -0.5786
vn -0.7623 -0.6345 0.1282
vn 0.0447 0.1024 0.9937
vn -0.0339 -0.3068 -0.9512
vn 0.1061 0.6961 -0.7100
vn -0.1060 0.6961 -0.7100
vn -0.7649 0.6066 0.2165
vn 0.2410 0.0021 -0.9705
vn -0.2410 0.0021 -0.9705
vn 0.8763 0.0547 -0.4786
vn -0.8764 0.0547 -0.4786
vn 0.3392 -0.2962 0.8929
vn -0.3392 -0.2962 0.8929
vn -0.8357 -0.3741 0.4022
vn 0.8357 -0.3741 0.4022
vn -0.1901 0.0597 -0.9799
vn 0.1901 0.0598 -0.9799
vn 0.7413 0.6556 -0.1435
vn -0.7413 0.6556 -0.1435
vn 0.3634 0.2960 0.8834
vn -0.3634 0.2960 0.8833
vn -0.8535 0.2973 0.4279
vn 0.8535 0.2973 0.4279
vn -0.5181 0.6341 -0.5739
vn 0.5182 0.6341 -0.5739
vn -0.4644 -0.1658 -0.8699
vn 0.4645 -0.1658 -0.8699
vn -0.9743 -0.1860 0.1269
vn 0.9743 -0.1860 0.1270
vn 0.5875 -0.1983 0.7845
vn -0.5874 -0.1982 0.7846
vn 0.8974 -0.2718 -0.3477
vn -0.8974 -0.2718 -0.3477
vn 0.5394 -0.7664 -0.3489
vn -0.5394 -0.7664 -0.3488
vn 0.1342 -0.6250 0.7690
vn -0.1342 -0.6250 0.7690
vn -0.6709 -0.5721 0.4717
vn 0.6709 -0.5722 0.4717
vn -0.2101 -0.7099 -0.6722
vn 0.2101 -0.7099 -0.6722
vn -0.5415 -0.6569 -0.5247
vn 0.5416 -0.6568 -0.5247
vn -0.4825 -0.6041 0.6342
vn 0.4826 -0.6041 0.6342
vn 0.4489 -0.5784 0.6811
vn -0.4489 -0.5784 0.6811
vn 0.4086 -0.7279 -0.5507
vn -0.4086 -0.7279 -0.5507
vn 0.7581 -0.1593 -0.6324
vn -0.7581 -0.1593 -0.6324
vn 0.8559 -0.1959 0.4786
vn -0.8559 -0.1959 0.4786
vn -0.8128 -0.1799 0.5540
vn 0.8128 -0.1799 0.5540
vn -0.5990 -0.3295 -0.7298
vn 0.5989 -0.3295 -0.7299
vn -0.4808 0.8625 -0.1578
vn 0.4808 0.8625 -0.1578
vn -0.4808 0.6159 0.6241
vn 0.4808 0.6160 0.6241
vn 0.4106 0.6510 0.6384
vn -0.4106 0.6510 0.6384
vn 0.4106 0.8995 -0.1494
vn -0.4106 0.8995 -0.1494
vn -0.6801 0.2416 -0.6922
vn 0.6801 0.2416 -0.6922
vn -0.7085 -0.0981 0.6988
vn 0.7086 -0.0981 0.6988
vn 0.5979 0.0907 0.7964
vn -0.5979 0.0907 0.7964
vn 0.6012 0.4190 -0.6804
vn -0.6012 0.4190 -0.6804
vn -0.0000 -0.2512 0.9679
vn -0.5413 -0.3588 0.7605
vn 0.5413 -0.3588 0.7605
vn -0.6015 -0.4932 0.6285
vn 0.6015 -0.4932 0.6284
vn -0.0000 -0.8910 0.4541
vn -0.0000 -0.9428 -0.3334
vn -0.6992 -0.6950 0.1679
vn 0.6992 -0.6950 0.1679
vn -0.5443 -0.6869 0.4816
vn 0.5443 -0.6869 0.4816
vn -0.0000 -0.9905 -0.1373
vn -0.0000 -0.6098 0.7926
vn -0.1672 -0.5716 0.8033
vn 0.1672 -0.5716 0.8033
vn -0.2268 0.2180 0.9492
vn 0.2268 0.2180 0.9492
vn -0.0000 0.2687 0.9632
vn -0.5950 0.0122 0.8036
vn 0.5950 0.0122 0.8036
vn -0.8507 -0.2771 0.4467
vn 0.8507 -0.2771 0.4467
vn -0.7700 -0.3307 0.5457
vn 0.7700 -0.3307 0.5457
vn 0.1959 -0.6961 0.6907
vn -0.1959 -0.6961 0.6907
vn -0.0678 -0.7683 0.6365
vn 0.0678 -0.7683 0.6365
vn -0.4978 -0.3374 0.7990
vn 0.4978 -0.3374 0.7990
vn -0.0000 0.2926 0.9562
vn -0.0000 -0.0464 0.9989
vn -0.1045 -0.3242 0.9402
vn 0.1045 -0.3242 0.9402
vn -0.4458 0.5183 0.7298
vn 0.4458 0.5183 0.7298
vn -0.5862 0.4644 0.6638
vn 0.5862 0.4644 0.6638
vn -0.7797 -0.4964 0.3816
vn 0.7797 -0.4964 0.3816
vn -0.5223 -0.3822 0.7623
vn 0.5223 -0.3822 0.7623
vn 0.2804 0.1658 0.9454
vn -0.2804 0.1658 0.9454
vn -0.0000 0.7226 0.6912
vn -0.0000 0.3178 -0.9482
vn -0.0000 0.0031 -1.0000
vn 0.7407 0.6653 -0.0935
vn -0.7407 0.6653 -0.0935
vn 0.0793 0.9943 -0.0712
vn -0.0793 0.9943 -0.0712
vn -0.0000 0.9756 -0.2195
vn -0.5221 -0.8473 -0.0974
vn 0.5221 -0.8473 -0.0974
vn 0.4661 -0.8799 -0.0925
vn -0.4661 -0.8799 -0.0925
vn 0.9831 -0.1373 -0.1211
vn -0.9831 -0.1373 -0.1211
vn 0.7365 -0.6761 0.0194
vn -0.7365 -0.6761 0.0194
vn 0.9988 -0.0026 -0.0492
vn -0.9988 -0.0026 -0.0492
vn 0.9993 -0.0314 -0.0190
vn -0.9993 -0.0314 -0.0190
vn 0.8359 -0.5488 -0.0127
vn -0.8359 -0.5488 -0.0127
vn 0.8895 0.4567 0.0119
vn -0.8895 0.4567 0.0119
vn 0.9236 0.3785 0.0603
vn -0.9236 0.3785 0.0603
vn 0.4274 -0.9038 0.0191
vn -0.4274 -0.9038 0.0191
vn -0.0000 -0.9522 0.3054
vn -0.0000 -0.9671 -0.2543
vn -0.0000 -0.8560 -0.5170
vn -0.0000 -0.5758 -0.8176
vn -0.0000 -0.4151 -0.9098
vn -0.0000 -0.9973 -0.0737
vt 0.000000 0.000000
vt 1.000000 0.000000
vt 1.000000 1.000000
vt 0.000000 1.000000
s 1
usemtl skeleton
f 1/1/1 2/2/2 21/3/21 23/4/23
f 1/1/1 24/2/24 22/3/22 2/4/2
f 2/1/2 3/2/3 19/3/19 21/4/21
f 20/1/20 3/2/3 2/3/2 22/4/22
f 3/1/3 6/2/6 4/3/4 19/4/19
f 5/1/5 6/2/6 3/3/3 20/4/20
f 6/1/6 7/2/7 8/3/8 4/4/4
f 9/1/9 7/2/7 6/3/6 5/4/5
f 7/1/7 12/2/12 10/3/10 8/4/8
f 11/1/11 12/2/12 7/3/7 9/4/9
f 12/1/12 13/2/13 14/3/14 10/4/10
f 15/1/15 13/2/13 12/3/12 11/4/11
f 4/1/4 39/2/39 29/3/29 19/4/19
f 30/1/30 40/2/40 5/3/5 20/4/20
f 21/1/21 27/2/27 25/3/25 23/4/23
f 26/1/26 28/2/28 22/3/22 24/4/24
f 19/1/19 29/2/29 27/3/27 21/4/21
f 28/1/28 30/2/30 20/3/20 22/4/22
f 14/1/14 33/2/33 35/3/35 10/4/10
f 36/1/36 34/2/34 15/3/15 11/4/11
f 10/1/10 35/2/35 37/3/37 8/4/8
f 38/1/38 36/2/36 11/3/11 9/4/9
f 8/1/8 37/2/37 39/3/39 4/4/4
f 40/1/40 38/2/38 9/3/9 5/4/5
f 37/1/37 43/2/43 41/3/41 39/4/39
f 42/1/42 44/2/44 38/3/38 40/4/40
f 35/1/35 45/2/45 43/3/43 37/4/37
f 44/1/44 46/2/46 36/3/36 38/4/38
f 33/1/33 47/2/47 45/3/45 35/4/35
f 46/1/46 48/2/48 34/3/34 36/4/36
f 29/1/29 51/2/51 53/3/53 27/4/27
f 54/1/54 52/2/52 30/3/30 28/4/28
f 27/1/27 53/2/53 55/3/55 25/4/25
f 56/1/56 54/2/54 28/3/28 26/4/26
f 39/1/39 41/2/41 51/3/51 29/4/29
f 52/1/52 42/2/42 40/3/40 30/4/30
f 41/1/41 71/2/71 61/3/61 51/4/51
f 62/1/62 72/2/72 42/3/42 52/4/52
f 53/1/53 59/2/59 57/3/57 55/4/55
f 58/1/58 60/2/60 54/3/54 56/4/56
f 51/1/51 61/2/61 59/3/59 53/4/53
f 60/1/60 62/2/62 52/3/52 54/4/54
f 47/1/47 65/2/65 67/3/67 45/4/45
f 68/1/68 66/2/66 48/3/48 46/4/46
f 45/1/45 67/2/67 69/3/69 43/4/43
f 70/1/70 68/2/68 46/3/46 44/4/44
f 43/1/43 69/2/69 71/3/71 41/4/41
f 72/1/72 70/2/70 44/3/44 42/4/42
f 61/1/61 71/2/71 96/3/96
f 97/1/97 72/2/72 62/3/62
f 69/1/69 90/2/90 96/3/96 71/4/71
f 97/1/97 91/2/91 70/3/70 72/4/72
f 67/1/67 84/2/84 90/3/90 69/4/69
f 91/1/91 85/2/85 68/3/68 70/4/70
f 65/1/65 84/2/84 67/3/67
f 68/1/68 85/2/85 66/3/66
f 14/1/14 13/2/13 73/3/73 74/4/74
f 73/1/73 13/2/13 15/3/15 75/4/75
f 74/1/74 73/2/73 16/3/16 17/4/17
f 16/1/16 73/2/73 75/3/75 18/4/18
f 17/1/17 31/2/31 76/3/76 74/4/74
f 77/1/77 32/2/32 18/3/18 75/4/75
f 74/1/74 76/2/76 33/3/33 14/4/14
f 34/1/34 77/2/77 75/3/75 15/4/15
f 31/1/31 49/2/49 78/3/78 76/4/76
f 79/1/79 50/2/50 32/3/32 77/4/77
f 76/1/76 78/2/78 47/3/47 33/4/33
f 48/1/48 79/2/79 77/3/77 34/4/34
f 49/1/49 63/2/63 80/3/80 78/4/78
f 81/1/81 64/2/64 50/3/50 79/4/79
f 78/1/78 80/2/80 65/3/65 47/4/47
f 66/1/66 81/2/81 79/3/79 48/4/48
f 80/1/80 82/2/82 84/3/84 65/4/65
f 85/1/85 83/2/83 81/3/81 66/4/66
f 63/1/63 86/2/86 82/3/82 80/4/80
f 83/1/83 87/2/87 64/3/64 81/4/81
f 86/1/86 88/2/88 92/3/92 82/4/82
f 93/1/93 89/2/89 87/3/87 83/4/83
f 82/1/82 92/2/92 90/3/90 84/4/84
f 91/1/91 93/2/93 83/3/83 85/4/85
f 92/1/92 94/2/94 96/3/96 90/4/90
f 97/1/97 95/2/95 93/3/93 91/4/91
f 88/1/88 98/2/98 94/3/94 92/4/92
f 95/1/95 99/2/99 89/3/89 93/4/93
f 57/1/57 59/2/59 94/3/94 98/4/98
f 95/1/95 60/2/60 58/3/58 99/4/99
f 59/1/59 61/2/61 96/3/96 94/4/94
f 97/1/97 62/2/62 60/3/60 95/4/95
f 86/1/86 102/2/102 100/3/100 88/4/88
f 101/1/101 103/2/103 87/3/87 89/4/89
f 63/1/63 104/2/104 102/3/102 86/4/86
f 103/1/103 105/2/105 64/3/64 87/4/87
f 49/1/49 106/2/106 104/3/104 63/4/63
f 105/1/105 107/2/107 50/3/50 64/4/64
f 31/1/31 108/2/108 106/3/106 49/4/49
f 107/1/107 109/2/109 32/3/32 50/4/50
f 17/1/17 110/2/110 108/3/108 31/4/31
f 109/1/109 111/2/111 18/3/18 32/4/32
f 16/1/16 112/2/112 110/3/110 17/4/17
f 111/1/111 112/2/112 16/3/16 18/4/18
f 112/1/112 113/2/113 114/3/114 110/4/110
f 115/1/115 113/2/113 112/3/112 111/4/111
f 110/1/110 114/2/114 116/3/116 108/4/108
f 117/1/117 115/2/115 111/3/111 109/4/109
f 108/1/108 116/2/116 118/3/118 106/4/106
f 119/1/119 117/2/117 109/3/109 107/4/107
f 106/1/106 118/2/118 120/3/120 104/4/104
f 121/1/121 119/2/119 107/3/107 105/4/105
f 104/1/104 120/2/120 122/3/122 102/4/102
f 123/1/123 121/2/121 105/3/105 103/4/103
f 102/1/102 122/2/122 124/3/124 100/4/100
f 125/1/125 123/2/123 103/3/103 101/4/101
f 122/1/122 128/2/128 126/3/126 124/4/124
f 127/1/127 129/2/129 123/3/123 125/4/125
f 120/1/120 130/2/130 128/3/128 122/4/122
f 129/1/129 131/2/131 121/3/121 123/4/123
f 118/1/118 132/2/132 130/3/130 120/4/120
f 131/1/131 133/2/133 119/3/119 121/4/121
f 116/1/116 134/2/134 132/3/132 118/4/118
f 133/1/133 135/2/135 117/3/117 119/4/119
f 114/1/114 136/2/136 134/3/134 116/4/116
f 135/1/135 137/2/137 115/3/115 117/4/117
f 113/1/113 138/2/138 136/3/136 114/4/114
f 137/1/137 138/2/138 113/3/113 115/4/115
f 138/1/138 139/2/139 140/3/140 136/4/136
f 140/1/140 139/2/139 138/3/138 137/4/137
f 136/1/136 140/2/140 141/3/141 134/4/134
f 141/1/141 140/2/140 137/3/137 135/4/135
f 134/1/134 141/2/141 142/3/142 132/4/132
f 142/1/142 141/2/141 135/3/135 133/4/133
f 132/1/132 142/2/142 143/3/143 130/4/130
f 143/1/143 142/2/142 133/3/133 131/4/131
f 130/1/130 143/2/143 144/3/144 128/4/128
f 144/1/144 143/2/143 131/3/131 129/4/129
f 128/1/128 144/2/144 145/3/145 126/4/126
f 145/1/145 144/2/144 129/3/129 127/4/127
f 126/1/126 146/2/146 637/3/556 124/4/124
f 637/1/556 146/2/146 127/3/127 125/4/125
f 126/1/126 145/2/145 146/3/146
f 146/1/146 145/2/145 127/3/127
f 124/1/124 147/2/147 149/3/149 100/4/100
f 150/1/150 148/2/148 125/3/125 101/4/101
f 100/1/100 149/2/149 98/3/98 88/4/88
f 99/1/99 150/2/150 101/3/101 89/4/89
f 124/1/124 637/2/556 147/3/147
f 148/1/148 637/2/556 125/3/125
f 149/1/149 151/2/151 57/3/57 98/4/98
f 58/1/58 152/2/152 150/3/150 99/4/99
f 147/1/147 153/2/153 151/3/151 149/4/149
f 152/1/152 154/2/154 148/3/148 150/4/150
f 147/1/147 157/2/157 155/3/155 153/4/153
f 156/1/156 158/2/158 148/3/148 154/4/154
f 157/1/157 159/2/159 173/3/173 155/4/155
f 174/1/174 160/2/160 158/3/158 156/4/156
f 159/1/159 163/2/163 161/3/161 173/4/173
f 162/1/162 164/2/164 160/3/160 174/4/174
f 163/1/163 165/2/165 167/3/167 161/4/161
f 168/1/168 166/2/166 164/3/164 162/4/162
f 165/1/165 632/2/551 169/3/169 167/4/167
f 169/1/169 632/2/551 166/3/166 168/4/168
f 169/1/169 170/2/170 171/3/171 167/4/167
f 172/1/172 170/2/170 169/3/169 168/4/168
f 167/1/167 171/2/171 173/3/173 161/4/161
f 174/1/174 172/2/172 168/3/168 162/4/162
f 171/1/171 176/2/176 175/3/175 173/4/173
f 175/1/175 176/2/176 172/3/172 174/4/174
f 170/1/170 177/2/177 176/3/176 171/4/171
f 176/1/176 177/2/177 170/3/170 172/4/172
f 173/1/173 175/2/175 560/3/479 561/4/480
f 560/1/479 175/2/175 174/3/174 562/4/481
f 561/1/480 560/2/479 565/3/484 563/4/482
f 565/1/484 560/2/479 562/3/481 564/4/483
f 155/1/155 173/2/173 561/3/480
f 562/1/481 174/2/174 156/3/156
f 153/1/153 155/2/155 561/3/480 563/4/482
f 562/1/481 156/2/156 154/3/154 564/4/483
f 563/1/482 565/2/484 566/3/485 567/4/486
f 566/1/485 565/2/484 564/3/483 568/4/487
f 567/1/486 566/2/485 571/3/490 569/4/488
f 571/1/490 566/2/485 568/3/487 570/4/489
f 569/1/488 571/2/490 572/3/491 573/4/492
f 572/1/491 571/2/490 570/3/489 574/4/493
f 569/1/488 573/2/492 575/3/494 578/4/497
f 576/1/495 574/2/493 570/3/489 579/4/498
f 573/1/492 572/2/491 577/3/496 575/4/494
f 577/1/496 572/2/491 574/3/493 576/4/495
f 567/1/486 569/2/488 578/3/497 580/4/499
f 579/1/498 570/2/489 568/3/487 581/4/500
f 563/1/482 567/2/486 580/3/499 582/4/501
f 581/1/500 568/2/487 564/3/483 583/4/502
f 151/1/151 153/2/153 563/3/482 582/4/501
f 564/1/483 154/2/154 152/3/152 583/4/502
f 55/1/55 57/2/57 151/3/151 584/4/503
f 152/1/152 58/2/58 56/3/56 585/4/504
f 25/1/25 55/2/55 584/3/503 586/4/505
f 585/1/504 56/2/56 26/3/26 587/4/506
f 23/1/23 25/2/25 586/3/505 588/4/507
f 587/1/506 26/2/26 24/3/24 589/4/508
f 1/1/1 23/2/23 588/3/507 590/4/509
f 1/1/1 590/2/509 589/3/508 24/4/24
f 584/1/503 151/2/151 582/3/501 596/4/515
f 583/1/502 152/2/152 585/3/504 597/4/516
f 590/1/509 588/2/507 592/3/511 591/4/510
f 593/1/512 589/2/508 590/3/509 591/4/510
f 594/1/513 596/2/515 598/3/517 600/4/519
f 599/1/518 597/2/516 595/3/514 601/4/520
f 592/1/511 594/2/513 600/3/519 602/4/521
f 601/1/520 595/2/514 593/3/512 603/4/522
f 580/1/499 598/2/517 596/3/515 582/4/501
f 597/1/516 599/2/518 581/3/500 583/4/502
f 578/1/497 600/2/519 598/3/517 580/4/499
f 599/1/518 601/2/520 579/3/498 581/4/500
f 575/1/494 602/2/521 600/3/519 578/4/497
f 601/1/520 603/2/522 576/3/495 579/4/498
f 575/1/494 577/2/496 604/3/523 602/4/521
f 604/1/523 577/2/496 576/3/495 603/4/522
f 596/1/515 594/2/513 609/3/528 607/4/526
f 610/1/529 595/2/514 597/3/516 608/4/527
f 594/1/513 592/2/511 611/3/530 609/4/528
f 611/1/530 593/2/512 595/3/514 610/4/529
f 592/1/511 588/2/507 612/3/531 611/4/530
f 613/1/532 589/2/508 593/3/512 611/4/530
f 584/1/503 596/2/515 607/3/526 616/4/535
f 608/1/527 597/2/516 585/3/504 617/4/536
f 588/1/507 586/2/505 614/3/533 612/4/531
f 615/1/534 587/2/506 589/3/508 613/4/532
f 586/1/505 584/2/503 616/3/535 614/4/533
f 617/1/536 585/2/504 587/3/506 615/4/534
f 606/1/525 605/2/524 620/3/539 618/4/537
f 621/1/540 605/2/524 606/3/525 619/4/538
f 591/1/510 606/2/525 618/3/537
f 619/1/538 606/2/525 591/3/510
f 591/1/510 592/2/511 618/3/537
f 619/1/538 593/2/512 591/3/510
f 604/1/523 620/2/539 605/3/524
f 605/1/524 621/2/540 604/3/523
f 620/1/539 604/2/523 626/3/545 622/4/541
f 627/1/546 604/2/523 621/3/540 623/4/542
f 618/1/537 592/2/511 630/3/549 624/4/543
f 631/1/550 593/2/512 619/3/538 625/4/544
f 618/1/537 620/2/539 622/3/541 624/4/543
f 623/1/542 621/2/540 619/3/538 625/4/544
f 602/1/521 604/2/523 626/3/545 628/4/547
f 627/1/546 604/2/523 603/3/522 629/4/548
f 592/1/511 602/2/521 628/3/547 630/4/549
f 629/1/548 603/2/522 593/3/512 631/4/550
f 632/1/551 165/2/165 633/3/552
f 633/1/552 166/2/166 632/3/551
f 165/1/165 163/2/163 634/3/553 633/4/552
f 634/1/553 164/2/164 166/3/166 633/4/552
f 163/1/163 159/2/159 635/3/554 634/4/553
f 635/1/554 160/2/160 164/3/164 634/4/553
f 159/1/159 157/2/157 636/3/555 635/4/554
f 636/1/555 158/2/158 160/3/160 635/4/554
f 157/1/157 147/2/147 637/3/556 636/4/555
f 637/1/556 148/2/148 158/3/158 636/4/555
usemtl teeth
f 186/1/186 192/2/192 190/3/190 188/4/188
f 191/1/191 193/2/193 187/3/187 189/4/189
f 178/1/178 186/2/186 188/3/188 180/4/180
f 189/1/189 187/2/187 179/3/179 181/4/181
f 180/1/180 188/2/188 190/3/190 182/4/182
f 191/1/191 189/2/189 181/3/181 183/4/183
f 182/1/182 190/2/190 192/3/192 184/4/184
f 193/1/193 191/2/191 183/3/183 185/4/185
f 184/1/184 192/2/192 186/3/186 178/4/178
f 187/1/187 193/2/193 185/3/185 179/4/179
f 182/1/182 184/2/184 194/3/194 195/4/195
f 194/1/194 185/2/185 183/3/183 195/4/195
f 184/1/184 178/2/178 198/3/198 194/4/194
f 199/1/199 179/2/179 185/3/185 194/4/194
f 178/1/178 180/2/180 196/3/196 198/4/198
f 197/1/197 181/2/181 179/3/179 199/4/199
f 180/1/180 182/2/182 195/3/195 196/4/196
f 195/1/195 183/2/183 181/3/181 197/4/197
f 196/1/196 195/2/195 204/3/204 202/4/202
f 205/1/205 195/2/195 197/3/197 203/4/203
f 198/1/198 196/2/196 202/3/202 200/4/200
f 203/1/203 197/2/197 199/3/199 201/4/201
f 194/1/194 198/2/198 200/3/200 206/4/206
f 201/1/201 199/2/199 194/3/194 207/4/207
f 195/1/195 194/2/194 206/3/206 204/4/204
f 207/1/207 194/2/194 195/3/195 205/4/205
f 204/1/204 206/2/206 200/3/200 202/4/202
f 201/1/201 207/2/207 205/3/205 203/4/203
f 210/1/210 208/2/208 214/3/214 212/4/212
f 215/1/215 209/2/209 211/3/211 213/4/213
f 220/1/220 222/2/222 208/3/208 210/4/210
f 209/1/209 223/2/223 221/3/221 211/4/211
f 222/1/222 216/2/216 214/3/214 208/4/208
f 215/1/215 217/2/217 223/3/223 209/4/209
f 216/1/216 218/2/218 212/3/212 214/4/214
f 213/1/213 219/2/219 217/3/217 215/4/215
f 218/1/218 220/2/220 210/3/210 212/4/212
f 211/1/211 221/2/221 219/3/219 213/4/213
f 236/1/236 234/2/234 220/3/220 218/4/218
f 221/1/221 235/2/235 237/3/237 219/4/219
f 238/1/238 236/2/236 218/3/218 216/4/216
f 219/1/219 237/2/237 239/3/239 217/4/217
f 232/1/232 238/2/238 216/3/216 222/4/222
f 217/1/217 239/2/239 233/3/233 223/4/223
f 234/1/234 232/2/232 222/3/222 220/4/220
f 223/1/223 233/2/233 235/3/235 221/4/221
f 232/1/232 224/2/224 230/3/230 238/4/238
f 231/1/231 225/2/225 233/3/233 239/4/239
f 234/1/234 226/2/226 224/3/224 232/4/232
f 225/1/225 227/2/227 235/3/235 233/4/233
f 236/1/236 228/2/228 226/3/226 234/4/234
f 227/1/227 229/2/229 237/3/237 235/4/235
f 238/1/238 230/2/230 228/3/228 236/4/236
f 229/1/229 231/2/231 239/3/239 237/4/237
f 230/1/230 224/2/224 226/3/226 228/4/228
f 227/1/227 225/2/225 231/3/231 229/4/229
f 248/1/248 254/2/254 252/3/252 250/4/250
f 253/1/253 255/2/255 249/3/249 251/4/251
f 240/1/240 248/2/248 250/3/250 242/4/242
f 251/1/251 249/2/249 241/3/241 243/4/243
f 242/1/242 250/2/250 252/3/252 244/4/244
f 253/1/253 251/2/251 243/3/243 245/4/245
f 244/1/244 252/2/252 254/3/254 246/4/246
f 255/1/255 253/2/253 245/3/245 247/4/247
f 246/1/246 254/2/254 248/3/248 240/4/240
f 249/1/249 255/2/255 247/3/247 241/4/241
f 244/1/244 246/2/246 256/3/256 258/4/258
f 257/1/257 247/2/247 245/3/245 259/4/259
f 246/1/246 240/2/240 262/3/262 256/4/256
f 263/1/263 241/2/241 247/3/247 257/4/257
f 240/1/240 242/2/242 260/3/260 262/4/262
f 261/1/261 243/2/243 241/3/241 263/4/263
f 242/1/242 244/2/244 258/3/258 260/4/260
f 259/1/259 245/2/245 243/3/243 261/4/261
f 260/1/260 258/2/258 268/3/268 266/4/266
f 269/1/269 259/2/259 261/3/261 267/4/267
f 262/1/262 260/2/260 266/3/266 264/4/264
f 267/1/267 261/2/261 263/3/263 265/4/265
f 256/1/256 262/2/262 264/3/264 270/4/270
f 265/1/265 263/2/263 257/3/257 271/4/271
f 258/1/258 256/2/256 270/3/270 268/4/268
f 271/1/271 257/2/257 259/3/259 269/4/269
f 268/1/268 270/2/270 264/3/264 266/4/266
f 265/1/265 271/2/271 269/3/269 267/4/267
f 274/1/268 272/2/272 278/3/264 276/4/275
f 279/1/277 273/2/273 275/3/274 277/4/276
f 284/1/282 286/2/284 272/3/272 274/4/268
f 273/1/273 287/2/257 285/3/283 275/4/274
f 286/1/284 280/2/278 278/3/264 272/4/272
f 279/1/277 281/2/279 287/3/257 273/4/273
f 280/1/278 282/2/280 276/3/275 278/4/264
f 277/1/276 283/2/281 281/3/279 279/4/277
f 282/1/280 284/2/282 274/3/268 276/4/275
f 275/1/274 285/2/283 283/3/281 277/4/276
f 300/1/297 298/2/295 284/3/282 282/4/280
f 285/1/283 299/2/296 301/3/298 283/4/281
f 302/1/299 300/2/297 282/3/280 280/4/278
f 283/1/281 301/2/298 303/3/300 281/4/279
f 296/1/293 302/2/299 280/3/278 286/4/284
f 281/1/279 303/2/300 297/3/294 287/4/257
f 298/1/295 296/2/293 286/3/284 284/4/282
f 287/1/257 297/2/294 299/3/296 285/4/283
f 296/1/293 288/2/285 294/3/291 302/4/299
f 295/1/292 289/2/286 297/3/294 303/4/300
f 298/1/295 290/2/287 288/3/285 296/4/293
f 289/1/286 291/2/288 299/3/296 297/4/294
f 300/1/297 292/2/289 290/3/287 298/4/295
f 291/1/288 293/2/290 301/3/298 299/4/296
f 302/1/299 294/2/291 292/3/289 300/4/297
f 293/1/290 295/2/292 303/3/300 301/4/298
f 294/1/291 288/2/285 290/3/287 292/4/289
f 291/1/288 289/2/286 295/3/292 293/4/290
f 312/1/248 318/2/254 316/3/252 314/4/303
f 317/1/253 319/2/255 313/3/302 315/4/304
f 304/1/240 312/2/248 314/3/303 306/4/242
f 315/1/304 313/2/302 305/3/241 307/4/243
f 306/1/242 314/2/303 316/3/252 308/4/244
f 317/1/253 315/2/304 307/3/243 309/4/301
f 308/1/244 316/2/252 318/3/254 310/4/246
f 319/1/255 317/2/253 309/3/301 311/4/247
f 310/1/246 318/2/254 312/3/248 304/4/240
f 313/1/302 319/2/255 311/3/247 305/4/241
f 308/1/244 310/2/246 320/3/284 322/4/305
f 321/1/257 311/2/247 309/3/301 323/4/259
f 310/1/246 304/2/240 326/3/262 320/4/284
f 327/1/263 305/2/241 311/3/247 321/4/257
f 304/1/240 306/2/242 324/3/280 326/4/262
f 325/1/281 307/2/243 305/3/241 327/4/263
f 306/1/242 308/2/244 322/3/305 324/4/280
f 323/1/259 309/2/301 307/3/243 325/4/281
f 324/1/280 322/2/305 332/3/268 330/4/275
f 333/1/274 323/2/259 325/3/281 331/4/276
f 326/1/262 324/2/280 330/3/275 328/4/264
f 331/1/276 325/2/281 327/3/263 329/4/277
f 320/1/284 326/2/262 328/3/264 334/4/270
f 329/1/277 327/2/263 321/3/257 335/4/271
f 322/1/305 320/2/284 334/3/270 332/4/268
f 335/1/271 321/2/257 323/3/259 333/4/274
f 332/1/268 334/2/270 328/3/264 330/4/275
f 329/1/277 335/2/271 333/3/274 331/4/276
f 338/1/268 336/2/270 342/3/264 340/4/266
f 343/1/277 337/2/306 339/3/269 341/4/267
f 348/1/308 350/2/284 336/3/270 338/4/268
f 337/1/306 351/2/257 349/3/259 339/4/269
f 350/1/284 344/2/262 342/3/264 336/4/270
f 343/1/277 345/2/263 351/3/257 337/4/306
f 344/1/262 346/2/307 340/3/266 342/4/264
f 341/1/267 347/2/261 345/3/263 343/4/277
f 346/1/307 348/2/308 338/3/268 340/4/266
f 339/1/269 349/2/259 347/3/261 341/4/267
f 364/1/321 362/2/319 348/3/308 346/4/307
f 349/1/259 363/2/320 365/3/322 347/4/261
f 366/1/323 364/2/321 346/3/307 344/4/262
f 347/1/261 365/2/322 367/3/324 345/4/263
f 360/1/317 366/2/323 344/3/262 350/4/284
f 345/1/263 367/2/324 361/3/318 351/4/257
f 362/1/319 360/2/317 350/3/284 348/4/308
f 351/1/257 361/2/318 363/3/320 349/4/259
f 360/1/317 352/2/309 358/3/315 366/4/323
f 359/1/316 353/2/310 361/3/318 367/4/324
f 362/1/319 354/2/311 352/3/309 360/4/317
f 353/1/310 355/2/312 363/3/320 361/4/318
f 364/1/321 356/2/313 354/3/311 362/4/319
f 355/1/312 357/2/314 365/3/322 363/4/320
f 366/1/323 358/2/315 356/3/313 364/4/321
f 357/1/314 359/2/316 367/3/324 365/4/322
f 358/1/315 352/2/309 354/3/311 356/4/313
f 355/1/312 353/2/310 359/3/316 357/4/314
f 376/1/333 382/2/339 380/3/337 378/4/335
f 381/1/338 383/2/340 377/3/334 379/4/336
f 368/1/325 376/2/333 378/3/335 370/4/327
f 379/1/336 377/2/334 369/3/326 371/4/328
f 370/1/327 378/2/335 380/3/337 372/4/329
f 381/1/338 379/2/336 371/3/328 373/4/330
f 372/1/329 380/2/337 382/3/339 374/4/331
f 383/1/340 381/2/338 373/3/330 375/4/332
f 374/1/331 382/2/339 376/3/333 368/4/325
f 377/1/334 383/2/340 375/3/332 369/4/326
f 372/1/329 374/2/331 384/3/341 386/4/343
f 385/1/342 375/2/332 373/3/330 387/4/344
f 374/1/331 368/2/325 390/3/347 384/4/341
f 391/1/348 369/2/326 375/3/332 385/4/342
f 368/1/325 370/2/327 388/3/345 390/4/347
f 389/1/346 371/2/328 369/3/326 391/4/348
f 370/1/327 372/2/329 386/3/343 388/4/345
f 387/1/344 373/2/330 371/3/328 389/4/346
f 388/1/345 386/2/343 396/3/353 394/4/351
f 397/1/354 387/2/344 389/3/346 395/4/352
f 390/1/347 388/2/345 394/3/351 392/4/349
f 395/1/352 389/2/346 391/3/348 393/4/350
f 384/1/341 390/2/347 392/3/349 398/4/355
f 393/1/350 391/2/348 385/3/342 399/4/356
f 386/1/343 384/2/341 398/3/355 396/4/353
f 399/1/356 385/2/342 387/3/344 397/4/354
f 396/1/353 398/2/355 392/3/349 394/4/351
f 393/1/350 399/2/356 397/3/354 395/4/352
f 402/1/358 400/2/355 406/3/349 404/4/360
f 407/1/350 401/2/357 403/3/359 405/4/361
f 412/1/366 414/2/368 400/3/355 402/4/358
f 401/1/357 415/2/342 413/3/367 403/4/359
f 414/1/368 408/2/362 406/3/349 400/4/355
f 407/1/350 409/2/363 415/3/342 401/4/357
f 408/1/362 410/2/364 404/3/360 406/4/349
f 405/1/361 411/2/365 409/3/363 407/4/350
f 410/1/364 412/2/366 402/3/358 404/4/360
f 403/1/359 413/2/367 411/3/365 405/4/361
f 428/1/381 426/2/379 412/3/366 410/4/364
f 413/1/367 427/2/380 429/3/382 411/4/365
f 430/1/383 428/2/381 410/3/364 408/4/362
f 411/1/365 429/2/382 431/3/384 409/4/363
f 424/1/377 430/2/383 408/3/362 414/4/368
f 409/1/363 431/2/384 425/3/378 415/4/342
f 426/1/379 424/2/377 414/3/368 412/4/366
f 415/1/342 425/2/378 427/3/380 413/4/367
f 424/1/377 416/2/369 422/3/375 430/4/383
f 423/1/376 417/2/370 425/3/378 431/4/384
f 426/1/379 418/2/371 416/3/369 424/4/377
f 417/1/370 419/2/372 427/3/380 425/4/378
f 428/1/381 420/2/373 418/3/371 426/4/379
f 419/1/372 421/2/374 429/3/382 427/4/380
f 430/1/383 422/2/375 420/3/373 428/4/381
f 421/1/374 423/2/376 431/3/384 429/4/382
f 422/1/375 416/2/369 418/3/371 420/4/373
f 419/1/372 417/2/370 423/3/376 421/4/374
f 440/1/393 446/2/399 444/3/397 442/4/395
f 445/1/398 447/2/400 441/3/394 443/4/396
f 432/1/385 440/2/393 442/3/395 434/4/387
f 443/1/396 441/2/394 433/3/386 435/4/388
f 434/1/387 442/2/395 444/3/397 436/4/389
f 445/1/398 443/2/396 435/3/388 437/4/390
f 436/1/389 444/2/397 446/3/399 438/4/391
f 447/1/400 445/2/398 437/3/390 439/4/392
f 438/1/391 446/2/399 440/3/393 432/4/385
f 441/1/394 447/2/400 439/3/392 433/4/386
f 436/1/389 438/2/391 448/3/368 450/4/343
f 449/1/342 439/2/392 437/3/390 451/4/367
f 438/1/391 432/2/385 454/3/362 448/4/368
f 455/1/363 433/2/386 439/3/392 449/4/342
f 432/1/385 434/2/387 452/3/364 454/4/362
f 453/1/365 435/2/388 433/3/386 455/4/363
f 434/1/387 436/2/389 450/3/343 452/4/364
f 451/1/367 437/2/390 435/3/388 453/4/365
f 452/1/364 450/2/343 460/3/358 458/4/403
f 461/1/405 451/2/367 453/3/365 459/4/404
f 454/1/362 452/2/364 458/3/403 456/4/401
f 459/1/404 453/2/365 455/3/363 457/4/402
f 448/1/368 454/2/362 456/3/401 462/4/406
f 457/1/402 455/2/363 449/3/342 463/4/357
f 450/1/343 448/2/368 462/3/406 460/4/358
f 463/1/357 449/2/342 451/3/367 461/4/405
f 460/1/358 462/2/406 456/3/401 458/4/403
f 457/1/402 463/2/357 461/3/405 459/4/404
f 466/1/407 464/2/355 470/3/349 468/4/351
f 471/1/350 465/2/357 467/3/354 469/4/352
f 476/1/343 478/2/368 464/3/355 466/4/407
f 465/1/357 479/2/409 477/3/344 467/4/354
f 478/1/368 472/2/362 470/3/349 464/4/355
f 471/1/350 473/2/363 479/3/409 465/4/357
f 472/1/362 474/2/364 468/3/351 470/4/349
f 469/1/352 475/2/408 473/3/363 471/4/350
f 474/1/364 476/2/343 466/3/407 468/4/351
f 467/1/354 477/2/344 475/3/408 469/4/352
f 492/1/381 490/2/379 476/3/343 474/4/364
f 477/1/344 491/2/380 493/3/382 475/4/408
f 494/1/383 492/2/381 474/3/364 472/4/362
f 475/1/408 493/2/382 495/3/384 473/4/363
f 488/1/413 494/2/383 472/3/362 478/4/368
f 473/1/363 495/2/384 489/3/414 479/4/409
f 490/1/379 488/2/413 478/3/368 476/4/343
f 479/1/409 489/2/414 491/3/380 477/4/344
f 488/1/413 480/2/410 486/3/375 494/4/383
f 487/1/412 481/2/411 489/3/414 495/4/384
f 490/1/379 482/2/371 480/3/410 488/4/413
f 481/1/411 483/2/372 491/3/380 489/4/414
f 492/1/381 484/2/373 482/3/371 490/4/379
f 483/1/372 485/2/374 493/3/382 491/4/380
f 494/1/383 486/2/375 484/3/373 492/4/381
f 485/1/374 487/2/412 495/3/384 493/4/382
f 486/1/375 480/2/410 482/3/371 484/4/373
f 483/1/372 481/2/411 487/3/412 485/4/374
f 504/1/423 510/2/429 508/3/427 506/4/425
f 509/1/428 511/2/430 505/3/424 507/4/426
f 496/1/415 504/2/423 506/3/425 498/4/417
f 507/1/426 505/2/424 497/3/416 499/4/418
f 498/1/417 506/2/425 508/3/427 500/4/419
f 509/1/428 507/2/426 499/3/418 501/4/420
f 500/1/419 508/2/427 510/3/429 502/4/421
f 511/1/430 509/2/428 501/3/420 503/4/422
f 502/1/421 510/2/429 504/3/423 496/4/415
f 505/1/424 511/2/430 503/3/422 497/4/416
f 500/1/419 502/2/421 512/3/431 514/4/433
f 513/1/432 503/2/422 501/3/420 515/4/434
f 502/1/421 496/2/415 518/3/437 512/4/431
f 519/1/438 497/2/416 503/3/422 513/4/432
f 496/1/415 498/2/417 516/3/435 518/4/437
f 517/1/436 499/2/418 497/3/416 519/4/438
f 498/1/417 500/2/419 514/3/433 516/4/435
f 515/1/434 501/2/420 499/3/418 517/4/436
f 516/1/435 514/2/433 524/3/443 522/4/441
f 525/1/444 515/2/434 517/3/436 523/4/442
f 518/1/437 516/2/435 522/3/441 520/4/439
f 523/1/442 517/2/436 519/3/438 521/4/440
f 512/1/431 518/2/437 520/3/439 526/4/445
f 521/1/440 519/2/438 513/3/432 527/4/446
f 514/1/433 512/2/431 526/3/445 524/4/443
f 527/1/446 513/2/432 515/3/434 525/4/444
f 524/1/443 526/2/445 520/3/439 522/4/441
f 521/1/440 527/2/446 525/3/444 523/4/442
f 530/1/449 528/2/447 534/3/453 532/4/451
f 535/1/454 529/2/448 531/3/450 533/4/452
f 540/1/459 542/2/461 528/3/447 530/4/449
f 529/1/448 543/2/462 541/3/460 531/4/450
f 542/1/461 536/2/455 534/3/453 528/4/447
f 535/1/454 537/2/456 543/3/462 529/4/448
f 536/1/455 538/2/457 532/3/451 534/4/453
f 533/1/452 539/2/458 537/3/456 535/4/454
f 538/1/457 540/2/459 530/3/449 532/4/451
f 531/1/450 541/2/460 539/3/458 533/4/452
f 556/1/475 554/2/473 540/3/459 538/4/457
f 541/1/460 555/2/474 557/3/476 539/4/458
f 558/1/477 556/2/475 538/3/457 536/4/455
f 539/1/458 557/2/476 559/3/478 537/4/456
f 552/1/471 558/2/477 536/3/455 542/4/461
f 537/1/456 559/2/478 553/3/472 543/4/462
f 554/1/473 552/2/471 542/3/461 540/4/459
f 543/1/462 553/2/472 555/3/474 541/4/460
f 552/1/471 544/2/463 550/3/469 558/4/477
f 551/1/470 545/2/464 553/3/472 559/4/478
f 554/1/473 546/2/465 544/3/463 552/4/471
f 545/1/464 547/2/466 555/3/474 553/4/472
f 556/1/475 548/2/467 546/3/465 554/4/473
f 547/1/466 549/2/468 557/3/476 555/4/474
f 558/1/477 550/2/469 548/3/467 556/4/475
f 549/1/468 551/2/470 559/3/478 557/4/476
f 550/1/469 544/2/463 546/3/465 548/4/467
f 547/1/466 545/2/464 551/3/470 549/4/468
