# Blender 4.4.0
# www.blender.org
mtllib hip.mtl
o hip
v -0.017232 -0.015860 0.014080
v 0.017971 -0.015860 0.014080
v -0.017232 0.000198 0.059879
v 0.017971 0.000198 0.059879
v -0.001098 -0.002044 0.035091
v 0.001837 -0.002044 0.035091
v -0.001098 -0.002201 -0.013533
v 0.001837 -0.002201 -0.013533
v -0.017664 0.027332 -0.016728
v 0.018402 0.027332 -0.016728
v -0.017664 0.027233 0.007944
v 0.018402 0.027233 0.007944
v -0.001661 0.027451 0.007944
v 0.002400 0.027451 0.007944
v -0.001899 0.026838 -0.016728
v 0.002637 0.026838 -0.016728
v -0.032989 0.036537 0.007944
v 0.033727 0.036537 0.007944
v -0.032989 0.036636 -0.016728
v 0.033727 0.036636 -0.016728
v -0.034339 0.000712 0.059879
v 0.035077 0.000712 0.059879
v -0.034339 -0.015347 0.014080
v 0.035077 -0.015347 0.014080
v -0.059178 0.019345 0.014080
v 0.059916 0.019345 0.014080
v -0.059178 0.031135 0.062368
v 0.059916 0.031135 0.062368
v -0.038942 0.043821 -0.016728
v 0.039680 0.043821 -0.016728
v -0.038942 0.043722 0.007944
v 0.039680 0.043722 0.007944
v -0.048732 0.086714 0.007944
v 0.049471 0.086714 0.007944
v -0.048732 0.086813 -0.016728
v 0.049471 0.086813 -0.016728
v -0.095359 0.069410 0.034693
v 0.096098 0.069410 0.034693
v -0.095359 0.070425 0.014080
v 0.096098 0.070425 0.014080
v -0.113341 0.095551 0.014080
v 0.114080 0.095551 0.014080
v -0.113341 0.094535 0.052195
v 0.114080 0.094535 0.052195
v -0.041096 0.100854 -0.016728
v 0.041834 0.100854 -0.016728
v -0.041096 0.100755 0.007944
v 0.041834 0.100755 0.007944
v -0.031243 0.064397 -0.016728
v 0.031981 0.064397 -0.016728
v -0.031243 0.064298 0.007944
v 0.031981 0.064298 0.007944
v -0.024901 0.048648 0.007944
v 0.025639 0.048648 0.007944
v -0.024901 0.048747 -0.016728
v 0.025639 0.048747 -0.016728
v -0.051146 0.120559 0.007944
v 0.051884 0.120559 0.007944
v -0.051146 0.120659 -0.016728
v 0.051884 0.120659 -0.016728
v -0.127530 0.103403 0.069271
v 0.128268 0.103403 0.069270
v -0.127530 0.104418 0.014080
v 0.128268 0.104418 0.014080
v -0.128417 0.142846 0.014080
v 0.129155 0.142846 0.014080
v -0.128417 0.141830 0.062867
v 0.129155 0.141830 0.062867
v -0.050555 0.139903 -0.027399
v 0.051293 0.139903 -0.027399
v -0.050555 0.150119 0.007944
v 0.051293 0.150119 0.007944
v -0.050965 0.173725 0.007944
v 0.051704 0.173725 0.007944
v -0.050965 0.163509 -0.027399
v 0.051704 0.163509 -0.027399
v -0.117127 0.171184 0.053476
v 0.117865 0.171184 0.053476
v -0.117127 0.172199 0.014080
v 0.117865 0.172199 0.014080
v -0.088594 0.191700 0.014080
v 0.089332 0.191700 0.014080
v -0.088594 0.190685 0.029997
v 0.089332 0.190685 0.029997
v -0.051171 0.176441 -0.027399
v 0.051909 0.176441 -0.027399
v -0.051171 0.186657 0.007944
v 0.051909 0.186657 0.007944
v -0.032762 0.170442 0.007944
v 0.033500 0.170442 0.007944
v -0.032762 0.160226 -0.027399
v 0.033500 0.160226 -0.027399
v -0.029478 0.162353 -0.027423
v 0.030216 0.162353 -0.027423
v -0.029478 0.152304 0.007968
v 0.030216 0.152304 0.007968
v -0.029272 0.144141 0.007944
v 0.030011 0.144141 0.007944
v -0.029272 0.143804 -0.027399
v 0.030011 0.143804 -0.027399
v 0.000369 0.143804 -0.027399
v 0.000369 0.144141 0.007944
v 0.000369 0.152304 0.007968
v 0.000369 0.162353 -0.027423
v 0.000369 0.134236 0.005178
v 0.000369 0.133952 -0.024632
v -0.026952 0.133952 -0.024632
v 0.027691 0.133952 -0.024632
v -0.026952 0.134236 0.005178
v 0.027691 0.134236 0.005178
v -0.043828 0.122844 -0.010337
v 0.044566 0.122844 -0.010337
v -0.043828 0.122560 -0.023615
v 0.044566 0.122560 -0.023615
v 0.000369 0.122560 -0.023615
v 0.000369 0.122844 -0.010337
v 0.000369 0.097736 -0.016922
v 0.000369 0.097452 -0.024438
v -0.032920 0.097452 -0.024438
v 0.033659 0.097452 -0.024438
v -0.032920 0.097736 -0.016922
v 0.033659 0.097736 -0.016922
v -0.014810 0.075304 -0.019186
v 0.015548 0.075304 -0.019186
v -0.014810 0.075020 -0.026702
v 0.015548 0.075020 -0.026702
v 0.000369 0.075020 -0.026702
v 0.000369 0.075304 -0.019186
v 0.000369 0.069953 -0.020626
v 0.000369 0.069669 -0.028143
v -0.013370 0.070698 -0.028143
v 0.014108 0.070698 -0.028143
v -0.013369 0.070982 -0.020626
v 0.014108 0.070982 -0.020626
v -0.005755 0.051843 -0.027194
v 0.006493 0.051843 -0.027194
v -0.005755 0.051559 -0.031041
v 0.006493 0.051559 -0.031041
v 0.000369 0.051559 -0.031041
v 0.000369 0.051843 -0.027194
v -0.044946 0.131258 -0.000384
v 0.045684 0.131258 -0.000384
v -0.044946 0.130974 -0.024366
v 0.045684 0.130974 -0.024366
v 0.000369 0.131258 -0.000384
v 0.000369 0.130974 -0.024366
v 0.000369 0.161187 -0.014551
v 0.000369 0.158448 -0.004904
v -0.018622 0.158448 -0.004904
v 0.019360 0.158448 -0.004904
v -0.018622 0.161187 -0.014551
v 0.019360 0.161187 -0.014551
v -0.029849 0.168140 -0.020253
v 0.030588 0.168140 -0.020253
v 0.030588 0.160722 0.007383
v 0.000369 0.168140 -0.020253
v -0.029849 0.174445 0.031047
v -0.029849 0.185979 0.011847
v -0.028110 0.177723 0.050761
vn 0.1186 -0.9702 -0.2114
vn -0.1186 -0.9702 -0.2114
vn 0.4931 -0.0716 0.8670
vn -0.4931 -0.0716 0.8670
vn 0.8938 -0.1691 0.4155
vn -0.8938 -0.1691 0.4155
vn 0.4407 -0.5824 -0.6831
vn -0.4407 -0.5824 -0.6831
vn -0.0914 0.4017 -0.9112
vn 0.0914 0.4017 -0.9112
vn 0.3222 0.9047 0.2789
vn -0.3222 0.9047 0.2789
vn 0.7227 0.6645 0.1901
vn -0.7227 0.6645 0.1901
vn 0.3761 0.5722 -0.7288
vn -0.3761 0.5722 -0.7288
vn 0.6221 0.7450 0.2406
vn -0.6221 0.7450 0.2406
vn 0.2044 0.2916 -0.9344
vn -0.2044 0.2916 -0.9344
vn -0.1206 -0.2886 0.9498
vn 0.1206 -0.2886 0.9498
vn -0.4382 -0.8541 -0.2801
vn 0.4382 -0.8541 -0.2801
vn -0.7653 -0.5446 -0.3431
vn 0.7653 -0.5446 -0.3431
vn -0.1783 -0.0582 0.9822
vn 0.1783 -0.0582 0.9822
vn -0.0480 -0.3713 -0.9273
vn 0.0480 -0.3713 -0.9273
vn 0.7406 0.2591 0.6199
vn -0.7406 0.2591 0.6199
vn 0.8156 0.0837 0.5726
vn -0.8156 0.0837 0.5726
vn 0.2171 -0.1213 -0.9686
vn -0.2171 -0.1213 -0.9686
vn -0.3788 -0.5623 0.7351
vn 0.3788 -0.5623 0.7351
vn -0.7554 -0.4529 -0.4736
vn 0.7554 -0.4529 -0.4736
vn -0.6107 -0.5463 -0.5732
vn 0.6107 -0.5463 -0.5732
vn -0.0453 -0.7100 0.7028
vn 0.0453 -0.7100 0.7028
vn 0.6773 -0.1759 -0.7144
vn -0.6773 -0.1759 -0.7144
vn 0.9048 -0.0624 0.4213
vn -0.9048 -0.0624 0.4213
vn 0.6376 0.3685 -0.6765
vn -0.6376 0.3685 -0.6765
vn 0.6366 0.3675 0.6780
vn -0.6366 0.3675 0.6780
vn 0.7455 -0.3382 0.5743
vn -0.7455 -0.3382 0.5743
vn 0.7459 -0.3353 -0.5755
vn -0.7459 -0.3353 -0.5755
vn 0.8608 0.1402 0.4893
vn -0.8608 0.1402 0.4893
vn 0.5248 -0.0446 -0.8501
vn -0.5248 -0.0446 -0.8501
vn -0.3909 -0.3329 0.8581
vn 0.3909 -0.3329 0.8581
vn -0.7675 -0.4273 -0.4778
vn 0.7675 -0.4273 -0.4778
vn -0.8640 0.0829 -0.4966
vn 0.8640 0.0829 -0.4966
vn -0.4971 0.2169 0.8402
vn 0.4971 0.2169 0.8402
vn -0.0055 -0.3982 -0.9173
vn 0.0055 -0.3981 -0.9173
vn 0.5321 -0.2374 0.8127
vn -0.5321 -0.2374 0.8127
vn 0.2915 0.0410 0.9557
vn -0.2915 0.0410 0.9557
vn -0.2610 0.1351 -0.9559
vn 0.2610 0.1351 -0.9558
vn -0.3094 0.5709 0.7605
vn 0.3094 0.5709 0.7605
vn -0.7463 0.5008 -0.4385
vn 0.7463 0.5008 -0.4385
vn -0.3152 0.8765 -0.3638
vn 0.3152 0.8765 -0.3638
vn 0.0710 0.8449 0.5302
vn -0.0710 0.8449 0.5302
vn 0.0730 0.7145 -0.6959
vn -0.0730 0.7145 -0.6959
vn 0.4856 0.7899 0.3744
vn -0.4856 0.7899 0.3744
vn 0.6465 0.4936 0.5817
vn -0.6465 0.4936 0.5817
vn 0.6414 0.4523 -0.6197
vn -0.6414 0.4523 -0.6197
vn 0.2699 0.4863 -0.8311
vn -0.2699 0.4863 -0.8311
vn 0.1893 0.3495 0.9176
vn -0.1893 0.3496 0.9176
vn -0.2621 -0.4344 0.8617
vn 0.2621 -0.4344 0.8617
vn -0.2657 -0.4356 -0.8600
vn 0.2657 -0.4356 -0.8600
vn 0.2435 -0.1330 -0.9608
vn 0.2464 -0.1330 0.9600
vn 0.3282 0.5028 0.7997
vn 0.2920 0.7057 -0.6455
vn -0.0000 -0.6255 0.7802
vn -0.0000 -0.1804 -0.9836
vn -0.3955 0.0719 -0.9157
vn 0.3955 0.0719 -0.9157
vn -0.4753 -0.5031 0.7218
vn 0.4753 -0.5031 0.7218
vn -0.7427 -0.4926 0.4536
vn 0.7427 -0.4926 0.4536
vn -0.7196 -0.2266 -0.6563
vn 0.7196 -0.2266 -0.6563
vn -0.0000 -0.0281 -0.9996
vn -0.0000 -0.5335 0.8458
vn -0.0000 -0.1776 0.9841
vn -0.0000 0.0666 -0.9978
vn -0.6439 -0.3608 -0.6747
vn 0.6439 -0.3608 -0.6747
vn -0.6143 -0.4886 0.6196
vn 0.6143 -0.4886 0.6196
vn -0.5221 -0.4289 0.7371
vn 0.5221 -0.4289 0.7372
vn -0.6406 -0.2061 -0.7397
vn 0.6406 -0.2061 -0.7397
vn -0.0000 0.1945 -0.9809
vn -0.0000 -0.1945 0.9809
vn -0.0000 -0.3125 0.9499
vn -0.0000 0.2185 -0.9758
vn -0.6832 -0.0774 -0.7261
vn 0.6832 -0.0774 -0.7261
vn -0.6389 -0.4299 0.6380
vn 0.6389 -0.4298 0.6380
vn -0.4611 -0.7373 0.4938
vn 0.4611 -0.7373 0.4938
vn -0.4448 -0.6320 -0.6346
vn 0.4448 -0.6320 -0.6346
vn -0.0000 -0.6774 -0.7356
vn -0.0000 -0.7955 0.6060
vn -0.6541 0.2114 0.7263
vn 0.6541 0.2114 0.7263
vn -0.6518 0.4582 -0.6044
vn 0.6518 0.4582 -0.6044
vn -0.0000 -0.8272 0.5619
vn -0.0000 -0.0890 -0.9960
vn -0.0000 0.4681 -0.8837
vn -0.0000 0.9025 0.4307
vn -0.1145 0.9306 0.3476
vn 0.5104 0.7810 0.3599
vn -0.1632 0.9296 -0.3303
vn 0.5949 0.4726 -0.6502
vn -0.0000 -0.6341 -0.7732
vn 0.2773 -0.8323 -0.4799
vn 0.4280 -0.8720 -0.2376
vt 0.000000 0.000000
vt 1.000000 0.000000
vt 1.000000 1.000000
vt 0.000000 1.000000
s 1
usemtl skeleton
f 5/1/5 3/2/3 1/3/1 7/4/7
f 2/3/2 4/2/4 6/1/6 8/4/8
f 9/1/9 11/2/11 13/3/13 15/4/15
f 14/3/14 12/2/12 10/1/10 16/4/16
f 3/1/3 5/2/5 13/3/13 11/4/11
f 14/3/14 6/2/6 4/1/4 12/4/12
f 5/1/5 7/2/7 15/3/15 13/4/13
f 16/3/16 8/2/8 6/1/6 14/4/14
f 7/1/7 1/2/1 9/3/9 15/4/15
f 10/3/10 2/2/2 8/1/8 16/4/16
f 1/1/1 23/2/23 19/3/19 9/4/9
f 20/3/20 24/2/24 2/1/2 10/4/10
f 11/1/11 17/2/17 21/3/21 3/4/3
f 22/3/22 18/2/18 12/1/12 4/4/4
f 9/1/9 19/2/19 17/3/17 11/4/11
f 18/3/18 20/2/20 10/1/10 12/4/12
f 3/1/3 21/2/21 23/3/23 1/4/1
f 24/3/24 22/2/22 4/1/4 2/4/2
f 21/1/21 27/2/27 25/3/25 23/4/23
f 26/3/26 28/2/28 22/1/22 24/4/24
f 19/1/19 29/2/29 31/3/31 17/4/17
f 32/3/32 30/2/30 20/1/20 18/4/18
f 17/1/17 31/2/31 27/3/27 21/4/21
f 28/3/28 32/2/32 18/1/18 22/4/22
f 23/1/23 25/2/25 29/3/29 19/4/19
f 30/3/30 26/2/26 24/1/24 20/4/20
f 25/1/25 39/2/39 35/3/35 29/4/29
f 36/3/36 40/2/40 26/1/26 30/4/30
f 31/1/31 33/2/33 37/3/37 27/4/27
f 38/3/38 34/2/34 32/1/32 28/4/28
f 27/1/27 37/2/37 39/3/39 25/4/25
f 40/3/40 38/2/38 28/1/28 26/4/26
f 37/1/37 43/2/43 41/3/41 39/4/39
f 42/3/42 44/2/44 38/1/38 40/4/40
f 35/1/35 45/2/45 47/3/47 33/4/33
f 48/3/48 46/2/46 36/1/36 34/4/34
f 33/1/33 47/2/47 43/3/43 37/4/37
f 44/3/44 48/2/48 34/1/34 38/4/38
f 39/1/39 41/2/41 45/3/45 35/4/35
f 46/3/46 42/2/42 40/1/40 36/4/36
f 33/1/33 51/2/51 49/3/49 35/4/35
f 50/3/50 52/2/52 34/1/34 36/4/36
f 31/1/31 53/2/53 51/3/51 33/4/33
f 52/3/52 54/2/54 32/1/32 34/4/34
f 35/1/35 49/2/49 55/3/55 29/4/29
f 56/3/56 50/2/50 36/1/36 30/4/30
f 29/1/29 55/2/55 53/3/53 31/4/31
f 54/3/54 56/2/56 30/1/30 32/4/32
f 55/1/55 49/2/49 51/3/51 53/4/53
f 52/3/52 50/2/50 56/1/56 54/4/54
f 41/1/41 63/2/63 59/3/59 45/4/45
f 60/3/60 64/2/64 42/1/42 46/4/46
f 47/1/47 57/2/57 61/3/61 43/4/43
f 62/3/62 58/2/58 48/1/48 44/4/44
f 45/1/45 59/2/59 57/3/57 47/4/47
f 58/3/58 60/2/60 46/1/46 48/4/48
f 43/1/43 61/2/61 63/3/63 41/4/41
f 64/3/64 62/2/62 44/1/44 42/4/42
f 61/1/61 67/2/67 65/3/65 63/4/63
f 66/3/66 68/2/68 62/1/62 64/4/64
f 59/1/59 69/2/69 71/3/71 57/4/57
f 72/3/72 70/2/70 60/1/60 58/4/58
f 57/1/57 71/2/71 67/3/67 61/4/61
f 68/3/68 72/2/72 58/1/58 62/4/62
f 63/1/63 65/2/65 69/3/69 59/4/59
f 70/3/70 66/2/66 64/1/64 60/4/60
f 65/1/65 79/2/79 75/3/75 69/4/69
f 76/3/76 80/2/80 66/1/66 70/4/70
f 71/1/71 73/2/73 77/3/77 67/4/67
f 78/3/78 74/2/74 72/1/72 68/4/68
f 67/1/67 77/2/77 79/3/79 65/4/65
f 80/3/80 78/2/78 68/1/68 66/4/66
f 77/1/77 83/2/83 81/3/81 79/4/79
f 82/3/82 84/2/84 78/1/78 80/4/80
f 73/1/73 87/2/87 83/3/83 77/4/77
f 84/3/84 88/2/88 74/1/74 78/4/78
f 79/1/79 81/2/81 85/3/85 75/4/75
f 86/3/86 82/2/82 80/1/80 76/4/76
f 81/1/81 83/2/83 87/3/87 85/4/85
f 88/3/88 84/2/84 82/1/82 86/4/86
f 85/1/85 91/2/91 93/3/93 75/4/75
f 94/3/94 92/2/92 86/1/86 76/4/76
f 87/1/87 89/2/89 91/3/91 85/4/85
f 92/3/92 90/2/90 88/1/88 86/4/86
f 73/1/73 95/2/95 89/3/89 87/4/87
f 90/3/90 96/2/96 74/1/74 88/4/88
f 71/1/71 97/2/97 95/3/95 73/4/73
f 96/3/96 98/2/98 72/1/72 74/4/74
f 75/1/75 93/2/93 99/3/99 69/4/69
f 100/3/100 94/2/94 76/1/76 70/4/70
f 69/1/69 99/2/99 97/3/97 71/4/71
f 98/3/98 100/2/100 70/1/70 72/4/72
f 93/1/93 91/2/91 89/3/89 95/4/95
f 90/3/90 92/2/92 94/1/94 96/4/96
f 93/1/93 104/2/104 101/3/101 99/4/99
f 101/3/101 104/2/104 94/1/94 100/4/100
f 97/1/97 102/2/102 103/3/103 95/4/95
f 103/3/103 102/2/102 98/1/98 96/4/96
f 101/1/101 104/2/104 103/3/103 102/4/102
f 101/1/101 106/2/106 107/3/107 99/4/99
f 108/3/108 106/2/106 101/1/101 100/4/100
f 97/1/97 109/2/109 105/3/105 102/4/102
f 105/3/105 110/2/110 98/1/98 102/4/102
f 99/1/99 107/2/107 109/3/109 97/4/97
f 110/3/110 108/2/108 100/1/100 98/4/98
f 115/1/115 118/2/118 119/3/119 113/4/113
f 120/3/120 118/2/118 115/1/115 114/4/114
f 111/1/111 121/2/121 117/3/117 116/4/116
f 117/3/117 122/2/122 112/1/112 116/4/116
f 113/1/113 119/2/119 121/3/121 111/4/111
f 122/3/122 120/2/120 114/1/114 112/4/112
f 119/1/119 125/2/125 123/3/123 121/4/121
f 124/3/124 126/2/126 120/1/120 122/4/122
f 121/1/121 123/2/123 128/3/128 117/4/117
f 128/3/128 124/2/124 122/1/122 117/4/117
f 118/1/118 127/2/127 125/3/125 119/4/119
f 126/3/126 127/2/127 118/1/118 120/4/120
f 127/1/127 130/2/130 131/3/131 125/4/125
f 132/3/132 130/2/130 127/1/127 126/4/126
f 123/1/123 133/2/133 129/3/129 128/4/128
f 129/3/129 134/2/134 124/1/124 128/4/128
f 125/1/125 131/2/131 133/3/133 123/4/123
f 134/3/134 132/2/132 126/1/126 124/4/124
f 131/1/131 137/2/137 135/3/135 133/4/133
f 136/3/136 138/2/138 132/1/132 134/4/134
f 133/1/133 135/2/135 140/3/140 129/4/129
f 140/3/140 136/2/136 134/1/134 129/4/129
f 130/1/130 139/2/139 137/3/137 131/4/131
f 138/3/138 139/2/139 130/1/130 132/4/132
f 137/1/137 139/2/139 140/3/140 135/4/135
f 140/3/140 139/2/139 138/1/138 136/4/136
f 109/1/109 107/2/107 143/3/143 141/4/141
f 144/3/144 108/2/108 110/1/110 142/4/142
f 141/1/141 143/2/143 113/3/113 111/4/111
f 114/3/114 144/2/144 142/1/142 112/4/112
f 105/1/105 109/2/109 141/3/141 145/4/145
f 142/3/142 110/2/110 105/1/105 145/4/145
f 145/1/145 141/2/141 111/3/111 116/4/116
f 112/3/112 142/2/142 145/1/145 116/4/116
f 107/1/107 106/2/106 146/3/146 143/4/143
f 146/3/146 106/2/106 108/1/108 144/4/144
f 143/1/143 146/2/146 115/3/115 113/4/113
f 115/3/115 146/2/146 144/1/144 114/4/114
f 103/1/103 148/2/148 149/3/149 95/4/95
f 150/3/150 148/2/148 103/1/103 96/4/96
f 93/1/93 151/2/151 147/3/147 104/4/104
f 147/3/147 152/2/152 94/1/94 104/4/104
f 95/1/95 149/2/149 151/3/151 93/4/93
f 152/3/152 150/2/150 96/1/96 94/4/94
f 154/3/154 155/2/155 150/1/150 152/4/152
f 151/1/151 153/2/153 156/3/153 147/4/147
f 156/3/153 154/2/154 152/1/152 147/4/147
l 153 158
l 157 158
