# Blender 4.4.0
# www.blender.org
mtllib lFoot.mtl
o lFoot
v 0.097972 -0.790761 -0.022364
v 0.095674 -0.786674 -0.031721
v 0.077361 -0.786556 -0.031023
v 0.074092 -0.790642 -0.023361
v 0.073470 -0.759565 -0.019664
v 0.076819 -0.759864 -0.029520
v 0.095337 -0.759983 -0.030916
v 0.097237 -0.759684 -0.019265
v 0.094916 -0.764568 -0.034504
v 0.079645 -0.764449 -0.032710
v 0.079370 -0.779579 -0.034586
v 0.093952 -0.779698 -0.036380
v 0.102642 -0.755632 0.006055
v 0.073470 -0.755513 0.004061
v 0.074092 -0.787835 0.000244
v 0.103857 -0.787954 0.002238
v 0.105611 -0.781252 0.027432
v 0.081234 -0.781133 0.027052
v 0.081696 -0.763364 0.027764
v 0.106711 -0.763483 0.032087
v 0.110941 -0.783718 0.044812
v 0.106923 -0.783718 0.033828
v 0.080724 -0.783718 0.029523
v 0.077567 -0.783718 0.038474
v 0.110941 -0.754998 0.044812
v 0.106923 -0.754998 0.033828
v 0.080724 -0.754998 0.029523
v 0.077567 -0.754998 0.038474
v 0.073627 -0.754998 0.050789
v 0.113620 -0.754998 0.051390
v 0.073627 -0.783718 0.050789
v 0.113620 -0.783718 0.051390
v 0.116969 -0.783718 0.061076
v 0.081298 -0.783718 0.074589
v 0.116969 -0.757092 0.061076
v 0.081298 -0.760235 0.074589
v 0.071875 -0.760235 0.082235
v 0.071875 -0.783718 0.082235
v 0.069660 -0.783718 0.060294
v 0.069660 -0.757092 0.060294
v 0.074110 -0.784815 0.135389
v 0.074110 -0.793099 0.134762
v 0.089127 -0.792925 0.131173
v 0.089127 -0.784558 0.131807
v 0.087228 -0.776522 0.108360
v 0.087228 -0.783139 0.106673
v 0.075131 -0.783602 0.109511
v 0.075131 -0.777050 0.111181
v 0.072795 -0.774319 0.098949
v 0.072795 -0.782290 0.096917
v 0.087516 -0.781727 0.093463
v 0.087516 -0.773676 0.095516
v 0.079909 -0.771367 0.081363
v 0.079909 -0.779418 0.079310
v 0.072064 -0.779923 0.082405
v 0.072064 -0.771952 0.084437
v 0.074960 -0.772327 0.071823
v 0.074960 -0.775602 0.070988
v 0.078183 -0.775395 0.069716
v 0.078183 -0.772087 0.070560
v 0.090039 -0.771055 0.061947
v 0.090039 -0.773650 0.061286
v 0.087511 -0.773812 0.062283
v 0.087511 -0.771244 0.062938
v 0.086827 -0.771952 0.084437
v 0.086827 -0.779923 0.082405
v 0.094673 -0.779418 0.079310
v 0.094673 -0.771367 0.081363
v 0.095624 -0.776878 0.097775
v 0.095624 -0.779516 0.097102
v 0.090801 -0.779700 0.098234
v 0.090801 -0.777088 0.098900
v 0.095501 -0.784863 0.119801
v 0.095501 -0.791537 0.119295
v 0.100041 -0.791552 0.119597
v 0.100041 -0.784811 0.120108
v 0.105000 -0.786292 0.132403
v 0.105000 -0.791279 0.132025
v 0.096051 -0.791382 0.134164
v 0.096051 -0.786445 0.134538
v 0.106063 -0.786346 0.129221
v 0.106063 -0.790968 0.128871
v 0.114441 -0.790871 0.126869
v 0.114441 -0.786203 0.127222
v 0.109799 -0.784817 0.115713
v 0.109799 -0.791127 0.115235
v 0.105548 -0.791113 0.114952
v 0.105548 -0.784866 0.115425
v 0.101149 -0.777587 0.095859
v 0.101149 -0.780032 0.095235
v 0.105663 -0.779859 0.094176
v 0.105663 -0.777390 0.094806
v 0.104773 -0.772231 0.079442
v 0.104773 -0.779768 0.077520
v 0.097429 -0.780241 0.080418
v 0.097429 -0.772778 0.082320
v 0.098069 -0.772116 0.062194
v 0.098069 -0.774520 0.061581
v 0.100435 -0.774368 0.060647
v 0.100435 -0.771939 0.061266
v 0.105624 -0.773878 0.060243
v 0.105624 -0.775944 0.059716
v 0.103611 -0.776073 0.060510
v 0.103611 -0.774028 0.061031
v 0.106195 -0.774592 0.080417
v 0.106195 -0.780938 0.078800
v 0.112441 -0.780536 0.076336
v 0.112441 -0.774126 0.077970
v 0.115317 -0.778513 0.091035
v 0.115317 -0.780613 0.090499
v 0.111478 -0.780760 0.091400
v 0.111478 -0.778681 0.091930
v 0.115219 -0.784870 0.108569
v 0.115219 -0.790183 0.108166
v 0.118834 -0.790195 0.108407
v 0.118834 -0.784829 0.108813
v 0.124870 -0.786130 0.116213
v 0.124870 -0.790060 0.115916
v 0.134013 -0.789977 0.113582
v 0.134013 -0.786008 0.113883
v 0.127542 -0.784829 0.102455
v 0.127542 -0.790195 0.102049
v 0.121707 -0.790183 0.103196
v 0.121707 -0.784870 0.103598
v 0.117966 -0.778681 0.086960
v 0.117966 -0.780760 0.086430
v 0.122209 -0.780613 0.085655
v 0.122209 -0.778513 0.086190
v 0.123369 -0.774126 0.068584
v 0.123369 -0.780536 0.066950
v 0.111472 -0.780938 0.072189
v 0.111472 -0.774592 0.073807
v 0.107874 -0.772763 0.055745
v 0.107874 -0.777524 0.054532
v 0.112559 -0.777222 0.052683
v 0.112559 -0.772414 0.053909
v 0.134410 -0.786008 0.116530
v 0.134410 -0.789977 0.116229
v 0.125267 -0.790060 0.118563
v 0.125267 -0.786130 0.118860
v 0.126508 -0.787866 0.131668
v 0.126508 -0.789648 0.131534
v 0.135591 -0.789610 0.129248
v 0.135591 -0.787811 0.129384
v 0.138183 -0.789691 0.143305
v 0.138183 -0.792144 0.143119
v 0.140001 -0.792877 0.152219
v 0.140001 -0.790585 0.152392
v 0.137205 -0.790650 0.153743
v 0.137205 -0.792942 0.153569
v 0.127018 -0.792195 0.141270
v 0.127018 -0.789767 0.141454
v 0.121944 -0.789767 0.151218
v 0.121944 -0.792195 0.151034
v 0.125873 -0.792942 0.163460
v 0.125873 -0.790650 0.163633
v 0.128669 -0.790585 0.162283
v 0.128669 -0.792877 0.162109
v 0.126346 -0.792144 0.149982
v 0.126346 -0.789691 0.150168
v 0.123249 -0.787811 0.135869
v 0.123249 -0.789610 0.135732
v 0.120020 -0.789648 0.136504
v 0.120020 -0.787866 0.136639
v 0.114838 -0.786203 0.129869
v 0.114838 -0.790871 0.129516
v 0.106460 -0.790968 0.131518
v 0.106460 -0.786346 0.131868
v 0.111124 -0.788389 0.147968
v 0.111124 -0.790484 0.147810
v 0.114921 -0.790440 0.146902
v 0.114921 -0.788324 0.147062
v 0.118563 -0.790535 0.163878
v 0.118563 -0.793420 0.163659
v 0.121295 -0.794281 0.177920
v 0.121295 -0.791586 0.178124
v 0.118007 -0.791663 0.179713
v 0.118007 -0.794358 0.179508
v 0.113385 -0.793480 0.164896
v 0.113385 -0.790623 0.165113
v 0.103846 -0.791014 0.172698
v 0.103846 -0.794065 0.172467
v 0.108783 -0.795003 0.188076
v 0.108783 -0.792125 0.188294
v 0.112295 -0.792042 0.186597
v 0.112295 -0.794921 0.186379
v 0.109376 -0.794001 0.171145
v 0.109376 -0.790919 0.171379
v 0.105486 -0.788558 0.153416
v 0.105486 -0.790818 0.153245
v 0.101430 -0.790865 0.154214
v 0.101430 -0.788627 0.154384
v 0.096448 -0.786445 0.137185
v 0.096448 -0.791382 0.136811
v 0.105397 -0.791279 0.134672
v 0.105397 -0.786292 0.135050
v 0.105255 -0.785699 0.131095
v 0.105255 -0.791651 0.130644
v 0.116043 -0.791526 0.128066
v 0.116043 -0.785514 0.128521
v 0.116231 -0.785490 0.128904
v 0.116231 -0.791549 0.128445
v 0.105357 -0.791675 0.131044
v 0.105357 -0.785676 0.131499
v 0.115070 -0.786136 0.122484
v 0.115070 -0.791190 0.122101
v 0.124230 -0.791084 0.119912
v 0.124230 -0.785979 0.120299
v 0.124072 -0.786000 0.119976
v 0.124072 -0.791064 0.119592
v 0.114984 -0.791169 0.121764
v 0.114984 -0.786156 0.122144
v 0.115999 -0.786701 0.122795
v 0.115999 -0.790594 0.122500
v 0.123056 -0.790512 0.120814
v 0.123056 -0.786580 0.121112
v 0.122722 -0.786580 0.118882
v 0.122722 -0.790512 0.118584
v 0.115665 -0.790594 0.120271
v 0.115665 -0.786701 0.120566
v 0.135995 -0.785296 0.115454
v 0.135995 -0.790653 0.115048
v 0.123657 -0.790764 0.118197
v 0.123657 -0.785460 0.118599
v 0.122825 -0.785206 0.118494
v 0.122825 -0.791032 0.118053
v 0.136377 -0.790910 0.114594
v 0.136377 -0.785026 0.115040
v 0.094403 -0.785579 0.136190
v 0.094403 -0.792295 0.135682
v 0.106577 -0.792154 0.132772
v 0.106577 -0.785371 0.133286
v 0.106907 -0.785062 0.132854
v 0.106907 -0.792319 0.132304
v 0.093883 -0.792470 0.135416
v 0.093883 -0.785285 0.135961
v 0.089432 -0.784558 0.136011
v 0.089432 -0.792925 0.135377
v 0.074416 -0.793099 0.138966
v 0.074416 -0.784815 0.139593
v 0.077737 -0.785935 0.151546
v 0.077737 -0.793137 0.151000
v 0.090791 -0.792986 0.147880
v 0.090791 -0.785712 0.148431
v 0.094215 -0.789237 0.172357
v 0.094215 -0.795598 0.171875
v 0.095452 -0.796361 0.187605
v 0.095452 -0.790580 0.188043
v 0.088399 -0.790745 0.191450
v 0.088399 -0.796526 0.191012
v 0.082798 -0.795731 0.174604
v 0.082798 -0.789432 0.175081
v 0.091827 -0.783310 0.133509
v 0.091827 -0.794316 0.132675
v 0.072075 -0.794545 0.137395
v 0.072075 -0.783648 0.138221
v 0.071932 -0.783600 0.137187
v 0.071932 -0.794380 0.136370
v 0.091473 -0.794154 0.131700
v 0.091473 -0.783265 0.132525
vn 0.6300 -0.7457 -0.2167
vn 0.6197 -0.5310 -0.5779
vn -0.5496 -0.5281 -0.6473
vn -0.6683 -0.7182 -0.1940
vn -0.7485 0.6375 -0.1827
vn -0.5511 0.7003 -0.4538
vn 0.5614 0.7052 -0.4330
vn 0.6805 0.6998 -0.2172
vn 0.5947 0.2446 -0.7658
vn -0.4547 0.2745 -0.8473
vn -0.4853 -0.1164 -0.8666
vn 0.5510 -0.1489 -0.8211
vn 0.6383 0.7693 -0.0260
vn -0.6883 0.7149 0.1234
vn -0.7094 -0.6760 0.1995
vn 0.7205 -0.6934 0.0089
vn 0.6769 -0.5426 0.4974
vn -0.5366 -0.5676 0.6244
vn -0.5519 0.4761 0.6846
vn 0.6695 0.4476 0.5928
vn 0.6433 -0.7241 -0.2485
vn 0.5081 -0.6627 -0.5501
vn -0.4349 -0.6546 -0.6184
vn -0.6646 -0.7130 -0.2234
vn 0.6433 0.7241 -0.2485
vn 0.5081 0.6627 -0.5501
vn -0.4349 0.6546 -0.6184
vn -0.6646 0.7130 -0.2234
vn -0.6277 0.7662 -0.1375
vn 0.6505 0.7461 -0.1424
vn -0.6418 -0.7297 -0.2359
vn 0.6572 -0.7120 -0.2471
vn 0.7608 -0.5843 0.2823
vn 0.3045 -0.7952 0.5243
vn 0.7802 0.5330 0.3273
vn 0.3081 0.7075 0.6360
vn -0.4115 0.5595 0.7194
vn -0.3920 -0.6247 0.6753
vn -0.7541 -0.6478 -0.1083
vn -0.7519 0.6587 -0.0286
vn -0.6857 0.6430 -0.3410
vn -0.5917 -0.5847 -0.5550
vn 0.3363 -0.6551 -0.6766
vn 0.5170 0.7430 -0.4251
vn 0.6953 0.6977 0.1727
vn 0.7292 -0.6622 -0.1724
vn -0.7245 -0.6788 -0.1196
vn -0.6538 0.7123 0.2552
vn -0.7168 0.6638 0.2133
vn -0.7058 -0.7083 -0.0124
vn 0.7459 -0.6144 -0.2572
vn 0.7310 0.6810 -0.0429
vn 0.5404 0.8279 -0.1505
vn 0.5667 -0.7131 -0.4128
vn -0.7299 -0.6487 -0.2156
vn -0.7233 0.6905 0.0053
vn -0.6207 0.6527 -0.4344
vn -0.6508 -0.4122 -0.6376
vn 0.4801 -0.3721 -0.7944
vn 0.4469 0.6860 -0.5742
vn 0.4052 0.7221 -0.5606
vn 0.4377 -0.4160 -0.7971
vn -0.7079 -0.4519 -0.5428
vn -0.6799 0.6485 -0.3423
vn -0.7061 0.6761 0.2104
vn -0.6944 -0.7194 -0.0188
vn 0.6888 -0.6918 -0.2167
vn 0.6765 0.7362 0.0179
vn 0.7083 0.6876 0.1597
vn 0.7608 -0.6029 -0.2402
vn -0.7521 -0.6584 0.0299
vn -0.6644 0.6355 0.3933
vn -0.7093 0.6551 0.2601
vn -0.6354 -0.7603 -0.1352
vn 0.5708 -0.7587 -0.3138
vn 0.6922 0.7202 -0.0469
vn 0.3910 0.6483 -0.6533
vn 0.4023 -0.5849 -0.7043
vn -0.6121 -0.6103 -0.5029
vn -0.6145 0.6455 -0.4536
vn -0.7190 0.6675 -0.1935
vn -0.7071 -0.6686 -0.2304
vn 0.5074 -0.6849 -0.5230
vn 0.4930 0.7226 -0.4845
vn -0.7520 -0.6584 0.0299
vn 0.6888 -0.6917 -0.2167
vn 0.4052 0.7222 -0.5606
vn 0.3357 0.7401 -0.5827
vn 0.3657 -0.4437 -0.8182
vn -0.7492 -0.4700 -0.4666
vn -0.7310 0.6207 -0.2834
vn -0.6852 0.6612 0.3055
vn -0.6658 -0.7414 0.0837
vn 0.6762 -0.6774 -0.2897
vn 0.6490 0.7583 -0.0609
vn 0.7180 0.6899 0.0921
vn 0.7662 -0.5674 -0.3018
vn -0.7115 -0.6988 0.0739
vn -0.6184 0.6473 0.4457
vn -0.7011 0.6575 0.2759
vn -0.6435 -0.7506 -0.1503
vn 0.5769 -0.7455 -0.3338
vn 0.6946 0.7191 -0.0186
vn -0.6483 0.7373 -0.1900
vn -0.6393 -0.7361 -0.2222
vn 0.4530 -0.6736 -0.5840
vn 0.4386 0.7144 -0.5452
vn 0.6745 0.7267 -0.1302
vn 0.5197 -0.7591 -0.3920
vn -0.6657 -0.7450 -0.0439
vn -0.7087 0.6293 0.3189
vn -0.5930 0.6750 0.4391
vn -0.7124 -0.6963 0.0870
vn 0.7180 -0.6478 -0.2544
vn 0.6699 0.7238 0.1655
vn 0.7338 0.6743 -0.0825
vn 0.7325 -0.6223 -0.2761
vn -0.6577 -0.7410 0.1357
vn -0.6707 0.6555 0.3472
vn -0.7267 0.6432 -0.2413
vn -0.7587 -0.4944 -0.4242
vn 0.2249 -0.4956 -0.8389
vn 0.2241 0.7903 -0.5703
vn 0.5654 0.5881 0.5783
vn 0.5630 -0.6403 0.5226
vn -0.2628 -0.7150 0.6478
vn -0.2642 0.6483 0.7140
vn -0.6870 0.7092 0.1584
vn -0.7395 -0.6731 -0.0123
vn 0.7190 -0.6765 -0.1595
vn 0.6965 0.7174 0.0126
vn 0.4537 0.8910 0.0184
vn 0.4037 -0.8952 -0.1888
vn 0.2735 -0.8297 0.4867
vn 0.2541 0.7449 0.6170
vn -0.1909 0.6177 0.7629
vn -0.1699 -0.7360 0.6553
vn -0.6978 -0.6976 0.1628
vn -0.7324 0.5905 0.3389
vn -0.7128 0.6646 0.2242
vn -0.7032 -0.7072 0.0737
vn -0.3619 -0.6916 0.6250
vn -0.3728 0.5913 0.7151
vn 0.2680 0.7517 0.6026
vn 0.2599 -0.8290 0.4952
vn 0.3897 -0.9013 -0.1890
vn 0.4657 0.8849 -0.0116
vn 0.6713 0.7412 0.0060
vn 0.7081 -0.6965 -0.1156
vn -0.7000 -0.7056 0.1103
vn -0.6553 0.7236 0.2168
vn 0.5994 0.6313 0.4921
vn 0.6027 -0.6617 0.4460
vn -0.4162 -0.6888 0.5936
vn -0.4275 0.6369 0.6416
vn -0.6582 0.7160 0.2327
vn -0.6980 -0.7097 0.0949
vn 0.6993 -0.7036 -0.1261
vn 0.6792 0.7336 0.0238
vn 0.2599 -0.8291 0.4951
vn 0.2681 0.7517 0.6026
vn -0.3727 0.5913 0.7152
vn -0.3619 -0.6916 0.6251
vn 0.2599 -0.8290 0.4951
vn 0.3898 -0.9013 -0.1890
vn 0.6791 0.7336 0.0238
vn 0.6994 -0.7036 -0.1261
vn -0.6980 -0.7098 0.0949
vn -0.3779 0.6443 0.6649
vn -0.3659 -0.7182 0.5918
vn 0.6411 -0.6551 0.3998
vn 0.6459 0.6066 0.4636
vn -0.7621 0.6464 -0.0384
vn -0.7507 -0.6537 -0.0955
vn 0.7144 -0.6333 -0.2976
vn 0.7142 0.6580 -0.2387
vn 0.7658 0.6270 0.1430
vn 0.7773 -0.6226 0.0905
vn -0.6400 -0.6805 0.3569
vn -0.6415 0.6481 0.4104
vn -0.6415 0.6481 0.4103
vn -0.6400 -0.6805 0.3568
vn 0.7657 0.6270 0.1430
vn 0.7142 0.6580 -0.2386
vn 0.7143 -0.6334 -0.2976
vn -0.7507 -0.6537 -0.0954
vn -0.4392 0.6374 0.6331
vn -0.4054 -0.6880 0.6019
vn 0.5963 -0.6627 0.4531
vn 0.6062 0.6348 0.4791
vn 0.5072 0.7223 -0.4702
vn 0.4973 -0.6892 -0.5271
vn -0.7002 -0.6705 -0.2453
vn -0.7265 0.6632 -0.1800
vn 0.7757 0.6200 0.1181
vn 0.7851 -0.6160 0.0648
vn -0.6855 -0.6534 0.3212
vn -0.6834 0.6264 0.3750
vn -0.7842 0.6177 0.0588
vn -0.7783 -0.6278 -0.0005
vn 0.7356 -0.6278 -0.2546
vn 0.7363 0.6481 -0.1945
vn -0.7258 0.6316 0.2727
vn -0.7250 -0.6551 0.2127
vn 0.7597 -0.6503 0.0067
vn 0.7490 0.6593 0.0660
vn 0.6823 0.6834 -0.2596
vn 0.6894 -0.6469 -0.3259
vn -0.7718 -0.6317 -0.0728
vn -0.7749 0.6320 -0.0124
vn 0.6348 0.6946 0.3385
vn 0.6440 -0.7043 0.2988
vn -0.4993 -0.7162 0.4875
vn -0.5106 0.6791 0.5274
vn -0.6594 0.7096 0.2482
vn -0.6866 -0.7153 0.1300
vn 0.7109 -0.6917 -0.1276
vn 0.6957 0.7183 -0.0014
vn 0.4873 0.8727 0.0315
vn 0.4283 -0.8939 -0.1321
vn 0.2486 -0.8449 0.4736
vn 0.2567 0.7709 0.5829
vn -0.3608 0.5893 0.7229
vn -0.3509 -0.6902 0.6329
vn -0.6858 -0.7158 0.1317
vn -0.6928 0.6688 0.2698
vn 0.7641 0.6392 0.0865
vn 0.7645 -0.6441 0.0243
vn -0.6966 -0.6724 0.2503
vn -0.7055 0.6338 0.3172
vn -0.7631 0.6391 -0.0958
vn -0.7509 -0.6435 -0.1484
vn 0.6876 -0.6341 -0.3537
vn 0.6877 0.6620 -0.2979
vt 1.000000 1.000000
vt 1.000000 0.000000
vt 0.000000 0.000000
vt 0.000000 1.000000
s 1
usemtl skeleton
f 2/1/2 7/2/7 8/3/8 1/4/1
f 4/1/4 5/2/5 6/3/6 3/4/3
f 10/1/10 6/2/6 7/3/7 9/4/9
f 11/1/11 3/2/3 6/3/6 10/4/10
f 12/1/12 2/2/2 3/3/3 11/4/11
f 9/1/9 7/2/7 2/3/2 12/4/12
f 11/1/11 10/2/10 9/3/9 12/4/12
f 7/1/7 6/2/6 5/3/5 8/4/8
f 3/1/3 2/2/2 1/3/1 4/4/4
f 13/1/13 8/2/8 5/3/5 14/4/14
f 14/1/14 5/2/5 4/3/4 15/4/15
f 16/1/16 1/2/1 8/3/8 13/4/13
f 15/1/15 4/2/4 1/3/1 16/4/16
f 18/1/18 15/2/15 16/3/16 17/4/17
f 17/1/17 16/2/16 13/3/13 20/4/20
f 19/1/19 14/2/14 15/3/15 18/4/18
f 20/1/20 13/2/13 14/3/14 19/4/19
f 17/1/17 20/2/20 19/3/19 18/4/18
f 21/1/21 24/2/24 23/3/23 22/4/22
f 27/1/27 28/2/28 25/3/25 26/4/26
f 26/1/26 25/2/25 21/3/21 22/4/22
f 27/1/27 26/2/26 22/3/22 23/4/23
f 28/1/28 27/2/27 23/3/23 24/4/24
f 29/1/29 28/2/28 24/3/24 31/4/31
f 32/1/32 21/2/21 25/3/25 30/4/30
f 30/1/30 25/2/25 28/3/28 29/4/29
f 31/1/31 24/2/24 21/3/21 32/4/32
f 34/1/34 31/2/31 32/3/32 33/4/33
f 35/1/35 30/2/30 29/3/29 36/4/36
f 33/1/33 32/2/32 30/3/30 35/4/35
f 35/1/35 36/2/36 34/3/34 33/4/33
f 38/1/38 34/2/34 36/3/36 37/4/37
f 37/1/37 36/2/36 29/3/29 40/4/40
f 39/1/39 31/2/31 34/3/34 38/4/38
f 40/1/40 29/2/29 31/3/31 39/4/39
f 37/1/37 40/2/40 39/3/39 38/4/38
f 45/1/45 44/2/44 43/3/43 46/4/46
f 48/1/48 41/2/41 44/3/44 45/4/45
f 46/1/46 43/2/43 42/3/42 47/4/47
f 47/1/47 42/2/42 41/3/41 48/4/48
f 50/1/50 47/2/47 48/3/48 49/4/49
f 51/1/51 46/2/46 47/3/47 50/4/50
f 49/1/49 48/2/48 45/3/45 52/4/52
f 52/1/52 45/2/45 46/3/46 51/4/51
f 53/1/53 52/2/52 51/3/51 54/4/54
f 56/1/56 49/2/49 52/3/52 53/4/53
f 54/1/54 51/2/51 50/3/50 55/4/55
f 55/1/55 50/2/50 49/3/49 56/4/56
f 58/1/58 55/2/55 56/3/56 57/4/57
f 59/1/59 54/2/54 55/3/55 58/4/58
f 57/1/57 56/2/56 53/3/53 60/4/60
f 60/1/60 53/2/53 54/3/54 59/4/59
f 57/1/57 60/2/60 59/3/59 58/4/58
f 64/1/64 61/2/61 62/3/62 63/4/63
f 61/1/61 68/2/68 67/3/67 62/4/62
f 64/1/64 65/2/65 68/3/68 61/4/61
f 62/1/62 67/2/67 66/3/66 63/4/63
f 63/1/63 66/2/66 65/3/65 64/4/64
f 66/1/66 71/2/71 72/3/72 65/4/65
f 67/1/67 70/2/70 71/3/71 66/4/66
f 65/1/65 72/2/72 69/3/69 68/4/68
f 68/1/68 69/2/69 70/3/70 67/4/67
f 69/1/69 76/2/76 75/3/75 70/4/70
f 72/1/72 73/2/73 76/3/76 69/4/69
f 70/1/70 75/2/75 74/3/74 71/4/71
f 71/1/71 74/2/74 73/3/73 72/4/72
f 74/1/74 79/2/79 80/3/80 73/4/73
f 75/1/75 78/2/78 79/3/79 74/4/74
f 73/1/73 80/2/80 77/3/77 76/4/76
f 76/1/76 77/2/77 78/3/78 75/4/75
f 85/1/76 84/2/84 83/3/83 86/4/75
f 88/1/73 81/2/81 84/3/84 85/4/76
f 86/1/75 83/2/83 82/3/82 87/4/74
f 87/1/74 82/2/82 81/3/81 88/4/73
f 90/1/85 87/2/74 88/3/73 89/4/72
f 91/1/70 86/2/75 87/3/74 90/4/85
f 89/1/72 88/2/73 85/3/76 92/4/69
f 92/1/69 85/2/76 86/3/75 91/4/70
f 93/1/68 92/2/69 91/3/70 94/4/86
f 96/1/65 89/2/72 92/3/69 93/4/68
f 94/1/86 91/2/70 90/3/85 95/4/66
f 95/1/66 90/2/85 89/3/72 96/4/65
f 98/1/63 95/2/66 96/3/65 97/4/64
f 99/1/62 94/2/86 95/3/66 98/4/63
f 97/1/64 96/2/65 93/3/68 100/4/87
f 100/1/87 93/2/68 94/3/86 99/4/62
f 97/1/64 100/2/87 99/3/62 98/4/63
f 104/1/91 101/2/88 102/3/89 103/4/90
f 101/1/88 108/2/95 107/3/94 102/4/89
f 104/1/91 105/2/92 108/3/95 101/4/88
f 102/1/89 107/2/94 106/3/93 103/4/90
f 103/1/90 106/2/93 105/3/92 104/4/91
f 106/1/93 111/2/98 112/3/99 105/4/92
f 107/1/94 110/2/97 111/3/98 106/4/93
f 105/1/92 112/2/99 109/3/96 108/4/95
f 108/1/95 109/2/96 110/3/97 107/4/94
f 109/1/96 116/2/103 115/3/102 110/4/97
f 112/1/99 113/2/100 116/3/103 109/4/96
f 110/1/97 115/2/102 114/3/101 111/4/98
f 111/1/98 114/2/101 113/3/100 112/4/99
f 114/1/101 219/2/193 220/3/194 113/4/100
f 115/1/102 218/2/192 219/3/193 114/4/101
f 113/1/100 220/2/194 217/3/191 116/4/103
f 116/1/103 217/2/191 218/3/192 115/4/102
f 121/1/108 120/2/107 119/3/106 122/4/109
f 124/1/111 117/2/104 120/3/107 121/4/108
f 122/1/109 119/2/106 118/3/105 123/4/110
f 123/1/110 118/2/105 117/3/104 124/4/111
f 126/1/113 123/2/110 124/3/111 125/4/112
f 127/1/114 122/2/109 123/3/110 126/4/113
f 125/1/112 124/2/111 121/3/108 128/4/115
f 128/1/115 121/2/108 122/3/109 127/4/114
f 129/1/116 128/2/115 127/3/114 130/4/117
f 132/1/119 125/2/112 128/3/115 129/4/116
f 130/1/117 127/2/114 126/3/113 131/4/118
f 131/1/118 126/2/113 125/3/112 132/4/119
f 134/1/121 131/2/118 132/3/119 133/4/120
f 135/1/122 130/2/117 131/3/118 134/4/121
f 133/1/120 132/2/119 129/3/116 136/4/123
f 136/1/123 129/2/116 130/3/117 135/4/122
f 133/1/120 136/2/123 135/3/122 134/4/121
f 137/1/124 144/2/131 143/3/130 138/4/125
f 140/1/127 141/2/128 144/3/131 137/4/124
f 138/1/125 143/2/130 142/3/129 139/4/126
f 139/1/126 142/2/129 141/3/128 140/4/127
f 142/1/129 151/2/138 152/3/139 141/4/128
f 143/1/130 146/2/133 151/3/138 142/4/129
f 141/1/128 152/2/139 145/3/132 144/4/131
f 144/1/131 145/2/132 146/3/133 143/4/130
f 150/1/137 147/2/134 148/3/135 149/4/136
f 149/1/136 148/2/135 145/3/132 152/4/139
f 151/1/138 146/2/133 147/3/134 150/4/137
f 149/1/136 152/2/139 151/3/138 150/4/137
f 156/1/143 153/2/140 154/3/141 155/4/142
f 154/1/141 159/2/146 158/3/145 155/4/142
f 156/1/143 157/2/144 160/3/147 153/4/140
f 155/1/142 158/2/145 157/3/144 156/4/143
f 161/1/148 160/2/147 159/3/146 162/4/149
f 164/1/151 153/2/140 160/3/147 161/4/148
f 162/1/149 159/2/146 154/3/141 163/4/150
f 163/1/150 154/2/141 153/3/140 164/4/151
f 214/1/188 163/2/150 164/3/151 213/4/187
f 215/1/189 162/2/149 163/3/150 214/4/188
f 213/1/187 164/2/151 161/3/148 216/4/190
f 216/1/190 161/2/148 162/3/149 215/4/189
f 165/1/152 172/2/159 171/3/158 166/4/153
f 168/1/155 169/2/156 172/3/159 165/4/152
f 166/1/153 171/2/158 170/3/157 167/4/154
f 167/1/154 170/2/157 169/3/156 168/4/155
f 170/1/157 179/2/141 180/3/140 169/4/156
f 171/1/158 174/2/146 179/3/141 170/4/157
f 169/1/156 180/2/140 173/3/147 172/4/159
f 172/1/159 173/2/147 174/3/146 171/4/158
f 178/1/163 175/2/160 176/3/161 177/4/162
f 177/1/162 176/2/161 173/3/147 180/4/140
f 179/1/141 174/2/146 175/3/160 178/4/163
f 177/1/162 180/2/140 179/3/141 178/4/163
f 184/1/162 181/2/140 182/3/141 183/4/142
f 182/1/141 187/2/165 186/3/164 183/4/142
f 184/1/162 185/2/161 188/3/147 181/4/140
f 183/1/142 186/2/164 185/3/161 184/4/162
f 189/1/166 188/2/147 187/3/165 190/4/167
f 192/1/156 181/2/140 188/3/147 189/4/166
f 190/1/167 187/2/165 182/3/141 191/4/168
f 191/1/168 182/2/141 181/3/140 192/4/156
f 194/1/170 191/2/168 192/3/156 193/4/169
f 195/1/171 190/2/167 191/3/168 194/4/170
f 193/1/169 192/2/156 189/3/166 196/4/172
f 196/1/172 189/2/166 190/3/167 195/4/171
f 198/1/174 167/2/154 168/3/155 197/4/173
f 199/1/175 166/2/153 167/3/154 198/4/174
f 197/1/173 168/2/155 165/3/152 200/4/176
f 200/1/176 165/2/152 166/3/153 199/4/175
f 198/1/174 197/2/173 200/3/176 199/4/175
f 202/1/178 83/2/83 84/3/84 201/4/177
f 201/1/177 84/2/84 81/3/81 204/4/180
f 203/1/179 82/2/82 83/3/83 202/4/178
f 204/1/180 81/2/81 82/3/82 203/4/179
f 202/1/178 201/2/177 204/3/180 203/4/179
f 207/1/178 208/2/183 205/3/181 206/4/182
f 205/1/181 220/2/194 219/3/193 206/4/182
f 206/1/182 219/2/193 218/3/192 207/4/178
f 208/1/183 217/2/191 220/3/194 205/4/181
f 207/1/178 218/2/192 217/3/191 208/4/183
f 211/1/186 212/2/173 209/3/184 210/4/185
f 209/1/184 216/2/190 215/3/189 210/4/185
f 212/1/173 213/2/187 216/3/190 209/4/184
f 210/1/185 215/2/189 214/3/188 211/4/186
f 211/1/186 214/2/188 213/3/187 212/4/173
f 222/1/196 119/2/106 120/3/107 221/4/195
f 221/1/195 120/2/107 117/3/104 224/4/198
f 223/1/197 118/2/105 119/3/106 222/4/196
f 224/1/198 117/2/104 118/3/105 223/4/197
f 222/1/196 221/2/195 224/3/198 223/4/197
f 226/1/200 139/2/126 140/3/127 225/4/199
f 227/1/201 138/2/125 139/3/126 226/4/200
f 225/1/199 140/2/127 137/3/124 228/4/202
f 228/1/202 137/2/124 138/3/125 227/4/201
f 226/1/200 225/2/199 228/3/202 227/4/201
f 229/1/203 80/2/80 79/3/79 230/4/204
f 230/1/204 79/2/79 78/3/78 231/4/205
f 232/1/206 77/2/77 80/3/80 229/4/203
f 231/1/205 78/2/78 77/3/77 232/4/206
f 230/1/204 231/2/205 232/3/206 229/4/203
f 233/1/207 196/2/172 195/3/171 234/4/208
f 236/1/210 193/2/169 196/3/172 233/4/207
f 234/1/208 195/2/171 194/3/170 235/4/209
f 235/1/209 194/2/170 193/3/169 236/4/210
f 234/1/208 235/2/209 236/3/210 233/4/207
f 237/1/211 244/2/218 243/3/217 238/4/212
f 240/1/214 241/2/215 244/3/218 237/4/211
f 238/1/212 243/2/217 242/3/216 239/4/213
f 239/1/213 242/2/216 241/3/215 240/4/214
f 242/1/216 251/2/225 252/3/226 241/4/215
f 243/1/217 246/2/220 251/3/225 242/4/216
f 241/1/215 252/2/226 245/3/219 244/4/218
f 244/1/218 245/2/219 246/3/220 243/4/217
f 250/1/224 247/2/221 248/3/222 249/4/223
f 249/1/223 248/2/222 245/3/219 252/4/226
f 251/1/225 246/2/220 247/3/221 250/4/224
f 249/1/223 252/2/226 251/3/225 250/4/224
f 254/1/228 43/2/43 44/3/44 253/4/227
f 253/1/227 44/2/44 41/3/41 256/4/230
f 255/1/229 42/2/42 43/3/43 254/4/228
f 256/1/230 41/2/41 42/3/42 255/4/229
f 254/1/228 253/2/227 256/3/230 255/4/229
f 258/1/232 239/2/213 240/3/214 257/4/231
f 259/1/233 238/2/212 239/3/213 258/4/232
f 257/1/231 240/2/214 237/3/211 260/4/234
f 260/1/234 237/2/211 238/3/212 259/4/233
f 258/1/232 257/2/231 260/3/234 259/4/233
