# Blender 4.4.0
# www.blender.org
mtllib lForeArm.mtl
o lForeArm
v 0.377494 0.528120 -0.062699
v 0.375471 0.528273 -0.048159
v 0.421457 0.532779 -0.041807
v 0.423480 0.532625 -0.056347
v 0.374369 0.506446 -0.062905
v 0.372346 0.506599 -0.048365
v 0.422888 0.521308 -0.041487
v 0.424912 0.521154 -0.056027
v 0.344415 0.514216 -0.039502
v 0.349402 0.514024 -0.067468
v 0.342733 0.526701 -0.039867
v 0.347720 0.526509 -0.067834
v 0.339862 0.525722 -0.069612
v 0.342029 0.526329 -0.052729
v 0.341371 0.509793 -0.069234
v 0.343538 0.510399 -0.052351
v 0.330247 0.509059 -0.055762
v 0.329893 0.508672 -0.070644
v 0.328535 0.527140 -0.056191
v 0.328181 0.526753 -0.071074
v 0.318530 0.523923 -0.060307
v 0.321644 0.526622 -0.050492
v 0.320039 0.507993 -0.059929
v 0.323356 0.508542 -0.050063
v 0.509971 0.521236 -0.048394
v 0.509759 0.521400 -0.040606
v 0.508540 0.532707 -0.048714
v 0.508327 0.532871 -0.040927
v 0.529748 0.532641 -0.039203
v 0.530242 0.532454 -0.049018
v 0.531179 0.521170 -0.038883
v 0.531674 0.520983 -0.048698
v 0.539066 0.517102 -0.049939
v 0.538212 0.517357 -0.035797
v 0.537208 0.533082 -0.050366
v 0.536353 0.533337 -0.036224
v 0.541010 0.533727 -0.038377
v 0.541196 0.533481 -0.049451
v 0.543131 0.514973 -0.037884
v 0.543316 0.514727 -0.048958
v 0.538788 0.515939 -0.032253
v 0.548693 0.520251 -0.008585
v 0.537556 0.521913 -0.032487
v 0.543550 0.524098 -0.009341
v 0.532867 0.522029 -0.008884
v 0.526808 0.520986 -0.028649
v 0.534069 0.518637 -0.008681
v 0.528010 0.517594 -0.028446
v 0.516592 0.516751 -0.027861
v 0.520640 0.517583 -0.008959
v 0.515304 0.519910 -0.028074
v 0.519353 0.520742 -0.009171
v 0.501961 0.521361 -0.010630
v 0.500243 0.520872 -0.024373
v 0.502561 0.516722 -0.010498
v 0.500843 0.516233 -0.024240
v 0.430454 0.506734 -0.030462
v 0.428431 0.506888 -0.015921
v 0.428104 0.522039 -0.030950
v 0.426081 0.522193 -0.016410
v 0.371988 0.506017 -0.029379
v 0.374011 0.505864 -0.043919
v 0.373408 0.500525 -0.029123
v 0.375432 0.500371 -0.043664
v 0.351182 0.489352 -0.054639
v 0.349158 0.489506 -0.040098
v 0.350851 0.510923 -0.054912
v 0.348827 0.511076 -0.040372
v 0.340277 0.504026 -0.044376
v 0.341512 0.503932 -0.053250
v 0.342655 0.492738 -0.043926
v 0.343890 0.492644 -0.052800
v 0.547451 0.524920 -0.022181
v 0.546151 0.524446 -0.027201
v 0.548567 0.524086 -0.022017
v 0.546419 0.523151 -0.027150
v 0.548904 0.520928 -0.044981
v 0.548827 0.521029 -0.040419
v 0.548030 0.528653 -0.045184
v 0.547954 0.528754 -0.040623
vn 0.0572 0.6968 -0.7150
vn -0.0261 0.7550 0.6552
vn -0.0896 0.7143 0.6941
vn 0.0457 0.7128 -0.6999
vn 0.0962 -0.7701 -0.6306
vn 0.0249 -0.8044 0.5935
vn 0.0384 -0.6363 0.7705
vn 0.1760 -0.6827 -0.7092
vn -0.4714 -0.5438 0.6943
vn 0.2700 -0.5694 -0.7765
vn -0.5370 0.5171 0.6665
vn 0.0843 0.7117 -0.6974
vn 0.1295 0.6594 -0.7406
vn -0.4435 0.8287 0.3416
vn 0.3426 -0.6881 -0.6396
vn 0.0517 -0.8919 0.4492
vn 0.1993 -0.7960 0.5715
vn -0.2104 -0.6574 -0.7236
vn 0.0371 0.8686 0.4941
vn -0.2910 0.6095 -0.7375
vn -0.8875 0.4185 -0.1927
vn -0.3080 0.5747 0.7582
vn -0.7155 -0.6824 -0.1498
vn -0.1741 -0.5606 0.8096
vn 0.0190 -0.7318 -0.6813
vn -0.0379 -0.6998 0.7134
vn 0.0333 0.7062 -0.7072
vn -0.0252 0.7302 0.6828
vn -0.1990 0.7380 0.6448
vn -0.1016 0.6914 -0.7153
vn -0.3759 -0.6380 0.6721
vn -0.2577 -0.6493 -0.7156
vn -0.2407 -0.6111 -0.7541
vn -0.1893 -0.5744 0.7964
vn -0.0509 0.6426 -0.7645
vn -0.0609 0.6411 0.7650
vn 0.3633 0.7699 0.5246
vn 0.3498 0.7070 -0.6146
vn 0.2480 -0.7792 0.5756
vn 0.2566 -0.7752 -0.5773
vn 0.2283 -0.7023 -0.6743
vn 0.7177 -0.2505 0.6497
vn -0.0438 0.5727 -0.8186
vn 0.1127 0.7913 0.6009
vn -0.0948 0.7250 0.6822
vn -0.2077 0.6829 -0.7004
vn 0.0190 -0.6431 0.7656
vn -0.1178 -0.7847 -0.6085
vn -0.0444 -0.7341 -0.6776
vn 0.0094 -0.6774 0.7355
vn -0.1357 0.6172 -0.7750
vn -0.0697 0.7085 0.7022
vn -0.0334 0.7315 0.6810
vn -0.0137 0.7205 -0.6934
vn -0.0007 -0.6801 0.7331
vn 0.0134 -0.7631 -0.6461
vn 0.1969 -0.7246 -0.6604
vn -0.0273 -0.6820 0.7309
vn 0.0062 0.7396 -0.6730
vn -0.2021 0.7215 0.6623
vn -0.3084 0.6150 0.7257
vn 0.2441 0.6708 -0.7003
vn -0.0965 -0.6493 0.7544
vn 0.4139 -0.6496 -0.6377
vn 0.0842 -0.7265 -0.6820
vn -0.2256 -0.7732 0.5927
vn -0.0506 0.7076 -0.7048
vn -0.3801 0.7584 0.5296
vn -0.6875 0.4750 0.5493
vn -0.5100 0.4615 -0.7259
vn -0.5764 -0.5694 0.5861
vn -0.3962 -0.5831 -0.7093
vn 0.3413 0.9379 -0.0620
vn 0.3538 0.8026 -0.4802
vn 0.9859 0.1101 -0.1261
vn 0.8205 -0.1370 -0.5550
vn 0.8987 -0.2336 -0.3713
vn 0.8425 -0.2144 0.4942
vn 0.8298 0.4009 -0.3882
vn 0.7738 0.4135 0.4799
vt 1.000000 1.000000
vt 1.000000 0.000000
vt 0.000000 0.000000
vt 0.000000 1.000000
s 1
usemtl skeleton
f 1/1/1 2/2/2 3/3/3 4/4/4
f 7/1/7 6/2/6 5/3/5 8/4/8
f 7/1/7 3/2/3 2/3/2 6/4/6
f 5/1/5 1/2/1 4/3/4 8/4/8
f 10/1/10 12/2/12 1/3/1 5/4/5
f 11/1/11 9/2/9 6/3/6 2/4/2
f 9/1/9 10/2/10 5/3/5 6/4/6
f 12/1/12 11/2/11 2/3/2 1/4/1
f 13/1/13 14/2/14 11/3/11 12/4/12
f 16/1/16 15/2/15 10/3/10 9/4/9
f 14/1/14 16/2/16 9/3/9 11/4/11
f 15/1/15 13/2/13 12/3/12 10/4/10
f 18/1/18 20/2/20 13/3/13 15/4/15
f 19/1/19 17/2/17 16/3/16 14/4/14
f 17/1/17 18/2/18 15/3/15 16/4/16
f 20/1/20 19/2/19 14/3/14 13/4/13
f 21/1/21 22/2/22 19/3/19 20/4/20
f 24/1/24 23/2/23 18/3/18 17/4/17
f 22/1/22 24/2/24 17/3/17 19/4/19
f 23/1/23 21/2/21 20/3/20 18/4/18
f 24/1/24 22/2/22 21/3/21 23/4/23
f 27/1/27 25/2/25 8/3/8 4/4/4
f 26/1/26 28/2/28 3/3/3 7/4/7
f 25/1/25 26/2/26 7/3/7 8/4/8
f 28/1/28 27/2/27 4/3/4 3/4/3
f 29/1/29 30/2/30 27/3/27 28/4/28
f 32/1/32 31/2/31 26/3/26 25/4/25
f 31/1/31 29/2/29 28/3/28 26/4/26
f 30/1/30 32/2/32 25/3/25 27/4/27
f 35/1/35 33/2/33 32/3/32 30/4/30
f 34/1/34 36/2/36 29/3/29 31/4/31
f 33/1/33 34/2/34 31/3/31 32/4/32
f 36/1/36 35/2/35 30/3/30 29/4/29
f 37/1/37 38/2/38 35/3/35 36/4/36
f 40/1/40 39/2/39 34/3/34 33/4/33
f 39/1/39 37/2/37 36/3/36 34/4/34
f 38/1/38 40/2/40 33/3/33 35/4/35
f 43/1/43 41/2/41 48/3/48 46/4/46
f 42/1/42 44/2/44 45/3/45 47/4/47
f 41/1/41 42/2/42 47/3/47 48/4/48
f 44/1/44 43/2/43 46/3/46 45/4/45
f 45/1/45 46/2/46 51/3/51 52/4/52
f 48/1/48 47/2/47 50/3/50 49/4/49
f 47/1/47 45/2/45 52/3/52 50/4/50
f 46/1/46 48/2/48 49/3/49 51/4/51
f 51/1/51 49/2/49 56/3/56 54/4/54
f 50/1/50 52/2/52 53/3/53 55/4/55
f 49/1/49 50/2/50 55/3/55 56/4/56
f 52/1/52 51/2/51 54/3/54 53/4/53
f 53/1/53 54/2/54 59/3/59 60/4/60
f 56/1/56 55/2/55 58/3/58 57/4/57
f 55/1/55 53/2/53 60/3/60 58/4/58
f 54/1/54 56/2/56 57/3/57 59/4/59
f 62/1/62 61/2/61 60/3/60 59/4/59
f 63/1/63 64/2/64 57/3/57 58/4/58
f 61/1/61 63/2/63 58/3/58 60/4/60
f 64/1/64 62/2/62 59/3/59 57/4/57
f 65/1/65 67/2/67 62/3/62 64/4/64
f 68/1/68 66/2/66 63/3/63 61/4/61
f 66/1/66 65/2/65 64/3/64 63/4/63
f 67/1/67 68/2/68 61/3/61 62/4/62
f 70/1/70 69/2/69 68/3/68 67/4/67
f 71/1/71 72/2/72 65/3/65 66/4/66
f 69/1/69 71/2/71 66/3/66 68/4/68
f 72/1/72 70/2/70 67/3/67 65/4/65
f 74/1/74 43/2/43 44/3/44 73/4/73
f 75/1/75 42/2/42 41/3/41 76/4/76
f 73/1/73 44/2/44 42/3/42 75/4/75
f 76/1/76 41/2/41 43/3/43 74/4/74
f 76/1/76 74/2/74 73/3/73 75/4/75
f 77/1/77 40/2/40 38/3/38 79/4/79
f 80/1/80 37/2/37 39/3/39 78/4/78
f 78/1/78 39/2/39 40/3/40 77/4/77
f 79/1/79 38/2/38 37/3/37 80/4/80
f 77/1/77 79/2/79 80/3/80 78/4/78
