# Blender 4.4.0
# www.blender.org
mtllib lHand.mtl
o lHand
v 0.601861 0.525665 0.020880
v 0.601584 0.527327 0.009161
v 0.561242 0.521297 0.009205
v 0.561519 0.519634 0.020924
v 0.600397 0.537291 0.022563
v 0.600120 0.538953 0.010845
v 0.559778 0.532923 0.010889
v 0.560055 0.531261 0.022607
v 0.602515 0.541853 0.009096
v 0.602900 0.539544 0.025372
v 0.604549 0.525703 0.006757
v 0.604933 0.523395 0.023034
v 0.605936 0.527026 0.020196
v 0.605694 0.528482 0.009934
v 0.604654 0.537208 0.021670
v 0.604412 0.538663 0.011409
v 0.631298 0.533940 0.010889
v 0.631541 0.532484 0.021151
v 0.632580 0.523758 0.009415
v 0.632823 0.522303 0.019677
v 0.667691 0.524893 0.014710
v 0.667839 0.524005 0.020969
v 0.668473 0.518683 0.013811
v 0.668621 0.517796 0.020070
v 0.636567 0.522757 0.019794
v 0.636325 0.524213 0.009532
v 0.635285 0.532939 0.021268
v 0.635043 0.534394 0.011006
v 0.633164 0.534329 0.023824
v 0.634995 0.519568 0.022161
v 0.634631 0.521754 0.006751
v 0.632705 0.537043 0.008965
v 0.548654 0.526637 0.019619
v 0.548543 0.527300 0.014941
v 0.549238 0.521996 0.018947
v 0.549128 0.522659 0.014269
v 0.551705 0.525335 0.001501
v 0.552043 0.524845 0.005184
v 0.551244 0.528999 0.002031
v 0.551582 0.528509 0.005715
v 0.616342 0.543698 -0.006249
v 0.617862 0.531626 -0.007997
v 0.618979 0.530010 0.004137
v 0.617508 0.541661 0.005449
v 0.618312 0.541639 -0.004748
v 0.619055 0.540562 0.003333
v 0.619324 0.533600 -0.005912
v 0.620067 0.532523 0.002169
v 0.645309 0.529342 0.000798
v 0.644855 0.529998 -0.004130
v 0.644692 0.534244 0.001508
v 0.644238 0.534901 -0.003420
v 0.617115 0.532136 0.002277
v 0.616372 0.533212 -0.005804
v 0.616103 0.540174 0.003441
v 0.615359 0.541251 -0.004640
v 0.594954 0.538552 -0.003744
v 0.595698 0.537475 0.004336
v 0.595966 0.530513 -0.004908
v 0.596710 0.529436 0.003172
v 0.596098 0.526582 0.005484
v 0.594919 0.528289 -0.007333
v 0.594493 0.539333 0.007330
v 0.593314 0.541040 -0.005487
v 0.560685 0.532265 0.007438
v 0.559836 0.533494 -0.001789
v 0.591542 0.538745 -0.003964
v 0.592390 0.537516 0.005264
v 0.561840 0.523085 0.006109
v 0.560992 0.524314 -0.003118
v 0.592698 0.529566 -0.005293
v 0.593546 0.528336 0.003934
v 0.603347 0.523535 0.037260
v 0.603967 0.525291 0.025680
v 0.564050 0.519759 0.022649
v 0.563430 0.518004 0.034230
v 0.601897 0.535055 0.038928
v 0.602517 0.536810 0.027348
v 0.562600 0.531278 0.024317
v 0.561980 0.529523 0.035898
v 0.605045 0.539671 0.025827
v 0.604183 0.537233 0.041912
v 0.607059 0.523671 0.023510
v 0.606197 0.521233 0.039595
v 0.607438 0.524845 0.036902
v 0.607981 0.526381 0.026761
v 0.606168 0.534932 0.038363
v 0.606711 0.536469 0.028222
v 0.633270 0.531421 0.029660
v 0.632726 0.529884 0.039802
v 0.634540 0.521333 0.028200
v 0.633996 0.519797 0.038341
v 0.668852 0.521918 0.036050
v 0.668521 0.520981 0.042235
v 0.669627 0.515767 0.035160
v 0.669295 0.514830 0.041344
v 0.637691 0.520204 0.038741
v 0.638235 0.521741 0.028600
v 0.636422 0.530291 0.040201
v 0.636965 0.531828 0.030060
v 0.634149 0.531669 0.042581
v 0.635928 0.517041 0.040931
v 0.636744 0.519349 0.025702
v 0.634836 0.534497 0.027896
v 0.550892 0.525096 0.032048
v 0.551140 0.525797 0.027426
v 0.551471 0.520499 0.031382
v 0.551719 0.521199 0.026760
v 0.547777 0.520717 0.026661
v 0.546783 0.519939 0.031169
v 0.547199 0.525315 0.027327
v 0.546204 0.524537 0.031835
v 0.626871 0.530166 0.050874
v 0.628779 0.515019 0.048681
v 0.625503 0.512455 0.063534
v 0.623798 0.527090 0.065200
v 0.628571 0.527407 0.053290
v 0.626389 0.525700 0.063181
v 0.629841 0.517320 0.051830
v 0.627660 0.515613 0.061720
v 0.660933 0.510717 0.062473
v 0.662263 0.511758 0.056441
v 0.660159 0.516869 0.063364
v 0.661489 0.517910 0.057332
v 0.624067 0.515304 0.060731
v 0.626249 0.517011 0.050840
v 0.622797 0.525391 0.062192
v 0.624978 0.527098 0.052301
v 0.599100 0.532823 0.046781
v 0.596919 0.531116 0.056672
v 0.600370 0.522736 0.045321
v 0.598189 0.521029 0.055212
v 0.596459 0.517401 0.057594
v 0.599919 0.520108 0.041906
v 0.594445 0.533401 0.059911
v 0.597905 0.536108 0.044223
v 0.555202 0.522480 0.042964
v 0.557065 0.529412 0.032391
v 0.595107 0.533283 0.045261
v 0.592616 0.531333 0.056555
v 0.556025 0.515944 0.042018
v 0.558516 0.517893 0.030723
v 0.596557 0.521764 0.043593
v 0.594066 0.519815 0.054887
v 0.558232 0.520159 0.014543
v 0.560076 0.522695 -0.001365
v 0.543184 0.516684 0.000299
v 0.540611 0.514715 0.011655
v 0.556772 0.531757 0.016222
v 0.558616 0.534293 0.000315
v 0.541724 0.528282 0.001978
v 0.539150 0.526314 0.013335
v 0.540523 0.524068 0.030039
v 0.556514 0.529309 0.032906
v 0.541983 0.512470 0.028359
v 0.557974 0.517711 0.031227
v 0.564610 0.516757 0.043583
v 0.548619 0.511516 0.040715
v 0.563150 0.528355 0.045262
v 0.547159 0.523114 0.042395
v 0.563866 0.516828 0.054187
v 0.581621 0.512198 0.050363
v 0.560426 0.505854 0.051505
v 0.578182 0.501223 0.047681
v 0.584677 0.498539 0.057470
v 0.571795 0.501899 0.060244
v 0.587173 0.506502 0.059415
v 0.574291 0.509861 0.062190
v 0.575308 0.510640 0.065243
v 0.597313 0.505252 0.059065
v 0.571814 0.499493 0.062519
v 0.593820 0.494106 0.056342
v 0.593942 0.495840 0.059340
v 0.578937 0.499402 0.064009
v 0.596079 0.502659 0.061007
v 0.581075 0.506221 0.065676
v 0.610010 0.494075 0.071224
v 0.614861 0.493328 0.068058
v 0.608804 0.490229 0.070284
v 0.613655 0.489482 0.067119
vn -0.4331 -0.7476 0.5034
vn -0.4306 -0.5650 -0.7038
vn -0.1250 -0.6050 -0.7863
vn -0.0501 -0.8113 0.5825
vn -0.5960 0.4473 0.6669
vn -0.5918 0.6131 -0.5233
vn -0.3102 0.7420 -0.5942
vn -0.2398 0.5690 0.7866
vn 0.0386 0.8102 -0.5848
vn 0.0647 0.5983 0.7987
vn 0.2136 -0.5799 -0.7862
vn 0.2361 -0.7632 0.6015
vn 0.7623 -0.4627 0.4526
vn 0.7322 -0.2867 -0.6178
vn 0.7558 0.4856 0.4392
vn 0.7341 0.5806 -0.3521
vn -0.6472 0.5513 -0.5265
vn -0.6468 0.3815 0.6604
vn -0.6682 -0.5111 -0.5406
vn -0.6720 -0.6373 0.3772
vn 0.6450 0.6036 -0.4687
vn 0.6007 0.4312 0.6732
vn 0.6007 -0.5222 -0.6054
vn 0.5772 -0.6623 0.4777
vn 0.6497 -0.5547 0.5197
vn 0.6800 -0.3194 -0.6600
vn 0.6504 0.5516 0.5222
vn 0.6695 0.6353 -0.3849
vn -0.0842 0.5706 0.8169
vn 0.0839 -0.7740 0.6276
vn 0.0618 -0.6053 -0.7936
vn -0.1162 0.8188 -0.5622
vn -0.7476 0.3151 0.5847
vn -0.8063 0.4530 -0.3803
vn -0.6276 -0.6376 0.4468
vn -0.6850 -0.5105 -0.5198
vn -0.7130 -0.5214 -0.4688
vn -0.5900 -0.6395 0.4928
vn -0.8344 0.4421 -0.3292
vn -0.7100 0.3131 0.6308
vn -0.1616 0.8128 -0.5597
vn 0.0147 -0.6117 -0.7910
vn 0.1334 -0.7677 0.6268
vn -0.0351 0.5769 0.8161
vn 0.6323 0.6399 -0.4367
vn 0.6742 0.5636 0.4773
vn 0.6413 -0.3193 -0.6977
vn 0.6927 -0.5432 0.4744
vn 0.6194 -0.6470 0.4447
vn 0.5699 -0.5155 -0.6399
vn 0.6360 0.4485 0.6279
vn 0.6020 0.6115 -0.5135
vn -0.5691 -0.6651 0.4834
vn -0.6322 -0.5295 -0.5656
vn -0.6748 0.3787 0.6334
vn -0.7501 0.5189 -0.4099
vn 0.6406 0.6118 -0.4641
vn 0.7264 0.5101 0.4607
vn 0.7533 -0.2831 -0.5937
vn 0.8442 -0.4261 0.3252
vn 0.2834 -0.7556 0.5906
vn 0.1665 -0.5848 -0.7939
vn 0.1119 0.6058 0.7877
vn -0.0085 0.8054 -0.5927
vn -0.1943 0.5722 0.7967
vn -0.3585 0.7326 -0.5786
vn -0.6330 0.6024 -0.4862
vn -0.5562 0.4472 0.7004
vn -0.0009 -0.8072 0.5903
vn -0.1689 -0.6138 -0.7712
vn -0.4694 -0.5748 -0.6703
vn -0.3893 -0.7474 0.5384
vn -0.4777 -0.7473 0.4619
vn -0.3821 -0.5537 -0.7399
vn -0.0716 -0.5964 -0.7995
vn -0.1025 -0.8160 0.5689
vn -0.6399 0.4479 0.6244
vn -0.5441 0.6245 -0.5603
vn -0.2567 0.7508 -0.6086
vn -0.2926 0.5645 0.7719
vn 0.0913 0.8150 -0.5722
vn 0.0106 0.5903 0.8071
vn 0.2663 -0.5752 -0.7735
vn 0.1820 -0.7712 0.6100
vn 0.7205 -0.4754 0.5049
vn 0.7733 -0.2891 -0.5643
vn 0.7262 0.4728 0.4991
vn 0.7652 0.5751 -0.2894
vn -0.5991 0.5635 -0.5689
vn -0.6902 0.3826 0.6142
vn -0.6315 -0.4984 -0.5939
vn -0.7058 -0.6328 0.3186
vn 0.6855 0.5996 -0.4130
vn 0.5533 0.4173 0.7210
vn 0.6382 -0.5244 -0.5637
vn 0.5317 -0.6740 0.5129
vn 0.6019 -0.5669 0.5624
vn 0.7240 -0.3209 -0.6106
vn 0.6157 0.5392 0.5747
vn 0.7038 0.6309 -0.3265
vn -0.1396 0.5640 0.8139
vn 0.0281 -0.7806 0.6244
vn 0.1151 -0.5988 -0.7926
vn -0.0647 0.8252 -0.5611
vn -0.7862 0.3181 0.5298
vn -0.7705 0.4655 -0.4355
vn -0.6663 -0.6345 0.3918
vn -0.6491 -0.4979 -0.5750
vn -0.3706 -0.4080 -0.8344
vn -0.7834 -0.6184 0.0619
vn -0.5444 0.5553 -0.6287
vn -0.8725 0.3666 0.3230
vn 0.0430 0.8365 -0.5462
vn 0.2269 -0.5869 -0.7772
vn -0.0882 -0.7923 0.6038
vn -0.2551 0.5524 0.7936
vn 0.7254 0.6568 -0.2059
vn 0.5590 0.4807 0.6757
vn 0.7486 -0.3846 -0.5400
vn 0.5609 -0.5274 0.6382
vn 0.4907 -0.6967 0.5233
vn 0.6785 -0.5016 -0.5367
vn 0.5216 0.4158 0.7450
vn 0.7029 0.6002 -0.3817
vn -0.7608 -0.6209 0.1888
vn -0.5396 -0.4719 -0.6973
vn -0.7708 0.3882 0.5052
vn -0.4888 0.5883 -0.6442
vn 0.8136 0.5612 -0.1518
vn 0.6475 0.4457 0.6181
vn 0.8468 -0.2978 -0.4408
vn 0.6207 -0.5021 0.6022
vn 0.0661 -0.7864 0.6142
vn 0.3735 -0.5674 -0.7339
vn -0.1052 0.5750 0.8113
vn 0.1984 0.8228 -0.5326
vn -0.5658 0.3483 0.7474
vn -0.0188 0.8972 -0.4412
vn -0.4658 0.6683 -0.5800
vn -0.7466 0.4059 0.5270
vn -0.3732 -0.7926 0.4822
vn 0.2059 -0.6272 -0.7512
vn -0.2438 -0.5470 -0.8008
vn -0.5869 -0.7264 0.3576
vn 0.8384 -0.5443 -0.0291
vn 0.6745 -0.3371 -0.6568
vn -0.3885 -0.6280 -0.6743
vn -0.5750 -0.8015 -0.1641
vn 0.5139 0.8421 0.1634
vn 0.4482 0.7546 -0.4792
vn -0.6626 0.5286 -0.5306
vn -0.8635 0.5040 0.0174
vn -0.8440 0.4516 0.2894
vn 0.4108 0.9114 0.0232
vn -0.5546 -0.8276 0.0869
vn 0.7909 -0.5484 -0.2716
vn 0.4685 -0.2500 -0.8474
vn -0.5188 -0.8155 0.2564
vn 0.4688 0.8681 0.1634
vn -0.6426 0.4489 0.6209
vn -0.3043 0.3957 0.8665
vn 0.7001 0.6108 -0.3699
vn -0.6853 -0.7108 0.1587
vn 0.2934 -0.6431 -0.7074
vn 0.0154 -0.4619 -0.8868
vn -0.8418 -0.5288 0.1083
vn 0.3802 0.7018 -0.6024
vn -0.4270 0.7945 0.4317
vn -0.3614 0.7473 0.5576
vn 0.7865 0.5799 -0.2125
vn -0.7784 -0.5831 0.2324
vn 0.3672 -0.7578 -0.5394
vn 0.3811 -0.9196 -0.0959
vn -0.1962 -0.5930 0.7809
vn 0.8269 0.5029 0.2517
vn 0.0548 0.2079 0.9766
vn 0.2767 0.3315 0.9020
vn 0.9636 0.2644 0.0385
vn -0.0690 -0.7715 0.6325
vn 0.6520 -0.7302 -0.2044
vt 1.000000 1.000000
vt 1.000000 0.000000
vt 0.000000 0.000000
vt 0.000000 1.000000
s 1
usemtl skeleton
f 1/1/1 4/2/4 3/3/3 2/4/2
f 7/1/7 8/2/8 5/3/5 6/4/6
f 7/1/7 6/2/6 2/3/2 3/4/3
f 5/1/5 8/2/8 4/3/4 1/4/1
f 10/1/10 5/2/5 1/3/1 12/4/12
f 11/1/11 2/2/2 6/3/6 9/4/9
f 9/1/9 6/2/6 5/3/5 10/4/10
f 12/1/12 1/2/1 2/3/2 11/4/11
f 13/1/13 12/2/12 11/3/11 14/4/14
f 16/1/16 9/2/9 10/3/10 15/4/15
f 14/1/14 11/2/11 9/3/9 16/4/16
f 15/1/15 10/2/10 12/3/12 13/4/13
f 18/1/18 15/2/15 13/3/13 20/4/20
f 19/1/19 14/2/14 16/3/16 17/4/17
f 17/1/17 16/2/16 15/3/15 18/4/18
f 20/1/20 13/2/13 14/3/14 19/4/19
f 21/1/21 22/2/22 24/3/24 23/4/23
f 22/1/22 27/2/27 25/3/25 24/4/24
f 23/1/23 26/2/26 28/3/28 21/4/21
f 21/1/21 28/2/28 27/3/27 22/4/22
f 24/1/24 25/2/25 26/3/26 23/4/23
f 30/1/30 25/2/25 27/3/27 29/4/29
f 32/1/32 28/2/28 26/3/26 31/4/31
f 29/1/29 27/2/27 28/3/28 32/4/32
f 31/1/31 26/2/26 25/3/25 30/4/30
f 30/1/30 20/2/20 19/3/19 31/4/31
f 32/1/32 17/2/17 18/3/18 29/4/29
f 31/1/31 19/2/19 17/3/17 32/4/32
f 29/1/29 18/2/18 20/3/20 30/4/30
f 35/1/35 4/2/4 8/3/8 33/4/33
f 34/1/34 7/2/7 3/3/3 36/4/36
f 33/1/33 8/2/8 7/3/7 34/4/34
f 36/1/36 3/2/3 4/3/4 35/4/35
f 33/1/33 34/2/34 36/3/36 35/4/35
f 40/1/40 39/2/39 37/3/37 38/4/38
f 37/1/37 70/2/70 69/3/69 38/4/38
f 40/1/40 65/2/65 66/3/66 39/4/39
f 39/1/39 66/2/66 70/3/70 37/4/37
f 38/1/38 69/2/69 65/3/65 40/4/40
f 44/1/44 55/2/55 53/3/53 43/4/43
f 42/1/42 54/2/54 56/3/56 41/4/41
f 41/1/41 56/2/56 55/3/55 44/4/44
f 43/1/43 53/2/53 54/3/54 42/4/42
f 42/1/42 47/2/47 48/3/48 43/4/43
f 44/1/44 46/2/46 45/3/45 41/4/41
f 41/1/41 45/2/45 47/3/47 42/4/42
f 43/1/43 48/2/48 46/3/46 44/4/44
f 49/1/49 48/2/48 47/3/47 50/4/50
f 52/1/52 45/2/45 46/3/46 51/4/51
f 50/1/50 47/2/47 45/3/45 52/4/52
f 51/1/51 46/2/46 48/3/48 49/4/49
f 52/1/52 51/2/51 49/3/49 50/4/50
f 53/1/53 60/2/60 59/3/59 54/4/54
f 56/1/56 57/2/57 58/3/58 55/4/55
f 54/1/54 59/2/59 57/3/57 56/4/56
f 55/1/55 58/2/58 60/3/60 53/4/53
f 58/1/58 63/2/63 61/3/61 60/4/60
f 59/1/59 62/2/62 64/3/64 57/4/57
f 57/1/57 64/2/64 63/3/63 58/4/58
f 60/1/60 61/2/61 62/3/62 59/4/59
f 61/1/61 72/2/72 71/3/71 62/4/62
f 64/1/64 67/2/67 68/3/68 63/4/63
f 62/1/62 71/2/71 67/3/67 64/4/64
f 63/1/63 68/2/68 72/3/72 61/4/61
f 68/1/68 65/2/65 69/3/69 72/4/72
f 66/1/66 67/2/67 71/3/71 70/4/70
f 66/1/66 65/2/65 68/3/68 67/4/67
f 72/1/72 69/2/69 70/3/70 71/4/71
f 73/1/73 76/2/76 75/3/75 74/4/74
f 79/1/79 80/2/80 77/3/77 78/4/78
f 79/1/79 78/2/78 74/3/74 75/4/75
f 77/1/77 80/2/80 76/3/76 73/4/73
f 82/1/82 77/2/77 73/3/73 84/4/84
f 83/1/83 74/2/74 78/3/78 81/4/81
f 81/1/81 78/2/78 77/3/77 82/4/82
f 84/1/84 73/2/73 74/3/74 83/4/83
f 85/1/85 84/2/84 83/3/83 86/4/86
f 88/1/88 81/2/81 82/3/82 87/4/87
f 86/1/86 83/2/83 81/3/81 88/4/88
f 87/1/87 82/2/82 84/3/84 85/4/85
f 90/1/90 87/2/87 85/3/85 92/4/92
f 91/1/91 86/2/86 88/3/88 89/4/89
f 89/1/89 88/2/88 87/3/87 90/4/90
f 92/1/92 85/2/85 86/3/86 91/4/91
f 93/1/93 94/2/94 96/3/96 95/4/95
f 94/1/94 99/2/99 97/3/97 96/4/96
f 95/1/95 98/2/98 100/3/100 93/4/93
f 93/1/93 100/2/100 99/3/99 94/4/94
f 96/1/96 97/2/97 98/3/98 95/4/95
f 102/1/102 97/2/97 99/3/99 101/4/101
f 104/1/104 100/2/100 98/3/98 103/4/103
f 101/1/101 99/2/99 100/3/100 104/4/104
f 103/1/103 98/2/98 97/3/97 102/4/102
f 102/1/102 92/2/92 91/3/91 103/4/103
f 104/1/104 89/2/89 90/3/90 101/4/101
f 103/1/103 91/2/91 89/3/89 104/4/104
f 101/1/101 90/2/90 92/3/92 102/4/102
f 107/1/107 76/2/76 80/3/80 105/4/105
f 106/1/106 79/2/79 75/3/75 108/4/108
f 105/1/105 80/2/80 79/3/79 106/4/106
f 108/1/108 75/2/75 76/3/76 107/4/107
f 105/1/105 106/2/106 108/3/108 107/4/107
f 112/1/112 111/2/111 109/3/109 110/4/110
f 109/1/109 142/2/142 141/3/141 110/4/110
f 112/1/112 137/2/137 138/3/138 111/4/111
f 111/1/111 138/2/138 142/3/142 109/4/109
f 110/1/110 141/2/141 137/3/137 112/4/112
f 116/1/116 127/2/127 125/3/125 115/4/115
f 114/1/114 126/2/126 128/3/128 113/4/113
f 113/1/113 128/2/128 127/3/127 116/4/116
f 115/1/115 125/2/125 126/3/126 114/4/114
f 114/1/114 119/2/119 120/3/120 115/4/115
f 116/1/116 118/2/118 117/3/117 113/4/113
f 113/1/113 117/2/117 119/3/119 114/4/114
f 115/1/115 120/2/120 118/3/118 116/4/116
f 121/1/121 120/2/120 119/3/119 122/4/122
f 124/1/124 117/2/117 118/3/118 123/4/123
f 122/1/122 119/2/119 117/3/117 124/4/124
f 123/1/123 118/2/118 120/3/120 121/4/121
f 124/1/124 123/2/123 121/3/121 122/4/122
f 125/1/125 132/2/132 131/3/131 126/4/126
f 128/1/128 129/2/129 130/3/130 127/4/127
f 126/1/126 131/2/131 129/3/129 128/4/128
f 127/1/127 130/2/130 132/3/132 125/4/125
f 130/1/130 135/2/135 133/3/133 132/4/132
f 131/1/131 134/2/134 136/3/136 129/4/129
f 129/1/129 136/2/136 135/3/135 130/4/130
f 132/1/132 133/2/133 134/3/134 131/4/131
f 133/1/133 144/2/144 143/3/143 134/4/134
f 136/1/136 139/2/139 140/3/140 135/4/135
f 134/1/134 143/2/143 139/3/139 136/4/136
f 135/1/135 140/2/140 144/3/144 133/4/133
f 140/1/140 137/2/137 141/3/141 144/4/144
f 138/1/138 139/2/139 143/3/143 142/4/142
f 138/1/138 137/2/137 140/3/140 139/4/139
f 144/1/144 141/2/141 142/3/142 143/4/143
f 145/1/145 148/2/148 147/3/147 146/4/146
f 151/1/151 152/2/152 149/3/149 150/4/150
f 150/1/150 149/2/149 145/3/145 146/4/146
f 151/1/151 150/2/150 146/3/146 147/4/147
f 152/1/152 151/2/151 147/3/147 148/4/148
f 153/1/153 152/2/152 148/3/148 155/4/155
f 156/1/156 145/2/145 149/3/149 154/4/154
f 154/1/154 149/2/149 152/3/152 153/4/153
f 155/1/155 148/2/148 145/3/145 156/4/156
f 158/1/158 155/2/155 156/3/156 157/4/157
f 159/1/159 154/2/154 153/3/153 160/4/160
f 157/1/157 156/2/156 154/3/154 159/4/159
f 160/1/160 153/2/153 155/3/155 158/4/158
f 161/1/161 160/2/160 158/3/158 163/4/163
f 164/1/164 157/2/157 159/3/159 162/4/162
f 162/1/162 159/2/159 160/3/160 161/4/161
f 163/1/163 158/2/158 157/3/157 164/4/164
f 166/1/166 163/2/163 164/3/164 165/4/165
f 167/1/167 162/2/162 161/3/161 168/4/168
f 165/1/165 164/2/164 162/3/162 167/4/167
f 168/1/168 161/2/161 163/3/163 166/4/166
f 169/1/169 168/2/168 166/3/166 171/4/171
f 172/1/172 165/2/165 167/3/167 170/4/170
f 170/1/170 167/2/167 168/3/168 169/4/169
f 171/1/171 166/2/166 165/3/165 172/4/172
f 174/1/174 171/2/171 172/3/172 173/4/173
f 175/1/175 170/2/170 169/3/169 176/4/176
f 173/1/173 172/2/172 170/3/170 175/4/175
f 176/1/176 169/2/169 171/3/171 174/4/174
f 177/1/177 176/2/176 174/3/174 179/4/179
f 180/1/180 173/2/173 175/3/175 178/4/178
f 178/1/178 175/2/175 176/3/176 177/4/177
f 179/1/179 174/2/174 173/3/173 180/4/180
f 178/1/178 177/2/177 179/3/179 180/4/180
