# Blender 4.4.0
# www.blender.org
mtllib lShldr.mtl
o lShldr
v 0.279640 0.504744 -0.048957
v 0.282059 0.504349 -0.062476
v 0.200036 0.506228 -0.058874
v 0.197618 0.506622 -0.045356
v 0.279794 0.520961 -0.049403
v 0.282213 0.520567 -0.062921
v 0.200167 0.519961 -0.059251
v 0.197748 0.520355 -0.045733
v 0.174970 0.523906 -0.042868
v 0.178492 0.523332 -0.062554
v 0.174780 0.503907 -0.042319
v 0.178302 0.503333 -0.062005
v 0.162849 0.500257 -0.062138
v 0.157898 0.501064 -0.034468
v 0.163116 0.528366 -0.062910
v 0.158165 0.529172 -0.035240
v 0.146338 0.521108 -0.040600
v 0.150326 0.520458 -0.062893
v 0.146173 0.503774 -0.040123
v 0.150162 0.503124 -0.062417
v 0.116263 0.504638 -0.047014
v 0.113250 0.503090 -0.044648
v 0.114046 0.512838 -0.044473
v 0.111033 0.511290 -0.042107
v 0.311007 0.526300 -0.061444
v 0.308588 0.526694 -0.047926
v 0.310735 0.497663 -0.060658
v 0.308316 0.498057 -0.047140
v 0.317277 0.485620 -0.044297
v 0.319696 0.485226 -0.057815
v 0.320396 0.530639 -0.045052
v 0.322814 0.530245 -0.058570
v 0.332661 0.526546 -0.054069
v 0.334192 0.526888 -0.041071
v 0.330428 0.497421 -0.053620
v 0.331958 0.497764 -0.040621
vn -0.0869 -0.6760 0.7318
vn -0.0832 -0.6771 -0.7311
vn 0.0715 -0.7332 -0.6763
vn 0.1064 -0.6724 0.7325
vn -0.0710 0.7194 0.6910
vn -0.0670 0.6413 -0.7644
vn 0.0863 0.6914 -0.7173
vn 0.1220 0.7070 0.6966
vn 0.3663 0.6818 0.6332
vn 0.2088 0.6430 -0.7368
vn 0.3084 -0.6822 0.6629
vn 0.1626 -0.7017 -0.6937
vn 0.0160 -0.7676 -0.6408
vn -0.0293 -0.6466 0.7622
vn -0.0489 0.7582 -0.6502
vn -0.0971 0.7288 0.6778
vn -0.4834 0.6368 0.6007
vn -0.3652 0.5093 -0.7792
vn -0.2715 -0.7182 0.6407
vn -0.2432 -0.6135 -0.7513
vn -0.2739 -0.7777 -0.5658
vn -0.0741 -0.5069 0.8588
vn -0.3849 0.8331 -0.3972
vn -0.1706 0.3124 0.9345
vn -0.0391 0.6288 -0.7766
vn -0.2947 0.7134 0.6357
vn -0.1736 -0.5163 -0.8386
vn -0.4811 -0.5062 0.7157
vn -0.1909 -0.8164 0.5450
vn 0.0569 -0.8132 -0.5792
vn -0.1559 0.7895 0.5936
vn 0.1981 0.7249 -0.6597
vn 0.7514 0.4506 -0.4820
vn 0.6128 0.4622 0.6410
vn 0.8036 -0.3404 -0.4882
vn 0.6185 -0.3291 0.7135
vt 1.000000 1.000000
vt 1.000000 0.000000
vt 0.000000 0.000000
vt 0.000000 1.000000
s 1
usemtl skeleton
f 1/1/1 4/2/4 3/3/3 2/4/2
f 7/1/7 8/2/8 5/3/5 6/4/6
f 7/1/7 6/2/6 2/3/2 3/4/3
f 5/1/5 8/2/8 4/3/4 1/4/1
f 11/1/11 4/2/4 8/3/8 9/4/9
f 10/1/10 7/2/7 3/3/3 12/4/12
f 9/1/9 8/2/8 7/3/7 10/4/10
f 12/1/12 3/2/3 4/3/4 11/4/11
f 13/1/13 12/2/12 11/3/11 14/4/14
f 16/1/16 9/2/9 10/3/10 15/4/15
f 15/1/15 10/2/10 12/3/12 13/4/13
f 14/1/14 11/2/11 9/3/9 16/4/16
f 19/1/19 14/2/14 16/3/16 17/4/17
f 18/1/18 15/2/15 13/3/13 20/4/20
f 17/1/17 16/2/16 15/3/15 18/4/18
f 20/1/20 13/2/13 14/3/14 19/4/19
f 21/1/21 20/2/20 19/3/19 22/4/22
f 24/1/24 17/2/17 18/3/18 23/4/23
f 23/1/23 18/2/18 20/3/20 21/4/21
f 22/1/22 19/2/19 17/3/17 24/4/24
f 26/1/26 5/2/5 1/3/1 28/4/28
f 27/1/27 2/2/2 6/3/6 25/4/25
f 25/1/25 6/2/6 5/3/5 26/4/26
f 28/1/28 1/2/1 2/3/2 27/4/27
f 29/1/29 28/2/28 27/3/27 30/4/30
f 32/1/32 25/2/25 26/3/26 31/4/31
f 30/1/30 27/2/27 25/3/25 32/4/32
f 31/1/31 26/2/26 28/3/28 29/4/29
f 34/1/34 31/2/31 29/3/29 36/4/36
f 35/1/35 30/2/30 32/3/32 33/4/33
f 33/1/33 32/2/32 31/3/31 34/4/34
f 36/1/36 29/2/29 30/3/30 35/4/35
f 33/1/33 34/2/34 36/3/36 35/4/35
