# Blender 4.4.0
# www.blender.org
mtllib rFoot.mtl
o rFoot
v -0.097972 -0.790761 -0.022364
v -0.095674 -0.786675 -0.031721
v -0.077361 -0.786556 -0.031023
v -0.074091 -0.790642 -0.023361
v -0.073470 -0.759566 -0.019664
v -0.076819 -0.759864 -0.029520
v -0.095337 -0.759983 -0.030916
v -0.097236 -0.759685 -0.019265
v -0.094916 -0.764568 -0.034504
v -0.079644 -0.764449 -0.032710
v -0.079370 -0.779580 -0.034586
v -0.093952 -0.779698 -0.036380
v -0.102642 -0.755632 0.006055
v -0.073470 -0.755514 0.004061
v -0.074091 -0.787835 0.000244
v -0.103856 -0.787954 0.002238
v -0.105611 -0.781252 0.027432
v -0.081234 -0.781133 0.027052
v -0.081695 -0.763364 0.027764
v -0.106711 -0.763483 0.032087
v -0.110941 -0.783718 0.044812
v -0.106923 -0.783718 0.033828
v -0.080724 -0.783718 0.029523
v -0.077567 -0.783718 0.038474
v -0.110941 -0.754998 0.044812
v -0.106923 -0.754998 0.033828
v -0.080724 -0.754998 0.029523
v -0.077567 -0.754998 0.038474
v -0.073627 -0.754998 0.050789
v -0.113620 -0.754998 0.051390
v -0.073627 -0.783718 0.050789
v -0.113620 -0.783718 0.051390
v -0.116968 -0.783718 0.061076
v -0.081298 -0.783718 0.074589
v -0.116968 -0.757093 0.061076
v -0.081298 -0.760235 0.074589
v -0.071875 -0.760235 0.082235
v -0.071875 -0.783718 0.082235
v -0.069659 -0.783718 0.060294
v -0.069659 -0.757093 0.060294
v -0.074110 -0.784816 0.135389
v -0.074110 -0.793100 0.134762
v -0.089126 -0.792926 0.131173
v -0.089126 -0.784558 0.131807
v -0.087228 -0.776522 0.108360
v -0.087228 -0.783139 0.106673
v -0.075130 -0.783602 0.109511
v -0.075130 -0.777051 0.111181
v -0.072795 -0.774319 0.098949
v -0.072795 -0.782291 0.096917
v -0.087515 -0.781728 0.093463
v -0.087515 -0.773676 0.095516
v -0.079909 -0.771367 0.081363
v -0.079909 -0.779419 0.079310
v -0.072064 -0.779924 0.082405
v -0.072064 -0.771952 0.084437
v -0.074960 -0.772328 0.071823
v -0.074960 -0.775603 0.070988
v -0.078183 -0.775395 0.069716
v -0.078183 -0.772087 0.070560
v -0.090039 -0.771056 0.061947
v -0.090039 -0.773650 0.061286
v -0.087511 -0.773813 0.062283
v -0.087511 -0.771244 0.062938
v -0.086827 -0.771952 0.084437
v -0.086827 -0.779924 0.082405
v -0.094672 -0.779419 0.079310
v -0.094672 -0.771367 0.081363
v -0.095623 -0.776878 0.097775
v -0.095623 -0.779516 0.097102
v -0.090801 -0.779700 0.098234
v -0.090801 -0.777089 0.098900
v -0.095500 -0.784864 0.119801
v -0.095500 -0.791538 0.119295
v -0.100041 -0.791552 0.119597
v -0.100041 -0.784812 0.120108
v -0.105000 -0.786292 0.132403
v -0.105000 -0.791279 0.132025
v -0.096050 -0.791383 0.134164
v -0.096050 -0.786446 0.134538
v -0.106062 -0.786347 0.129221
v -0.106062 -0.790968 0.128871
v -0.114440 -0.790872 0.126869
v -0.114440 -0.786203 0.127222
v -0.109798 -0.784817 0.115713
v -0.109798 -0.791127 0.115235
v -0.105547 -0.791114 0.114952
v -0.105547 -0.784866 0.115425
v -0.101148 -0.777588 0.095859
v -0.101148 -0.780032 0.095235
v -0.105662 -0.779860 0.094176
v -0.105662 -0.777390 0.094806
v -0.104772 -0.772231 0.079442
v -0.104772 -0.779768 0.077520
v -0.097428 -0.780241 0.080418
v -0.097428 -0.772779 0.082320
v -0.098068 -0.772116 0.062194
v -0.098068 -0.774521 0.061581
v -0.100435 -0.774368 0.060647
v -0.100435 -0.771940 0.061266
v -0.105623 -0.773879 0.060243
v -0.105623 -0.775944 0.059716
v -0.103611 -0.776073 0.060510
v -0.103611 -0.774029 0.061031
v -0.106195 -0.774592 0.080417
v -0.106195 -0.780938 0.078800
v -0.112440 -0.780536 0.076336
v -0.112440 -0.774126 0.077970
v -0.115317 -0.778514 0.091035
v -0.115317 -0.780614 0.090500
v -0.111478 -0.780760 0.091400
v -0.111478 -0.778681 0.091930
v -0.115219 -0.784871 0.108569
v -0.115219 -0.790184 0.108166
v -0.118834 -0.790195 0.108407
v -0.118834 -0.784829 0.108813
v -0.124870 -0.786130 0.116213
v -0.124870 -0.790060 0.115916
v -0.134012 -0.789978 0.113582
v -0.134012 -0.786008 0.113883
v -0.127542 -0.784829 0.102455
v -0.127542 -0.790195 0.102049
v -0.121706 -0.790184 0.103196
v -0.121706 -0.784871 0.103598
v -0.117965 -0.778681 0.086960
v -0.117965 -0.780760 0.086430
v -0.122208 -0.780614 0.085655
v -0.122208 -0.778514 0.086191
v -0.123369 -0.774126 0.068584
v -0.123369 -0.780536 0.066950
v -0.111472 -0.780938 0.072189
v -0.111472 -0.774592 0.073807
v -0.107874 -0.772764 0.055745
v -0.107874 -0.777524 0.054532
v -0.112558 -0.777222 0.052684
v -0.112558 -0.772414 0.053909
v -0.134409 -0.786008 0.116530
v -0.134409 -0.789978 0.116229
v -0.125266 -0.790060 0.118563
v -0.125266 -0.786130 0.118860
v -0.126508 -0.787867 0.131669
v -0.126508 -0.789648 0.131534
v -0.135590 -0.789611 0.129248
v -0.135590 -0.787812 0.129384
v -0.138182 -0.789692 0.143305
v -0.138182 -0.792145 0.143119
v -0.140001 -0.792877 0.152219
v -0.140001 -0.790585 0.152392
v -0.137205 -0.790651 0.153743
v -0.137205 -0.792943 0.153569
v -0.127018 -0.792196 0.141270
v -0.127018 -0.789767 0.141454
v -0.121943 -0.789767 0.151218
v -0.121943 -0.792196 0.151034
v -0.125873 -0.792943 0.163460
v -0.125873 -0.790651 0.163634
v -0.128669 -0.790585 0.162283
v -0.128669 -0.792877 0.162109
v -0.126346 -0.792145 0.149982
v -0.126346 -0.789692 0.150168
v -0.123249 -0.787812 0.135869
v -0.123249 -0.789611 0.135732
v -0.120020 -0.789648 0.136504
v -0.120020 -0.787867 0.136639
v -0.114838 -0.786203 0.129869
v -0.114838 -0.790872 0.129516
v -0.106460 -0.790968 0.131518
v -0.106460 -0.786347 0.131868
v -0.111124 -0.788389 0.147968
v -0.111124 -0.790484 0.147810
v -0.114920 -0.790440 0.146902
v -0.114920 -0.788324 0.147062
v -0.118562 -0.790535 0.163878
v -0.118562 -0.793420 0.163659
v -0.121294 -0.794281 0.177920
v -0.121294 -0.791586 0.178124
v -0.118006 -0.791663 0.179713
v -0.118006 -0.794358 0.179509
v -0.113385 -0.793480 0.164896
v -0.113385 -0.790624 0.165113
v -0.103845 -0.791014 0.172698
v -0.103845 -0.794065 0.172467
v -0.108782 -0.795004 0.188076
v -0.108782 -0.792125 0.188294
v -0.112294 -0.792042 0.186597
v -0.112294 -0.794921 0.186379
v -0.109376 -0.794001 0.171145
v -0.109376 -0.790920 0.171379
v -0.105486 -0.788558 0.153416
v -0.105486 -0.790818 0.153245
v -0.101430 -0.790865 0.154214
v -0.101430 -0.788628 0.154384
v -0.096448 -0.786446 0.137185
v -0.096448 -0.791383 0.136811
v -0.105397 -0.791279 0.134672
v -0.105397 -0.786292 0.135050
v -0.105254 -0.785699 0.131095
v -0.105254 -0.791651 0.130644
v -0.116043 -0.791526 0.128066
v -0.116043 -0.785514 0.128521
v -0.116231 -0.785490 0.128904
v -0.116231 -0.791549 0.128445
v -0.105356 -0.791675 0.131044
v -0.105356 -0.785676 0.131499
v -0.115070 -0.786136 0.122484
v -0.115070 -0.791190 0.122101
v -0.124230 -0.791084 0.119912
v -0.124230 -0.785980 0.120299
v -0.124071 -0.786000 0.119976
v -0.124071 -0.791064 0.119592
v -0.114984 -0.791170 0.121764
v -0.114984 -0.786156 0.122144
v -0.115999 -0.786702 0.122795
v -0.115999 -0.790595 0.122500
v -0.123056 -0.790513 0.120814
v -0.123056 -0.786581 0.121112
v -0.122722 -0.786581 0.118882
v -0.122722 -0.790513 0.118584
v -0.115664 -0.790595 0.120271
v -0.115664 -0.786702 0.120566
v -0.135995 -0.785296 0.115454
v -0.135995 -0.790654 0.115048
v -0.123657 -0.790765 0.118197
v -0.123657 -0.785461 0.118599
v -0.122825 -0.785207 0.118494
v -0.122825 -0.791032 0.118053
v -0.136377 -0.790910 0.114594
v -0.136377 -0.785026 0.115040
v -0.094403 -0.785580 0.136190
v -0.094403 -0.792295 0.135682
v -0.106576 -0.792154 0.132772
v -0.106576 -0.785371 0.133286
v -0.106906 -0.785062 0.132854
v -0.106906 -0.792319 0.132304
v -0.093883 -0.792470 0.135416
v -0.093883 -0.785286 0.135961
v -0.089432 -0.784558 0.136011
v -0.089432 -0.792926 0.135377
v -0.074415 -0.793100 0.138966
v -0.074415 -0.784816 0.139593
v -0.077737 -0.785936 0.151546
v -0.077737 -0.793137 0.151000
v -0.090791 -0.792986 0.147880
v -0.090791 -0.785712 0.148431
v -0.094214 -0.789238 0.172357
v -0.094214 -0.795599 0.171875
v -0.095452 -0.796362 0.187605
v -0.095452 -0.790580 0.188043
v -0.088399 -0.790746 0.191450
v -0.088399 -0.796527 0.191012
v -0.082797 -0.795731 0.174604
v -0.082797 -0.789433 0.175081
v -0.091826 -0.783310 0.133509
v -0.091826 -0.794316 0.132675
v -0.072074 -0.794545 0.137395
v -0.072074 -0.783648 0.138221
v -0.071932 -0.783600 0.137187
v -0.071932 -0.794380 0.136370
v -0.091473 -0.794154 0.131700
v -0.091473 -0.783266 0.132525
vn -0.6300 -0.7457 -0.2167
vn -0.6197 -0.5310 -0.5779
vn 0.5496 -0.5281 -0.6473
vn 0.6683 -0.7182 -0.1940
vn 0.7485 0.6375 -0.1827
vn 0.5511 0.7003 -0.4538
vn -0.5614 0.7052 -0.4330
vn -0.6805 0.6998 -0.2172
vn -0.5948 0.2446 -0.7658
vn 0.4547 0.2745 -0.8473
vn 0.4853 -0.1164 -0.8666
vn -0.5509 -0.1489 -0.8212
vn -0.6383 0.7693 -0.0260
vn 0.6883 0.7149 0.1234
vn 0.7094 -0.6760 0.1995
vn -0.7205 -0.6934 0.0089
vn -0.6769 -0.5426 0.4974
vn 0.5366 -0.5676 0.6244
vn 0.5519 0.4761 0.6846
vn -0.6696 0.4476 0.5928
vn -0.6433 -0.7241 -0.2485
vn -0.5081 -0.6627 -0.5501
vn 0.4348 -0.6546 -0.6184
vn 0.6646 -0.7130 -0.2234
vn -0.6433 0.7241 -0.2485
vn -0.5081 0.6627 -0.5501
vn 0.4348 0.6546 -0.6184
vn 0.6646 0.7130 -0.2234
vn 0.6277 0.7662 -0.1375
vn -0.6505 0.7461 -0.1424
vn 0.6418 -0.7297 -0.2359
vn -0.6572 -0.7120 -0.2471
vn -0.7608 -0.5843 0.2823
vn -0.3045 -0.7952 0.5243
vn -0.7802 0.5330 0.3273
vn -0.3081 0.7075 0.6360
vn 0.4115 0.5595 0.7194
vn 0.3920 -0.6247 0.6753
vn 0.7541 -0.6478 -0.1083
vn 0.7519 0.6587 -0.0286
vn 0.6857 0.6430 -0.3410
vn 0.5917 -0.5847 -0.5550
vn -0.3362 -0.6551 -0.6766
vn -0.5170 0.7430 -0.4251
vn -0.6953 0.6977 0.1727
vn -0.7292 -0.6622 -0.1724
vn 0.7245 -0.6789 -0.1196
vn 0.6538 0.7123 0.2552
vn 0.7168 0.6638 0.2133
vn 0.7058 -0.7083 -0.0123
vn -0.7459 -0.6144 -0.2572
vn -0.7310 0.6810 -0.0429
vn -0.5404 0.8278 -0.1505
vn -0.5667 -0.7131 -0.4128
vn 0.7299 -0.6487 -0.2156
vn 0.7233 0.6905 0.0053
vn 0.6207 0.6527 -0.4344
vn 0.6508 -0.4122 -0.6376
vn -0.4800 -0.3721 -0.7944
vn -0.4469 0.6860 -0.5742
vn -0.4052 0.7221 -0.5607
vn -0.4377 -0.4160 -0.7971
vn 0.7079 -0.4519 -0.5428
vn 0.6799 0.6486 -0.3423
vn 0.7061 0.6761 0.2104
vn 0.6944 -0.7194 -0.0188
vn -0.6888 -0.6918 -0.2167
vn -0.6765 0.7362 0.0179
vn -0.7083 0.6876 0.1597
vn -0.7608 -0.6029 -0.2402
vn 0.7521 -0.6584 0.0299
vn 0.6644 0.6355 0.3933
vn 0.7093 0.6551 0.2601
vn 0.6354 -0.7603 -0.1352
vn -0.5708 -0.7587 -0.3138
vn -0.6922 0.7202 -0.0469
vn -0.3909 0.6484 -0.6533
vn -0.4022 -0.5849 -0.7043
vn 0.6121 -0.6103 -0.5029
vn 0.6145 0.6455 -0.4536
vn 0.7190 0.6675 -0.1935
vn 0.7071 -0.6686 -0.2304
vn -0.5074 -0.6849 -0.5230
vn -0.4930 0.7226 -0.4845
vn 0.7520 -0.6584 0.0299
vn -0.6888 -0.6917 -0.2167
vn 0.6799 0.6485 -0.3423
vn -0.4378 -0.4160 -0.7971
vn -0.4052 0.7222 -0.5606
vn -0.3357 0.7401 -0.5827
vn -0.3657 -0.4437 -0.8182
vn 0.7492 -0.4700 -0.4666
vn 0.7310 0.6207 -0.2834
vn 0.6852 0.6612 0.3055
vn 0.6658 -0.7414 0.0837
vn -0.6762 -0.6774 -0.2897
vn -0.6490 0.7583 -0.0609
vn -0.7180 0.6899 0.0921
vn -0.7662 -0.5673 -0.3018
vn 0.7115 -0.6988 0.0739
vn 0.6184 0.6473 0.4457
vn 0.7011 0.6575 0.2759
vn 0.6435 -0.7506 -0.1503
vn -0.5769 -0.7455 -0.3338
vn -0.6946 0.7191 -0.0186
vn 0.6483 0.7373 -0.1900
vn 0.6393 -0.7362 -0.2222
vn -0.4530 -0.6736 -0.5840
vn -0.4385 0.7144 -0.5452
vn -0.6745 0.7267 -0.1302
vn -0.5197 -0.7591 -0.3920
vn 0.6657 -0.7450 -0.0439
vn 0.7087 0.6293 0.3189
vn 0.5930 0.6750 0.4391
vn 0.7124 -0.6963 0.0869
vn -0.7180 -0.6478 -0.2544
vn -0.6699 0.7238 0.1655
vn -0.7338 0.6743 -0.0825
vn -0.7325 -0.6223 -0.2761
vn 0.6577 -0.7410 0.1357
vn 0.6707 0.6555 0.3472
vn 0.7267 0.6432 -0.2413
vn 0.7587 -0.4944 -0.4242
vn -0.2249 -0.4957 -0.8389
vn -0.2241 0.7903 -0.5703
vn -0.5654 0.5881 0.5783
vn -0.5629 -0.6403 0.5227
vn 0.2628 -0.7150 0.6478
vn 0.2642 0.6483 0.7140
vn 0.6870 0.7092 0.1584
vn 0.7395 -0.6731 -0.0123
vn -0.7190 -0.6765 -0.1595
vn -0.6965 0.7174 0.0125
vn -0.4536 0.8910 0.0184
vn -0.4038 -0.8952 -0.1888
vn -0.2735 -0.8297 0.4867
vn -0.2541 0.7449 0.6169
vn 0.1909 0.6177 0.7629
vn 0.1699 -0.7360 0.6553
vn 0.6978 -0.6976 0.1628
vn 0.7324 0.5905 0.3389
vn 0.7128 0.6646 0.2242
vn 0.7032 -0.7072 0.0737
vn 0.3619 -0.6916 0.6250
vn 0.3727 0.5913 0.7152
vn -0.2681 0.7517 0.6026
vn -0.2599 -0.8290 0.4951
vn -0.3897 -0.9013 -0.1890
vn -0.4657 0.8849 -0.0116
vn -0.6713 0.7412 0.0060
vn -0.7081 -0.6965 -0.1156
vn 0.7000 -0.7056 0.1103
vn 0.6553 0.7236 0.2168
vn -0.5995 0.6313 0.4921
vn -0.6028 -0.6617 0.4459
vn 0.4162 -0.6888 0.5936
vn 0.4275 0.6368 0.6416
vn 0.6582 0.7160 0.2327
vn 0.6980 -0.7098 0.0949
vn -0.6993 -0.7036 -0.1261
vn -0.6792 0.7336 0.0238
vn 0.3727 0.5913 0.7151
vn 0.3619 -0.6916 0.6251
vn -0.3898 -0.9013 -0.1890
vn -0.6791 0.7336 0.0238
vn -0.6994 -0.7036 -0.1261
vn 0.3779 0.6443 0.6649
vn 0.3659 -0.7182 0.5918
vn -0.6411 -0.6551 0.3998
vn -0.6459 0.6065 0.4636
vn 0.7621 0.6464 -0.0384
vn 0.7507 -0.6537 -0.0955
vn -0.7144 -0.6333 -0.2976
vn -0.7142 0.6580 -0.2387
vn -0.7658 0.6270 0.1430
vn -0.7773 -0.6226 0.0905
vn 0.6400 -0.6805 0.3569
vn 0.6415 0.6481 0.4104
vn 0.6415 0.6481 0.4103
vn 0.6400 -0.6805 0.3568
vn -0.7772 -0.6227 0.0906
vn -0.7657 0.6271 0.1431
vn -0.7143 -0.6334 -0.2977
vn 0.7506 -0.6538 -0.0954
vn 0.7620 0.6464 -0.0385
vn 0.4393 0.6374 0.6330
vn 0.4055 -0.6879 0.6019
vn -0.5963 -0.6627 0.4531
vn -0.6063 0.6348 0.4790
vn -0.5072 0.7223 -0.4702
vn -0.4973 -0.6891 -0.5270
vn 0.7002 -0.6705 -0.2453
vn 0.7265 0.6632 -0.1800
vn -0.7757 0.6200 0.1181
vn -0.7851 -0.6160 0.0648
vn 0.6856 -0.6533 0.3212
vn 0.6834 0.6264 0.3749
vn 0.7842 0.6177 0.0588
vn 0.7783 -0.6278 -0.0005
vn -0.7356 -0.6278 -0.2546
vn -0.7363 0.6481 -0.1944
vn 0.7257 0.6316 0.2727
vn 0.7250 -0.6551 0.2127
vn -0.7597 -0.6503 0.0067
vn -0.7490 0.6593 0.0660
vn -0.6823 0.6834 -0.2596
vn -0.6894 -0.6469 -0.3259
vn 0.7718 -0.6316 -0.0728
vn 0.7749 0.6320 -0.0124
vn -0.6347 0.6946 0.3385
vn -0.6440 -0.7043 0.2988
vn 0.4993 -0.7162 0.4875
vn 0.5106 0.6791 0.5274
vn 0.6594 0.7096 0.2482
vn 0.6866 -0.7153 0.1300
vn -0.7109 -0.6917 -0.1276
vn -0.6957 0.7183 -0.0014
vn -0.4873 0.8726 0.0315
vn -0.4283 -0.8939 -0.1321
vn -0.2486 -0.8449 0.4736
vn -0.2568 0.7709 0.5829
vn 0.3608 0.5893 0.7229
vn 0.3509 -0.6902 0.6329
vn 0.6858 -0.7158 0.1317
vn 0.6928 0.6688 0.2698
vn -0.7642 0.6392 0.0865
vn -0.7645 -0.6441 0.0243
vn 0.6966 -0.6724 0.2503
vn 0.7055 0.6338 0.3172
vn 0.7631 0.6392 -0.0958
vn 0.7509 -0.6435 -0.1484
vn -0.6876 -0.6341 -0.3537
vn -0.6877 0.6620 -0.2979
vt 0.000000 0.000000
vt 1.000000 0.000000
vt 1.000000 1.000000
vt 0.000000 1.000000
s 1
usemtl skeleton
f 8/1/8 7/2/7 2/3/2 1/4/1
f 6/1/6 5/2/5 4/3/4 3/4/3
f 7/1/7 6/2/6 10/3/10 9/4/9
f 6/1/6 3/2/3 11/3/11 10/4/10
f 3/1/3 2/2/2 12/3/12 11/4/11
f 2/1/2 7/2/7 9/3/9 12/4/12
f 9/1/9 10/2/10 11/3/11 12/4/12
f 5/1/5 6/2/6 7/3/7 8/4/8
f 1/1/1 2/2/2 3/3/3 4/4/4
f 5/1/5 8/2/8 13/3/13 14/4/14
f 4/1/4 5/2/5 14/3/14 15/4/15
f 8/1/8 1/2/1 16/3/16 13/4/13
f 1/1/1 4/2/4 15/3/15 16/4/16
f 16/1/16 15/2/15 18/3/18 17/4/17
f 13/1/13 16/2/16 17/3/17 20/4/20
f 15/1/15 14/2/14 19/3/19 18/4/18
f 14/1/14 13/2/13 20/3/20 19/4/19
f 19/1/19 20/2/20 17/3/17 18/4/18
f 23/1/23 24/2/24 21/3/21 22/4/22
f 25/1/25 28/2/28 27/3/27 26/4/26
f 21/1/21 25/2/25 26/3/26 22/4/22
f 22/1/22 26/2/26 27/3/27 23/4/23
f 23/1/23 27/2/27 28/3/28 24/4/24
f 24/1/24 28/2/28 29/3/29 31/4/31
f 25/1/25 21/2/21 32/3/32 30/4/30
f 28/1/28 25/2/25 30/3/30 29/4/29
f 21/1/21 24/2/24 31/3/31 32/4/32
f 32/1/32 31/2/31 34/3/34 33/4/33
f 29/1/29 30/2/30 35/3/35 36/4/36
f 30/1/30 32/2/32 33/3/33 35/4/35
f 34/1/34 36/2/36 35/3/35 33/4/33
f 36/1/36 34/2/34 38/3/38 37/4/37
f 29/1/29 36/2/36 37/3/37 40/4/40
f 34/1/34 31/2/31 39/3/39 38/4/38
f 31/1/31 29/2/29 40/3/40 39/4/39
f 39/1/39 40/2/40 37/3/37 38/4/38
f 43/1/43 44/2/44 45/3/45 46/4/46
f 44/1/44 41/2/41 48/3/48 45/4/45
f 42/1/42 43/2/43 46/3/46 47/4/47
f 41/1/41 42/2/42 47/3/47 48/4/48
f 48/1/48 47/2/47 50/3/50 49/4/49
f 47/1/47 46/2/46 51/3/51 50/4/50
f 45/1/45 48/2/48 49/3/49 52/4/52
f 46/1/46 45/2/45 52/3/52 51/4/51
f 51/1/51 52/2/52 53/3/53 54/4/54
f 52/1/52 49/2/49 56/3/56 53/4/53
f 50/1/50 51/2/51 54/3/54 55/4/55
f 49/1/49 50/2/50 55/3/55 56/4/56
f 56/1/56 55/2/55 58/3/58 57/4/57
f 55/1/55 54/2/54 59/3/59 58/4/58
f 53/1/53 56/2/56 57/3/57 60/4/60
f 54/1/54 53/2/53 60/3/60 59/4/59
f 59/1/59 60/2/60 57/3/57 58/4/58
f 62/1/62 61/2/61 64/3/64 63/4/63
f 67/1/67 68/2/68 61/3/61 62/4/62
f 68/1/68 65/2/65 64/3/64 61/4/61
f 66/1/66 67/2/67 62/3/62 63/4/63
f 65/1/65 66/2/66 63/3/63 64/4/64
f 72/1/72 71/2/71 66/3/66 65/4/65
f 71/1/71 70/2/70 67/3/67 66/4/66
f 69/1/69 72/2/72 65/3/65 68/4/68
f 70/1/70 69/2/69 68/3/68 67/4/67
f 75/1/75 76/2/76 69/3/69 70/4/70
f 76/1/76 73/2/73 72/3/72 69/4/69
f 74/1/74 75/2/75 70/3/70 71/4/71
f 73/1/73 74/2/74 71/3/71 72/4/72
f 80/1/80 79/2/79 74/3/74 73/4/73
f 79/1/79 78/2/78 75/3/75 74/4/74
f 77/1/77 80/2/80 73/3/73 76/4/76
f 78/1/78 77/2/77 76/3/76 75/4/75
f 83/1/83 84/2/84 85/3/76 86/4/75
f 84/1/84 81/2/81 88/3/73 85/4/76
f 82/1/82 83/2/83 86/3/75 87/4/74
f 81/1/81 82/2/82 87/3/74 88/4/73
f 88/1/73 87/2/74 90/3/85 89/4/72
f 87/1/74 86/2/75 91/3/70 90/4/85
f 85/1/76 88/2/73 89/3/72 92/4/69
f 86/1/75 85/2/76 92/3/69 91/4/70
f 91/1/70 92/2/69 93/3/68 94/4/86
f 92/1/69 89/2/72 96/3/65 93/4/68
f 90/1/85 91/2/70 94/3/86 95/4/66
f 89/1/72 90/2/85 95/3/66 96/4/65
f 96/1/65 95/2/66 98/3/63 97/4/87
f 95/1/66 94/2/86 99/3/88 98/4/63
f 93/1/68 96/2/65 97/3/87 100/4/89
f 94/1/86 93/2/68 100/3/89 99/4/88
f 99/1/88 100/2/89 97/3/87 98/4/63
f 102/1/91 101/2/90 104/3/93 103/4/92
f 107/1/96 108/2/97 101/3/90 102/4/91
f 108/1/97 105/2/94 104/3/93 101/4/90
f 106/1/95 107/2/96 102/3/91 103/4/92
f 105/1/94 106/2/95 103/3/92 104/4/93
f 112/1/101 111/2/100 106/3/95 105/4/94
f 111/1/100 110/2/99 107/3/96 106/4/95
f 109/1/98 112/2/101 105/3/94 108/4/97
f 110/1/99 109/2/98 108/3/97 107/4/96
f 115/1/104 116/2/105 109/3/98 110/4/99
f 116/1/105 113/2/102 112/3/101 109/4/98
f 114/1/103 115/2/104 110/3/99 111/4/100
f 113/1/102 114/2/103 111/3/100 112/4/101
f 220/1/193 219/2/192 114/3/103 113/4/102
f 219/1/192 218/2/191 115/3/104 114/4/103
f 217/1/190 220/2/193 113/3/102 116/4/105
f 218/1/191 217/2/190 116/3/105 115/4/104
f 119/1/108 120/2/109 121/3/110 122/4/111
f 120/1/109 117/2/106 124/3/113 121/4/110
f 118/1/107 119/2/108 122/3/111 123/4/112
f 117/1/106 118/2/107 123/3/112 124/4/113
f 124/1/113 123/2/112 126/3/115 125/4/114
f 123/1/112 122/2/111 127/3/116 126/4/115
f 121/1/110 124/2/113 125/3/114 128/4/117
f 122/1/111 121/2/110 128/3/117 127/4/116
f 127/1/116 128/2/117 129/3/118 130/4/119
f 128/1/117 125/2/114 132/3/121 129/4/118
f 126/1/115 127/2/116 130/3/119 131/4/120
f 125/1/114 126/2/115 131/3/120 132/4/121
f 132/1/121 131/2/120 134/3/123 133/4/122
f 131/1/120 130/2/119 135/3/124 134/4/123
f 129/1/118 132/2/121 133/3/122 136/4/125
f 130/1/119 129/2/118 136/3/125 135/4/124
f 135/1/124 136/2/125 133/3/122 134/4/123
f 143/1/132 144/2/133 137/3/126 138/4/127
f 144/1/133 141/2/130 140/3/129 137/4/126
f 142/1/131 143/2/132 138/3/127 139/4/128
f 141/1/130 142/2/131 139/3/128 140/4/129
f 152/1/141 151/2/140 142/3/131 141/4/130
f 151/1/140 146/2/135 143/3/132 142/4/131
f 145/1/134 152/2/141 141/3/130 144/4/133
f 146/1/135 145/2/134 144/3/133 143/4/132
f 148/1/137 147/2/136 150/3/139 149/4/138
f 145/1/134 148/2/137 149/3/138 152/4/141
f 147/1/136 146/2/135 151/3/140 150/4/139
f 151/1/140 152/2/141 149/3/138 150/4/139
f 154/1/143 153/2/142 156/3/145 155/4/144
f 158/1/147 159/2/148 154/3/143 155/4/144
f 160/1/149 157/2/146 156/3/145 153/4/142
f 157/1/146 158/2/147 155/3/144 156/4/145
f 159/1/148 160/2/149 161/3/150 162/4/151
f 160/1/149 153/2/142 164/3/153 161/4/150
f 154/1/143 159/2/148 162/3/151 163/4/152
f 153/1/142 154/2/143 163/3/152 164/4/153
f 164/1/153 163/2/152 214/3/187 213/4/186
f 163/1/152 162/2/151 215/3/188 214/4/187
f 161/1/150 164/2/153 213/3/186 216/4/189
f 162/1/151 161/2/150 216/3/189 215/4/188
f 171/1/160 172/2/161 165/3/154 166/4/155
f 172/1/161 169/2/158 168/3/157 165/4/154
f 170/1/159 171/2/160 166/3/155 167/4/156
f 169/1/158 170/2/159 167/3/156 168/4/157
f 180/1/142 179/2/143 170/3/159 169/4/158
f 179/1/143 174/2/148 171/3/160 170/4/159
f 173/1/149 180/2/142 169/3/158 172/4/161
f 174/1/148 173/2/149 172/3/161 171/4/160
f 176/1/146 175/2/147 178/3/163 177/4/162
f 173/1/149 176/2/146 177/3/162 180/4/142
f 175/1/147 174/2/148 179/3/143 178/4/163
f 179/1/143 180/2/142 177/3/162 178/4/163
f 182/1/143 181/2/142 184/3/145 183/4/163
f 186/1/147 187/2/164 182/3/143 183/4/163
f 188/1/149 185/2/146 184/3/145 181/4/142
f 185/1/146 186/2/147 183/3/163 184/4/145
f 187/1/164 188/2/149 189/3/165 190/4/166
f 188/1/149 181/2/142 192/3/158 189/4/165
f 182/1/143 187/2/164 190/3/166 191/4/159
f 181/1/142 182/2/143 191/3/159 192/4/158
f 192/1/158 191/2/159 194/3/168 193/4/167
f 191/1/159 190/2/166 195/3/169 194/4/168
f 189/1/165 192/2/158 193/3/167 196/4/170
f 190/1/166 189/2/165 196/3/170 195/4/169
f 168/1/157 167/2/156 198/3/172 197/4/171
f 167/1/156 166/2/155 199/3/173 198/4/172
f 165/1/154 168/2/157 197/3/171 200/4/174
f 166/1/155 165/2/154 200/3/174 199/4/173
f 200/1/174 197/2/171 198/3/172 199/4/173
f 84/1/84 83/2/83 202/3/176 201/4/175
f 81/1/81 84/2/84 201/3/175 204/4/178
f 83/1/83 82/2/82 203/3/177 202/4/176
f 82/1/82 81/2/81 204/3/178 203/4/177
f 204/1/178 201/2/175 202/3/176 203/4/177
f 205/1/179 208/2/182 207/3/181 206/4/180
f 219/1/192 220/2/193 205/3/179 206/4/180
f 218/1/191 219/2/192 206/3/180 207/4/181
f 220/1/193 217/2/190 208/3/182 205/4/179
f 217/1/190 218/2/191 207/3/181 208/4/182
f 209/1/174 212/2/185 211/3/184 210/4/183
f 215/1/188 216/2/189 209/3/174 210/4/183
f 216/1/189 213/2/186 212/3/185 209/4/174
f 214/1/187 215/2/188 210/3/183 211/4/184
f 213/1/186 214/2/187 211/3/184 212/4/185
f 120/1/109 119/2/108 222/3/195 221/4/194
f 117/1/106 120/2/109 221/3/194 224/4/197
f 119/1/108 118/2/107 223/3/196 222/4/195
f 118/1/107 117/2/106 224/3/197 223/4/196
f 224/1/197 221/2/194 222/3/195 223/4/196
f 140/1/129 139/2/128 226/3/199 225/4/198
f 139/1/128 138/2/127 227/3/200 226/4/199
f 137/1/126 140/2/129 225/3/198 228/4/201
f 138/1/127 137/2/126 228/3/201 227/4/200
f 228/1/201 225/2/198 226/3/199 227/4/200
f 79/1/79 80/2/80 229/3/202 230/4/203
f 78/1/78 79/2/79 230/3/203 231/4/204
f 80/1/80 77/2/77 232/3/205 229/4/202
f 77/1/77 78/2/78 231/3/204 232/4/205
f 232/1/205 231/2/204 230/3/203 229/4/202
f 195/1/169 196/2/170 233/3/206 234/4/207
f 196/1/170 193/2/167 236/3/209 233/4/206
f 194/1/168 195/2/169 234/3/207 235/4/208
f 193/1/167 194/2/168 235/3/208 236/4/209
f 236/1/209 235/2/208 234/3/207 233/4/206
f 243/1/216 244/2/217 237/3/210 238/4/211
f 244/1/217 241/2/214 240/3/213 237/4/210
f 242/1/215 243/2/216 238/3/211 239/4/212
f 241/1/214 242/2/215 239/3/212 240/4/213
f 252/1/225 251/2/224 242/3/215 241/4/214
f 251/1/224 246/2/219 243/3/216 242/4/215
f 245/1/218 252/2/225 241/3/214 244/4/217
f 246/1/219 245/2/218 244/3/217 243/4/216
f 248/1/221 247/2/220 250/3/223 249/4/222
f 245/1/218 248/2/221 249/3/222 252/4/225
f 247/1/220 246/2/219 251/3/224 250/4/223
f 251/1/224 252/2/225 249/3/222 250/4/223
f 44/1/44 43/2/43 254/3/227 253/4/226
f 41/1/41 44/2/44 253/3/226 256/4/229
f 43/1/43 42/2/42 255/3/228 254/4/227
f 42/1/42 41/2/41 256/3/229 255/4/228
f 256/1/229 253/2/226 254/3/227 255/4/228
f 240/1/213 239/2/212 258/3/231 257/4/230
f 239/1/212 238/2/211 259/3/232 258/4/231
f 237/1/210 240/2/213 257/3/230 260/4/233
f 238/1/211 237/2/210 260/3/233 259/4/232
f 260/1/233 257/2/230 258/3/231 259/4/232
