# Blender 4.4.0
# www.blender.org
mtllib rForeArm.mtl
o rForeArm
v -0.377495 0.528120 -0.062699
v -0.375471 0.528273 -0.048159
v -0.421457 0.532779 -0.041807
v -0.423480 0.532625 -0.056347
v -0.374370 0.506446 -0.062905
v -0.372346 0.506599 -0.048364
v -0.422888 0.521308 -0.041486
v -0.424912 0.521154 -0.056027
v -0.344415 0.514215 -0.039501
v -0.349403 0.514024 -0.067468
v -0.342733 0.526700 -0.039867
v -0.347721 0.526509 -0.067834
v -0.339863 0.525722 -0.069612
v -0.342029 0.526328 -0.052729
v -0.341371 0.509792 -0.069234
v -0.343538 0.510398 -0.052351
v -0.330248 0.509059 -0.055761
v -0.329894 0.508672 -0.070644
v -0.328535 0.527139 -0.056191
v -0.328182 0.526752 -0.071074
v -0.318530 0.523923 -0.060307
v -0.321644 0.526622 -0.050492
v -0.320039 0.507993 -0.059929
v -0.323357 0.508541 -0.050062
v -0.509972 0.521235 -0.048393
v -0.509759 0.521400 -0.040606
v -0.508540 0.532706 -0.048714
v -0.508328 0.532871 -0.040926
v -0.529748 0.532641 -0.039203
v -0.530243 0.532454 -0.049018
v -0.531180 0.521169 -0.038882
v -0.531674 0.520983 -0.048698
v -0.539067 0.517102 -0.049939
v -0.538212 0.517357 -0.035796
v -0.537208 0.533082 -0.050366
v -0.536354 0.533337 -0.036224
v -0.541010 0.533727 -0.038377
v -0.541196 0.533481 -0.049451
v -0.543131 0.514972 -0.037883
v -0.543317 0.514727 -0.048957
v -0.538788 0.515939 -0.032253
v -0.548694 0.520251 -0.008584
v -0.537556 0.521912 -0.032487
v -0.543550 0.524098 -0.009341
v -0.532867 0.522029 -0.008884
v -0.526809 0.520986 -0.028649
v -0.534069 0.518636 -0.008681
v -0.528011 0.517593 -0.028445
v -0.516592 0.516751 -0.027861
v -0.520641 0.517583 -0.008959
v -0.515305 0.519910 -0.028074
v -0.519354 0.520742 -0.009171
v -0.501962 0.521361 -0.010630
v -0.500244 0.520872 -0.024372
v -0.502561 0.516722 -0.010498
v -0.500843 0.516233 -0.024240
v -0.430455 0.506734 -0.030462
v -0.428431 0.506887 -0.015921
v -0.428105 0.522039 -0.030950
v -0.426081 0.522192 -0.016410
v -0.371988 0.506017 -0.029379
v -0.374011 0.505864 -0.043919
v -0.373409 0.500525 -0.029123
v -0.375432 0.500371 -0.043663
v -0.351182 0.489352 -0.054638
v -0.349159 0.489506 -0.040098
v -0.350851 0.510923 -0.054912
v -0.348827 0.511076 -0.040372
v -0.340278 0.504026 -0.044376
v -0.341513 0.503932 -0.053250
v -0.342655 0.492738 -0.043925
v -0.343891 0.492644 -0.052799
v -0.547452 0.524920 -0.022181
v -0.546152 0.524446 -0.027200
v -0.548567 0.524086 -0.022017
v -0.546419 0.523151 -0.027149
v -0.548904 0.520928 -0.044981
v -0.548828 0.521028 -0.040419
v -0.548030 0.528653 -0.045184
v -0.547954 0.528754 -0.040622
vn -0.0572 0.6968 -0.7150
vn 0.0261 0.7551 0.6551
vn 0.0896 0.7143 0.6941
vn -0.0457 0.7127 -0.6999
vn -0.0962 -0.7701 -0.6306
vn -0.0248 -0.8044 0.5935
vn -0.0384 -0.6363 0.7705
vn -0.1760 -0.6827 -0.7092
vn 0.4714 -0.5438 0.6943
vn -0.2700 -0.5694 -0.7764
vn 0.5370 0.5171 0.6665
vn -0.0843 0.7117 -0.6974
vn -0.1295 0.6594 -0.7406
vn 0.4434 0.8287 0.3416
vn -0.3426 -0.6881 -0.6396
vn -0.0517 -0.8919 0.4492
vn -0.1993 -0.7960 0.5716
vn 0.2104 -0.6574 -0.7236
vn -0.0371 0.8686 0.4941
vn 0.2910 0.6095 -0.7375
vn 0.8875 0.4185 -0.1927
vn 0.3080 0.5747 0.7582
vn 0.7155 -0.6824 -0.1498
vn 0.1741 -0.5606 0.8096
vn -0.0190 -0.7318 -0.6812
vn 0.0379 -0.6998 0.7134
vn -0.0333 0.7062 -0.7072
vn 0.0252 0.7302 0.6828
vn 0.1990 0.7379 0.6449
vn 0.1016 0.6914 -0.7153
vn 0.3759 -0.6380 0.6721
vn 0.2577 -0.6493 -0.7156
vn 0.2407 -0.6111 -0.7541
vn 0.1892 -0.5744 0.7964
vn 0.0508 0.6426 -0.7645
vn 0.0609 0.6411 0.7650
vn -0.3633 0.7700 0.5246
vn -0.3498 0.7070 -0.6146
vn -0.2480 -0.7792 0.5756
vn -0.2566 -0.7752 -0.5773
vn -0.2283 -0.7023 -0.6743
vn -0.7177 -0.2505 0.6497
vn 0.0438 0.5727 -0.8186
vn -0.1127 0.7914 0.6009
vn 0.0948 0.7250 0.6822
vn 0.2077 0.6829 -0.7004
vn -0.0190 -0.6430 0.7656
vn 0.1178 -0.7848 -0.6085
vn 0.0444 -0.7341 -0.6776
vn -0.0094 -0.6774 0.7355
vn 0.1357 0.6172 -0.7750
vn 0.0697 0.7085 0.7022
vn 0.0334 0.7315 0.6810
vn 0.0137 0.7205 -0.6933
vn 0.0007 -0.6801 0.7331
vn -0.0134 -0.7631 -0.6461
vn -0.1969 -0.7246 -0.6604
vn 0.0273 -0.6820 0.7309
vn -0.0062 0.7396 -0.6730
vn 0.2021 0.7215 0.6623
vn 0.3084 0.6150 0.7257
vn -0.2441 0.6708 -0.7003
vn 0.0965 -0.6493 0.7544
vn -0.4139 -0.6496 -0.6377
vn -0.0842 -0.7265 -0.6820
vn 0.2256 -0.7732 0.5927
vn 0.0506 0.7076 -0.7048
vn 0.3801 0.7584 0.5296
vn 0.6875 0.4750 0.5493
vn 0.5101 0.4615 -0.7259
vn 0.5764 -0.5694 0.5861
vn 0.3962 -0.5831 -0.7093
vn -0.3413 0.9379 -0.0620
vn -0.3538 0.8026 -0.4803
vn -0.9859 0.1101 -0.1261
vn -0.8205 -0.1370 -0.5550
vn -0.8986 -0.2336 -0.3713
vn -0.8425 -0.2144 0.4942
vn -0.8298 0.4009 -0.3882
vn -0.7737 0.4135 0.4799
vt 0.000000 0.000000
vt 1.000000 0.000000
vt 1.000000 1.000000
vt 0.000000 1.000000
s 1
usemtl skeleton
f 3/1/3 2/2/2 1/3/1 4/4/4
f 5/1/5 6/2/6 7/3/7 8/4/8
f 2/1/2 3/2/3 7/3/7 6/4/6
f 4/1/4 1/2/1 5/3/5 8/4/8
f 1/1/1 12/2/12 10/3/10 5/4/5
f 6/1/6 9/2/9 11/3/11 2/4/2
f 5/1/5 10/2/10 9/3/9 6/4/6
f 2/1/2 11/2/11 12/3/12 1/4/1
f 11/1/11 14/2/14 13/3/13 12/4/12
f 10/1/10 15/2/15 16/3/16 9/4/9
f 9/1/9 16/2/16 14/3/14 11/4/11
f 12/1/12 13/2/13 15/3/15 10/4/10
f 13/1/13 20/2/20 18/3/18 15/4/15
f 16/1/16 17/2/17 19/3/19 14/4/14
f 15/1/15 18/2/18 17/3/17 16/4/16
f 14/1/14 19/2/19 20/3/20 13/4/13
f 19/1/19 22/2/22 21/3/21 20/4/20
f 18/1/18 23/2/23 24/3/24 17/4/17
f 17/1/17 24/2/24 22/3/22 19/4/19
f 20/1/20 21/2/21 23/3/23 18/4/18
f 21/1/21 22/2/22 24/3/24 23/4/23
f 8/1/8 25/2/25 27/3/27 4/4/4
f 3/1/3 28/2/28 26/3/26 7/4/7
f 7/1/7 26/2/26 25/3/25 8/4/8
f 4/1/4 27/2/27 28/3/28 3/4/3
f 27/1/27 30/2/30 29/3/29 28/4/28
f 26/1/26 31/2/31 32/3/32 25/4/25
f 28/1/28 29/2/29 31/3/31 26/4/26
f 25/1/25 32/2/32 30/3/30 27/4/27
f 32/1/32 33/2/33 35/3/35 30/4/30
f 29/1/29 36/2/36 34/3/34 31/4/31
f 31/1/31 34/2/34 33/3/33 32/4/32
f 30/1/30 35/2/35 36/3/36 29/4/29
f 35/1/35 38/2/38 37/3/37 36/4/36
f 34/1/34 39/2/39 40/3/40 33/4/33
f 36/1/36 37/2/37 39/3/39 34/4/34
f 33/1/33 40/2/40 38/3/38 35/4/35
f 48/1/48 41/2/41 43/3/43 46/4/46
f 45/1/45 44/2/44 42/3/42 47/4/47
f 47/1/47 42/2/42 41/3/41 48/4/48
f 46/1/46 43/2/43 44/3/44 45/4/45
f 51/1/51 46/2/46 45/3/45 52/4/52
f 50/1/50 47/2/47 48/3/48 49/4/49
f 52/1/52 45/2/45 47/3/47 50/4/50
f 49/1/49 48/2/48 46/3/46 51/4/51
f 56/1/56 49/2/49 51/3/51 54/4/54
f 53/1/53 52/2/52 50/3/50 55/4/55
f 55/1/55 50/2/50 49/3/49 56/4/56
f 54/1/54 51/2/51 52/3/52 53/4/53
f 59/1/59 54/2/54 53/3/53 60/4/60
f 58/1/58 55/2/55 56/3/56 57/4/57
f 60/1/60 53/2/53 55/3/55 58/4/58
f 57/1/57 56/2/56 54/3/54 59/4/59
f 60/1/60 61/2/61 62/3/62 59/4/59
f 57/1/57 64/2/64 63/3/63 58/4/58
f 58/1/58 63/2/63 61/3/61 60/4/60
f 59/1/59 62/2/62 64/3/64 57/4/57
f 62/1/62 67/2/67 65/3/65 64/4/64
f 63/1/63 66/2/66 68/3/68 61/4/61
f 64/1/64 65/2/65 66/3/66 63/4/63
f 61/1/61 68/2/68 67/3/67 62/4/62
f 68/1/68 69/2/69 70/3/70 67/4/67
f 65/1/65 72/2/72 71/3/71 66/4/66
f 66/1/66 71/2/71 69/3/69 68/4/68
f 67/1/67 70/2/70 72/3/72 65/4/65
f 44/1/44 43/2/43 74/3/74 73/4/73
f 41/1/41 42/2/42 75/3/75 76/4/76
f 42/1/42 44/2/44 73/3/73 75/4/75
f 43/1/43 41/2/41 76/3/76 74/4/74
f 73/1/73 74/2/74 76/3/76 75/4/75
f 38/1/38 40/2/40 77/3/77 79/4/79
f 39/1/39 37/2/37 80/3/80 78/4/78
f 40/1/40 39/2/39 78/3/78 77/4/77
f 37/1/37 38/2/38 79/3/79 80/4/80
f 80/1/80 79/2/79 77/3/77 78/4/78
