# Blender 4.4.0
# www.blender.org
mtllib rHand.mtl
o rHand
v -0.601861 0.525665 0.020880
v -0.601584 0.527327 0.009162
v -0.561242 0.521296 0.009206
v -0.561519 0.519634 0.020924
v -0.600397 0.537291 0.022564
v -0.600120 0.538953 0.010845
v -0.559778 0.532923 0.010889
v -0.560055 0.531261 0.022608
v -0.602515 0.541853 0.009096
v -0.602900 0.539544 0.025373
v -0.604549 0.525703 0.006757
v -0.604933 0.523394 0.023034
v -0.605936 0.527026 0.020197
v -0.605693 0.528481 0.009934
v -0.604654 0.537207 0.021671
v -0.604411 0.538663 0.011409
v -0.631298 0.533939 0.010889
v -0.631541 0.532484 0.021151
v -0.632580 0.523758 0.009415
v -0.632823 0.522302 0.019677
v -0.667691 0.524893 0.014710
v -0.667839 0.524005 0.020969
v -0.668473 0.518683 0.013811
v -0.668621 0.517795 0.020070
v -0.636567 0.522757 0.019794
v -0.636325 0.524212 0.009532
v -0.635285 0.532938 0.021269
v -0.635043 0.534394 0.011007
v -0.633164 0.534329 0.023824
v -0.634995 0.519568 0.022162
v -0.634631 0.521754 0.006751
v -0.632705 0.537043 0.008965
v -0.548654 0.526636 0.019619
v -0.548543 0.527300 0.014941
v -0.549238 0.521996 0.018947
v -0.549128 0.522659 0.014270
v -0.551705 0.525335 0.001501
v -0.552044 0.524845 0.005184
v -0.551243 0.528999 0.002032
v -0.551582 0.528509 0.005715
v -0.616342 0.543698 -0.006249
v -0.617862 0.531626 -0.007997
v -0.618978 0.530010 0.004137
v -0.617508 0.541661 0.005449
v -0.618312 0.541638 -0.004748
v -0.619055 0.540562 0.003333
v -0.619324 0.533599 -0.005912
v -0.620067 0.532523 0.002169
v -0.645309 0.529341 0.000798
v -0.644855 0.529998 -0.004130
v -0.644691 0.534244 0.001508
v -0.644238 0.534900 -0.003420
v -0.617115 0.532135 0.002277
v -0.616372 0.533212 -0.005803
v -0.616102 0.540174 0.003441
v -0.615360 0.541251 -0.004639
v -0.594954 0.538551 -0.003744
v -0.595697 0.537475 0.004337
v -0.595966 0.530512 -0.004908
v -0.596710 0.529436 0.003173
v -0.596098 0.526582 0.005484
v -0.594919 0.528289 -0.007333
v -0.594492 0.539333 0.007330
v -0.593313 0.541040 -0.005486
v -0.560684 0.532264 0.007438
v -0.559836 0.533494 -0.001789
v -0.591542 0.538745 -0.003963
v -0.592390 0.537516 0.005264
v -0.561841 0.523084 0.006109
v -0.560992 0.524314 -0.003118
v -0.592698 0.529566 -0.005292
v -0.593546 0.528336 0.003935
v -0.603347 0.523535 0.037260
v -0.603968 0.525290 0.025680
v -0.564050 0.519759 0.022650
v -0.563430 0.518003 0.034230
v -0.601897 0.535054 0.038928
v -0.602517 0.536809 0.027348
v -0.562600 0.531278 0.024318
v -0.561979 0.529523 0.035898
v -0.605044 0.539670 0.025827
v -0.604183 0.537233 0.041913
v -0.607059 0.523671 0.023511
v -0.606197 0.521233 0.039596
v -0.607438 0.524845 0.036903
v -0.607981 0.526381 0.026762
v -0.606167 0.534932 0.038364
v -0.606711 0.536468 0.028223
v -0.633270 0.531420 0.029661
v -0.632726 0.529883 0.039802
v -0.634540 0.521333 0.028200
v -0.633997 0.519796 0.038341
v -0.668852 0.521918 0.036051
v -0.668521 0.520981 0.042236
v -0.669627 0.515766 0.035160
v -0.669295 0.514829 0.041345
v -0.637691 0.520204 0.038741
v -0.638235 0.521740 0.028600
v -0.636421 0.530291 0.040202
v -0.636965 0.531828 0.030061
v -0.634149 0.531669 0.042582
v -0.635928 0.517041 0.040931
v -0.636744 0.519349 0.025702
v -0.634836 0.534497 0.027896
v -0.550892 0.525096 0.032048
v -0.551140 0.525796 0.027426
v -0.551471 0.520498 0.031383
v -0.551719 0.521199 0.026760
v -0.547777 0.520717 0.026661
v -0.546783 0.519939 0.031170
v -0.547198 0.525314 0.027327
v -0.546204 0.524536 0.031835
v -0.626871 0.530166 0.050875
v -0.628778 0.515018 0.048681
v -0.625502 0.512455 0.063534
v -0.623798 0.527090 0.065201
v -0.628570 0.527407 0.053291
v -0.626389 0.525700 0.063182
v -0.629841 0.517320 0.051830
v -0.627659 0.515613 0.061721
v -0.660933 0.510717 0.062473
v -0.662264 0.511758 0.056441
v -0.660158 0.516869 0.063364
v -0.661489 0.517910 0.057332
v -0.624067 0.515304 0.060731
v -0.626249 0.517011 0.050841
v -0.622797 0.525391 0.062192
v -0.624978 0.527098 0.052301
v -0.599100 0.532823 0.046782
v -0.596919 0.531116 0.056673
v -0.600371 0.522735 0.045321
v -0.598189 0.521028 0.055212
v -0.596459 0.517400 0.057594
v -0.599919 0.520108 0.041906
v -0.594445 0.533400 0.059911
v -0.597905 0.536108 0.044223
v -0.555201 0.522479 0.042964
v -0.557065 0.529411 0.032391
v -0.595107 0.533282 0.045261
v -0.592616 0.531333 0.056556
v -0.556024 0.515944 0.042018
v -0.558515 0.517893 0.030723
v -0.596558 0.521763 0.043593
v -0.594066 0.519814 0.054888
v -0.558232 0.520159 0.014543
v -0.560076 0.522695 -0.001365
v -0.543184 0.516684 0.000299
v -0.540610 0.514715 0.011656
v -0.556772 0.531757 0.016223
v -0.558616 0.534293 0.000315
v -0.541724 0.528282 0.001978
v -0.539150 0.526313 0.013335
v -0.540523 0.524067 0.030039
v -0.556514 0.529309 0.032906
v -0.541983 0.512469 0.028359
v -0.557974 0.517710 0.031227
v -0.564610 0.516757 0.043583
v -0.548619 0.511515 0.040716
v -0.563150 0.528355 0.045263
v -0.547159 0.523114 0.042395
v -0.563865 0.516828 0.054188
v -0.581621 0.512198 0.050363
v -0.560425 0.505853 0.051506
v -0.578181 0.501223 0.047681
v -0.584677 0.498539 0.057470
v -0.571795 0.501898 0.060245
v -0.587173 0.506501 0.059415
v -0.574291 0.509861 0.062190
v -0.575308 0.510639 0.065243
v -0.597313 0.505252 0.059066
v -0.571814 0.499493 0.062520
v -0.593819 0.494106 0.056342
v -0.593942 0.495840 0.059341
v -0.578937 0.499402 0.064010
v -0.596079 0.502659 0.061007
v -0.581074 0.506221 0.065676
v -0.610010 0.494075 0.071224
v -0.614860 0.493328 0.068059
v -0.608804 0.490228 0.070284
v -0.613655 0.489482 0.067119
vn 0.4331 -0.7476 0.5034
vn 0.4306 -0.5650 -0.7038
vn 0.1250 -0.6050 -0.7863
vn 0.0501 -0.8113 0.5824
vn 0.5960 0.4473 0.6669
vn 0.5918 0.6131 -0.5233
vn 0.3102 0.7420 -0.5943
vn 0.2398 0.5690 0.7866
vn -0.0386 0.8102 -0.5849
vn -0.0647 0.5983 0.7987
vn -0.2136 -0.5799 -0.7862
vn -0.2362 -0.7632 0.6015
vn -0.7623 -0.4626 0.4526
vn -0.7322 -0.2867 -0.6178
vn -0.7559 0.4856 0.4391
vn -0.7341 0.5806 -0.3521
vn 0.6472 0.5513 -0.5265
vn 0.6469 0.3814 0.6603
vn 0.6682 -0.5111 -0.5406
vn 0.6720 -0.6373 0.3771
vn -0.6449 0.6036 -0.4687
vn -0.6007 0.4312 0.6732
vn -0.6007 -0.5222 -0.6054
vn -0.5772 -0.6623 0.4777
vn -0.6497 -0.5547 0.5198
vn -0.6800 -0.3194 -0.6600
vn -0.6504 0.5516 0.5223
vn -0.6695 0.6353 -0.3849
vn 0.0842 0.5706 0.8169
vn -0.0839 -0.7740 0.6275
vn -0.0618 -0.6053 -0.7936
vn 0.1162 0.8188 -0.5622
vn 0.7476 0.3151 0.5847
vn 0.8063 0.4530 -0.3803
vn 0.6276 -0.6376 0.4468
vn 0.6850 -0.5105 -0.5198
vn 0.7131 -0.5214 -0.4687
vn 0.5900 -0.6395 0.4929
vn 0.8344 0.4421 -0.3292
vn 0.7100 0.3131 0.6308
vn 0.1616 0.8128 -0.5597
vn -0.0147 -0.6117 -0.7910
vn -0.1333 -0.7677 0.6268
vn 0.0352 0.5769 0.8161
vn -0.6323 0.6399 -0.4367
vn -0.6742 0.5636 0.4773
vn -0.6413 -0.3193 -0.6976
vn -0.6927 -0.5432 0.4744
vn -0.6194 -0.6470 0.4447
vn -0.5699 -0.5155 -0.6399
vn -0.6360 0.4485 0.6279
vn -0.6020 0.6115 -0.5135
vn 0.5692 -0.6651 0.4834
vn 0.6323 -0.5295 -0.5655
vn 0.6749 0.3787 0.6334
vn 0.7502 0.5188 -0.4099
vn -0.6406 0.6118 -0.4641
vn -0.7263 0.5101 0.4607
vn -0.7533 -0.2831 -0.5937
vn -0.8442 -0.4261 0.3252
vn -0.2834 -0.7556 0.5906
vn -0.1665 -0.5848 -0.7939
vn -0.1119 0.6058 0.7877
vn 0.0086 0.8054 -0.5926
vn 0.1943 0.5722 0.7967
vn 0.3585 0.7326 -0.5786
vn 0.6330 0.6024 -0.4862
vn 0.5562 0.4472 0.7004
vn 0.0009 -0.8072 0.5903
vn 0.1689 -0.6138 -0.7712
vn 0.4694 -0.5748 -0.6702
vn 0.3893 -0.7473 0.5384
vn 0.4777 -0.7472 0.4620
vn 0.3821 -0.5537 -0.7399
vn 0.0715 -0.5964 -0.7995
vn 0.1025 -0.8160 0.5689
vn 0.6399 0.4479 0.6244
vn 0.5442 0.6244 -0.5603
vn 0.2567 0.7508 -0.6086
vn 0.2926 0.5645 0.7719
vn -0.0912 0.8150 -0.5723
vn -0.0106 0.5903 0.8071
vn -0.2663 -0.5751 -0.7735
vn -0.1820 -0.7712 0.6100
vn -0.7205 -0.4754 0.5049
vn -0.7732 -0.2892 -0.5644
vn -0.7262 0.4728 0.4991
vn -0.7652 0.5751 -0.2895
vn 0.5991 0.5634 -0.5689
vn 0.6903 0.3826 0.6141
vn 0.6315 -0.4985 -0.5939
vn 0.7058 -0.6328 0.3185
vn -0.6855 0.5996 -0.4130
vn -0.5533 0.4173 0.7209
vn -0.6382 -0.5244 -0.5637
vn -0.5317 -0.6739 0.5129
vn -0.6019 -0.5669 0.5624
vn -0.7240 -0.3209 -0.6106
vn -0.6156 0.5392 0.5747
vn -0.7038 0.6309 -0.3265
vn 0.1396 0.5640 0.8139
vn -0.0281 -0.7806 0.6244
vn -0.1151 -0.5988 -0.7926
vn 0.0648 0.8252 -0.5612
vn 0.7862 0.3181 0.5298
vn 0.7705 0.4655 -0.4355
vn 0.6662 -0.6345 0.3918
vn 0.6492 -0.4979 -0.5750
vn 0.3706 -0.4080 -0.8344
vn 0.7834 -0.6184 0.0619
vn 0.5445 0.5553 -0.6287
vn 0.8725 0.3666 0.3230
vn -0.0429 0.8366 -0.5462
vn -0.2268 -0.5870 -0.7772
vn 0.0882 -0.7922 0.6038
vn 0.2552 0.5524 0.7936
vn -0.7254 0.6568 -0.2059
vn -0.5589 0.4807 0.6757
vn -0.7487 -0.3845 -0.5400
vn -0.5609 -0.5274 0.6382
vn -0.4907 -0.6967 0.5233
vn -0.6785 -0.5016 -0.5367
vn -0.5216 0.4158 0.7450
vn -0.7029 0.6002 -0.3817
vn 0.7608 -0.6209 0.1887
vn 0.5396 -0.4719 -0.6973
vn 0.7708 0.3882 0.5051
vn 0.4889 0.5882 -0.6442
vn -0.8136 0.5613 -0.1519
vn -0.6475 0.4457 0.6181
vn -0.8468 -0.2978 -0.4408
vn -0.6207 -0.5021 0.6022
vn -0.0662 -0.7864 0.6142
vn -0.3735 -0.5673 -0.7339
vn 0.1053 0.5750 0.8113
vn -0.1984 0.8228 -0.5326
vn 0.5658 0.3483 0.7474
vn 0.0188 0.8972 -0.4412
vn 0.4658 0.6683 -0.5801
vn 0.7466 0.4059 0.5270
vn 0.3732 -0.7926 0.4822
vn -0.2059 -0.6272 -0.7512
vn 0.2438 -0.5470 -0.8008
vn 0.5869 -0.7264 0.3576
vn -0.8384 -0.5443 -0.0291
vn -0.6745 -0.3370 -0.6568
vn 0.3884 -0.6280 -0.6743
vn 0.5750 -0.8015 -0.1642
vn -0.5139 0.8421 0.1634
vn -0.4482 0.7546 -0.4793
vn 0.6626 0.5286 -0.5306
vn 0.8636 0.5040 0.0174
vn 0.8440 0.4516 0.2894
vn -0.4108 0.9114 0.0232
vn 0.5546 -0.8276 0.0869
vn -0.7909 -0.5484 -0.2716
vn -0.4685 -0.2500 -0.8474
vn 0.5188 -0.8155 0.2563
vn -0.4688 0.8681 0.1634
vn 0.6426 0.4489 0.6209
vn 0.3043 0.3957 0.8665
vn -0.7001 0.6108 -0.3699
vn 0.6853 -0.7108 0.1587
vn -0.2934 -0.6431 -0.7074
vn -0.0154 -0.4620 -0.8868
vn 0.8418 -0.5288 0.1083
vn -0.3802 0.7018 -0.6024
vn 0.4270 0.7945 0.4317
vn 0.3614 0.7473 0.5575
vn -0.7865 0.5800 -0.2125
vn 0.7784 -0.5831 0.2324
vn -0.3672 -0.7578 -0.5394
vn -0.3811 -0.9196 -0.0959
vn 0.1962 -0.5930 0.7809
vn -0.8269 0.5029 0.2516
vn -0.0548 0.2079 0.9766
vn -0.2767 0.3315 0.9020
vn -0.9636 0.2644 0.0385
vn 0.0690 -0.7715 0.6325
vn -0.6519 -0.7302 -0.2045
vt 0.000000 0.000000
vt 1.000000 0.000000
vt 1.000000 1.000000
vt 0.000000 1.000000
s 1
usemtl skeleton
f 3/1/3 4/2/4 1/3/1 2/4/2
f 5/1/5 8/2/8 7/3/7 6/4/6
f 2/1/2 6/2/6 7/3/7 3/4/3
f 4/1/4 8/2/8 5/3/5 1/4/1
f 1/1/1 5/2/5 10/3/10 12/4/12
f 6/1/6 2/2/2 11/3/11 9/4/9
f 5/1/5 6/2/6 9/3/9 10/4/10
f 2/1/2 1/2/1 12/3/12 11/4/11
f 11/1/11 12/2/12 13/3/13 14/4/14
f 10/1/10 9/2/9 16/3/16 15/4/15
f 9/1/9 11/2/11 14/3/14 16/4/16
f 12/1/12 10/2/10 15/3/15 13/4/13
f 13/1/13 15/2/15 18/3/18 20/4/20
f 16/1/16 14/2/14 19/3/19 17/4/17
f 15/1/15 16/2/16 17/3/17 18/4/18
f 14/1/14 13/2/13 20/3/20 19/4/19
f 24/1/24 22/2/22 21/3/21 23/4/23
f 25/1/25 27/2/27 22/3/22 24/4/24
f 28/1/28 26/2/26 23/3/23 21/4/21
f 27/1/27 28/2/28 21/3/21 22/4/22
f 26/1/26 25/2/25 24/3/24 23/4/23
f 27/1/27 25/2/25 30/3/30 29/4/29
f 26/1/26 28/2/28 32/3/32 31/4/31
f 28/1/28 27/2/27 29/3/29 32/4/32
f 25/1/25 26/2/26 31/3/31 30/4/30
f 19/1/19 20/2/20 30/3/30 31/4/31
f 18/1/18 17/2/17 32/3/32 29/4/29
f 17/1/17 19/2/19 31/3/31 32/4/32
f 20/1/20 18/2/18 29/3/29 30/4/30
f 8/1/8 4/2/4 35/3/35 33/4/33
f 3/1/3 7/2/7 34/3/34 36/4/36
f 7/1/7 8/2/8 33/3/33 34/4/34
f 4/1/4 3/2/3 36/3/36 35/4/35
f 36/1/36 34/2/34 33/3/33 35/4/35
f 37/1/37 39/2/39 40/3/40 38/4/38
f 69/1/69 70/2/70 37/3/37 38/4/38
f 66/1/66 65/2/65 40/3/40 39/4/39
f 70/1/70 66/2/66 39/3/39 37/4/37
f 65/1/65 69/2/69 38/3/38 40/4/40
f 53/1/53 55/2/55 44/3/44 43/4/43
f 56/1/56 54/2/54 42/3/42 41/4/41
f 55/1/55 56/2/56 41/3/41 44/4/44
f 54/1/54 53/2/53 43/3/43 42/4/42
f 48/1/48 47/2/47 42/3/42 43/4/43
f 45/1/45 46/2/46 44/3/44 41/4/41
f 47/1/47 45/2/45 41/3/41 42/4/42
f 46/1/46 48/2/48 43/3/43 44/4/44
f 47/1/47 48/2/48 49/3/49 50/4/50
f 46/1/46 45/2/45 52/3/52 51/4/51
f 45/1/45 47/2/47 50/3/50 52/4/52
f 48/1/48 46/2/46 51/3/51 49/4/49
f 49/1/49 51/2/51 52/3/52 50/4/50
f 59/1/59 60/2/60 53/3/53 54/4/54
f 58/1/58 57/2/57 56/3/56 55/4/55
f 57/1/57 59/2/59 54/3/54 56/4/56
f 60/1/60 58/2/58 55/3/55 53/4/53
f 61/1/61 63/2/63 58/3/58 60/4/60
f 64/1/64 62/2/62 59/3/59 57/4/57
f 63/1/63 64/2/64 57/3/57 58/4/58
f 62/1/62 61/2/61 60/3/60 59/4/59
f 71/1/71 72/2/72 61/3/61 62/4/62
f 68/1/68 67/2/67 64/3/64 63/4/63
f 67/1/67 71/2/71 62/3/62 64/4/64
f 72/1/72 68/2/68 63/3/63 61/4/61
f 69/1/69 65/2/65 68/3/68 72/4/72
f 71/1/71 67/2/67 66/3/66 70/4/70
f 68/1/68 65/2/65 66/3/66 67/4/67
f 70/1/70 69/2/69 72/3/72 71/4/71
f 75/1/75 76/2/76 73/3/73 74/4/74
f 77/1/77 80/2/80 79/3/79 78/4/78
f 74/1/74 78/2/78 79/3/79 75/4/75
f 76/1/76 80/2/80 77/3/77 73/4/73
f 73/1/73 77/2/77 82/3/82 84/4/84
f 78/1/78 74/2/74 83/3/83 81/4/81
f 77/1/77 78/2/78 81/3/81 82/4/82
f 74/1/74 73/2/73 84/3/84 83/4/83
f 83/1/83 84/2/84 85/3/85 86/4/86
f 82/1/82 81/2/81 88/3/88 87/4/87
f 81/1/81 83/2/83 86/3/86 88/4/88
f 84/1/84 82/2/82 87/3/87 85/4/85
f 85/1/85 87/2/87 90/3/90 92/4/92
f 88/1/88 86/2/86 91/3/91 89/4/89
f 87/1/87 88/2/88 89/3/89 90/4/90
f 86/1/86 85/2/85 92/3/92 91/4/91
f 96/1/96 94/2/94 93/3/93 95/4/95
f 97/1/97 99/2/99 94/3/94 96/4/96
f 100/1/100 98/2/98 95/3/95 93/4/93
f 99/1/99 100/2/100 93/3/93 94/4/94
f 98/1/98 97/2/97 96/3/96 95/4/95
f 99/1/99 97/2/97 102/3/102 101/4/101
f 98/1/98 100/2/100 104/3/104 103/4/103
f 100/1/100 99/2/99 101/3/101 104/4/104
f 97/1/97 98/2/98 103/3/103 102/4/102
f 91/1/91 92/2/92 102/3/102 103/4/103
f 90/1/90 89/2/89 104/3/104 101/4/101
f 89/1/89 91/2/91 103/3/103 104/4/104
f 92/1/92 90/2/90 101/3/101 102/4/102
f 80/1/80 76/2/76 107/3/107 105/4/105
f 75/1/75 79/2/79 106/3/106 108/4/108
f 79/1/79 80/2/80 105/3/105 106/4/106
f 76/1/76 75/2/75 108/3/108 107/4/107
f 108/1/108 106/2/106 105/3/105 107/4/107
f 109/1/109 111/2/111 112/3/112 110/4/110
f 141/1/141 142/2/142 109/3/109 110/4/110
f 138/1/138 137/2/137 112/3/112 111/4/111
f 142/1/142 138/2/138 111/3/111 109/4/109
f 137/1/137 141/2/141 110/3/110 112/4/112
f 125/1/125 127/2/127 116/3/116 115/4/115
f 128/1/128 126/2/126 114/3/114 113/4/113
f 127/1/127 128/2/128 113/3/113 116/4/116
f 126/1/126 125/2/125 115/3/115 114/4/114
f 120/1/120 119/2/119 114/3/114 115/4/115
f 117/1/117 118/2/118 116/3/116 113/4/113
f 119/1/119 117/2/117 113/3/113 114/4/114
f 118/1/118 120/2/120 115/3/115 116/4/116
f 119/1/119 120/2/120 121/3/121 122/4/122
f 118/1/118 117/2/117 124/3/124 123/4/123
f 117/1/117 119/2/119 122/3/122 124/4/124
f 120/1/120 118/2/118 123/3/123 121/4/121
f 121/1/121 123/2/123 124/3/124 122/4/122
f 131/1/131 132/2/132 125/3/125 126/4/126
f 130/1/130 129/2/129 128/3/128 127/4/127
f 129/1/129 131/2/131 126/3/126 128/4/128
f 132/1/132 130/2/130 127/3/127 125/4/125
f 133/1/133 135/2/135 130/3/130 132/4/132
f 136/1/136 134/2/134 131/3/131 129/4/129
f 135/1/135 136/2/136 129/3/129 130/4/130
f 134/1/134 133/2/133 132/3/132 131/4/131
f 143/1/143 144/2/144 133/3/133 134/4/134
f 140/1/140 139/2/139 136/3/136 135/4/135
f 139/1/139 143/2/143 134/3/134 136/4/136
f 144/1/144 140/2/140 135/3/135 133/4/133
f 141/1/141 137/2/137 140/3/140 144/4/144
f 143/1/143 139/2/139 138/3/138 142/4/142
f 140/1/140 137/2/137 138/3/138 139/4/139
f 142/1/142 141/2/141 144/3/144 143/4/143
f 147/1/147 148/2/148 145/3/145 146/4/146
f 149/1/149 152/2/152 151/3/151 150/4/150
f 145/1/145 149/2/149 150/3/150 146/4/146
f 146/1/146 150/2/150 151/3/151 147/4/147
f 147/1/147 151/2/151 152/3/152 148/4/148
f 148/1/148 152/2/152 153/3/153 155/4/155
f 149/1/149 145/2/145 156/3/156 154/4/154
f 152/1/152 149/2/149 154/3/154 153/4/153
f 145/1/145 148/2/148 155/3/155 156/4/156
f 156/1/156 155/2/155 158/3/158 157/4/157
f 153/1/153 154/2/154 159/3/159 160/4/160
f 154/1/154 156/2/156 157/3/157 159/4/159
f 155/1/155 153/2/153 160/3/160 158/4/158
f 158/1/158 160/2/160 161/3/161 163/4/163
f 159/1/159 157/2/157 164/3/164 162/4/162
f 160/1/160 159/2/159 162/3/162 161/4/161
f 157/1/157 158/2/158 163/3/163 164/4/164
f 164/1/164 163/2/163 166/3/166 165/4/165
f 161/1/161 162/2/162 167/3/167 168/4/168
f 162/1/162 164/2/164 165/3/165 167/4/167
f 163/1/163 161/2/161 168/3/168 166/4/166
f 166/1/166 168/2/168 169/3/169 171/4/171
f 167/1/167 165/2/165 172/3/172 170/4/170
f 168/1/168 167/2/167 170/3/170 169/4/169
f 165/1/165 166/2/166 171/3/171 172/4/172
f 172/1/172 171/2/171 174/3/174 173/4/173
f 169/1/169 170/2/170 175/3/175 176/4/176
f 170/1/170 172/2/172 173/3/173 175/4/175
f 171/1/171 169/2/169 176/3/176 174/4/174
f 174/1/174 176/2/176 177/3/177 179/4/179
f 175/1/175 173/2/173 180/3/180 178/4/178
f 176/1/176 175/2/175 178/3/178 177/4/177
f 173/1/173 174/2/174 179/3/179 180/4/180
f 179/1/179 177/2/177 178/3/178 180/4/180
