# Blender 4.4.0
# www.blender.org
mtllib rShin.mtl
o rShin
v -0.111650 -0.279463 0.030856
v -0.111540 -0.277797 0.008972
v -0.066849 -0.282623 0.008972
v -0.066849 -0.282623 0.033737
v -0.065505 -0.276296 0.027863
v -0.065403 -0.274733 0.011714
v -0.105038 -0.268339 0.011714
v -0.105141 -0.269902 0.027863
v -0.069424 -0.302051 0.037442
v -0.069312 -0.300350 0.006236
v -0.107833 -0.291108 0.006236
v -0.107945 -0.292808 0.037442
v -0.098266 -0.323940 0.039393
v -0.098266 -0.323940 0.011085
v -0.075252 -0.331386 0.011085
v -0.075252 -0.331386 0.039393
v -0.079329 -0.393615 0.031143
v -0.079329 -0.393615 0.008453
v -0.093572 -0.392994 0.008453
v -0.093572 -0.392994 0.031143
v -0.093694 -0.508887 0.019482
v -0.093694 -0.508887 0.002948
v -0.079450 -0.509508 0.002948
v -0.079450 -0.509508 0.019482
v -0.080419 -0.644184 0.011071
v -0.080419 -0.644184 -0.003016
v -0.094663 -0.643563 -0.003016
v -0.094663 -0.643563 0.011071
v -0.097222 -0.679859 0.009633
v -0.097222 -0.679859 -0.013025
v -0.072840 -0.681144 -0.013025
v -0.072840 -0.681144 0.009633
v -0.073796 -0.710686 0.003889
v -0.071413 -0.701377 -0.014374
v -0.099750 -0.699833 -0.014374
v -0.099813 -0.710956 0.003889
v -0.099366 -0.715974 0.015061
v -0.077302 -0.717108 0.015061
v -0.071256 -0.698986 0.020916
v -0.099593 -0.697441 0.020916
v -0.098713 -0.322206 0.021875
v -0.098713 -0.322206 0.007958
v -0.116965 -0.321322 0.007958
v -0.116965 -0.321322 0.021875
v -0.114973 -0.299434 0.016862
v -0.114973 -0.299434 0.010622
v -0.099354 -0.302951 0.010622
v -0.099354 -0.302951 0.016862
v -0.113439 -0.335042 0.017837
v -0.113439 -0.335042 0.007135
v -0.104019 -0.335167 0.007135
v -0.104019 -0.335167 0.017837
v -0.104477 -0.352044 0.014174
v -0.104477 -0.352044 0.005191
v -0.112573 -0.351465 0.005191
v -0.112573 -0.351465 0.014174
v -0.109723 -0.450511 0.008827
v -0.109723 -0.450511 -0.000230
v -0.102164 -0.451055 -0.000230
v -0.102164 -0.451055 0.008827
v -0.098521 -0.562802 0.001986
v -0.098521 -0.562802 -0.005576
v -0.106080 -0.562259 -0.005576
v -0.106080 -0.562259 0.001986
v -0.106155 -0.669288 0.003407
v -0.106155 -0.669288 -0.009016
v -0.096792 -0.669949 -0.009016
v -0.096792 -0.669949 0.003407
v -0.095360 -0.689260 0.006336
v -0.095289 -0.688181 -0.007132
v -0.107338 -0.687343 -0.007132
v -0.107409 -0.688423 0.006336
v -0.107786 -0.703327 0.001702
v -0.106254 -0.706247 -0.004440
v -0.103985 -0.705195 -0.004440
v -0.102600 -0.702341 0.001702
vn -0.8417 0.2045 0.4997
vn -0.7955 0.1826 -0.5778
vn 0.7011 0.0631 -0.7103
vn 0.6851 0.1979 0.7011
vn 0.8668 0.3291 0.3747
vn 0.8153 0.3523 -0.4596
vn -0.3219 0.7479 -0.5805
vn -0.3260 0.7883 0.5218
vn 0.7164 0.0114 0.6976
vn 0.6539 -0.0953 -0.7506
vn -0.5973 -0.1160 -0.7935
vn -0.6375 -0.0096 0.7704
vn -0.6035 -0.1100 0.7898
vn -0.6786 -0.1813 -0.7118
vn 0.7065 -0.1318 -0.6953
vn 0.6365 -0.1087 0.7636
vn 0.6970 -0.1063 0.7091
vn 0.6980 0.0094 -0.7160
vn -0.6915 0.0094 -0.7223
vn -0.7025 -0.1061 0.7038
vn -0.7154 -0.0547 0.6966
vn -0.7041 0.0356 -0.7092
vn 0.7079 0.0293 -0.7057
vn 0.7147 -0.0588 0.6969
vn 0.6619 0.0225 0.7493
vn 0.7019 0.1924 -0.6858
vn -0.7392 0.1324 -0.6603
vn -0.7009 -0.0105 0.7132
vn -0.8126 0.1961 0.5488
vn -0.6646 0.1771 -0.7259
vn 0.7008 0.1612 -0.6949
vn 0.8414 0.1889 0.5062
vn 0.8266 -0.5072 -0.2440
vn 0.6743 -0.2949 -0.6771
vn -0.6717 -0.2243 -0.7061
vn -0.8608 -0.4317 -0.2696
vn -0.7484 -0.5377 0.3882
vn 0.5895 -0.6913 0.4178
vn 0.6727 0.0178 0.7397
vn -0.6216 0.1165 0.7746
vn 0.6811 -0.1066 0.7244
vn 0.7490 -0.0786 -0.6579
vn -0.7404 0.0001 -0.6722
vn -0.6737 -0.0361 0.7381
vn -0.6380 0.5510 0.5380
vn -0.6149 0.5144 -0.5977
vn 0.6833 0.4116 -0.6030
vn 0.7135 0.4492 0.5378
vn -0.6633 -0.2978 0.6866
vn -0.6666 -0.0319 -0.7447
vn 0.6359 -0.0528 -0.7700
vn 0.6132 -0.3432 0.7114
vn 0.7294 -0.0914 0.6780
vn 0.6888 0.0606 -0.7225
vn -0.6897 0.0370 -0.7232
vn -0.7365 -0.1265 0.6646
vn -0.7052 -0.0620 0.7063
vn -0.7034 0.0150 -0.7106
vn 0.7027 0.0560 -0.7093
vn 0.7013 -0.0219 0.7126
vn 0.7212 0.0037 0.6927
vn 0.7057 0.0447 -0.7071
vn -0.6955 0.0186 -0.7183
vn -0.7137 -0.0306 0.6998
vn -0.7199 0.0806 0.6894
vn -0.6708 -0.0032 -0.7417
vn 0.6671 -0.0016 -0.7450
vn 0.7199 0.0970 0.6872
vn 0.7061 -0.1521 0.6916
vn 0.7618 -0.1879 -0.6200
vn -0.7167 -0.0617 -0.6947
vn -0.6535 -0.0388 0.7560
vn -0.7279 -0.4403 0.5257
vn -0.5914 -0.6131 -0.5238
vn 0.4525 -0.6434 -0.6174
vn 0.5165 -0.6121 0.5987
vt 1.000000 1.000000
vt 1.000000 0.000000
vt 0.000000 0.000000
vt 0.000000 1.000000
s 1
usemtl skeleton.003
f 2/1/2 1/4/1 8/3/8 7/2/7
f 3/1/3 2/4/2 7/3/7 6/2/6
f 1/1/1 4/4/4 5/3/5 8/2/8
f 4/1/4 3/4/3 6/3/6 5/2/5
f 7/1/7 8/4/8 5/3/5 6/2/6
f 9/1/9 10/4/10 3/3/3 4/2/4
f 12/1/12 9/4/9 4/3/4 1/2/1
f 10/1/10 11/4/11 2/3/2 3/2/3
f 11/1/11 12/4/12 1/3/1 2/2/2
f 14/1/14 13/4/13 12/3/12 11/2/11
f 15/1/15 14/4/14 11/3/11 10/2/10
f 13/1/13 16/4/16 9/3/9 12/2/12
f 16/1/16 15/4/15 10/3/10 9/2/9
f 17/1/17 18/4/18 15/3/15 16/2/16
f 20/1/20 17/4/17 16/3/16 13/2/13
f 18/1/18 19/4/19 14/3/14 15/2/15
f 19/1/19 20/4/20 13/3/13 14/2/14
f 22/1/22 21/4/21 20/3/20 19/2/19
f 23/1/23 22/4/22 19/3/19 18/2/18
f 21/1/21 24/4/24 17/3/17 20/2/20
f 24/1/24 23/4/23 18/3/18 17/2/17
f 25/1/25 26/4/26 23/3/23 24/2/24
f 28/1/28 25/4/25 24/3/24 21/2/21
f 26/1/26 27/4/27 22/3/22 23/2/23
f 27/1/27 28/4/28 21/3/21 22/2/22
f 30/1/30 29/4/29 28/3/28 27/2/27
f 31/1/31 30/4/30 27/3/27 26/2/26
f 29/1/29 32/4/32 25/3/25 28/2/28
f 32/1/32 31/4/31 26/3/26 25/2/25
f 33/1/33 34/4/34 31/3/31 32/2/32
f 34/1/34 35/4/35 30/3/30 31/2/31
f 35/1/35 36/4/36 29/3/29 30/2/30
f 35/1/35 34/4/34 33/3/33 36/2/36
f 38/1/38 37/4/37 36/3/36 33/2/33
f 37/1/37 40/4/40 29/3/29 36/2/36
f 39/1/39 38/4/38 33/3/33 32/2/32
f 40/1/40 39/4/39 32/3/32 29/2/29
f 37/1/37 38/4/38 39/3/39 40/2/40
f 41/1/41 42/4/42 47/3/47 48/2/48
f 44/1/44 41/4/41 48/3/48 45/2/45
f 42/1/42 43/4/43 46/3/46 47/2/47
f 43/1/43 44/4/44 45/3/45 46/2/46
f 50/1/50 49/4/49 44/3/44 43/2/43
f 51/1/51 50/4/50 43/3/43 42/2/42
f 49/1/49 52/4/52 41/3/41 44/2/44
f 52/1/52 51/4/51 42/3/42 41/2/41
f 53/1/53 54/4/54 51/3/51 52/2/52
f 56/1/56 53/4/53 52/3/52 49/2/49
f 54/1/54 55/4/55 50/3/50 51/2/51
f 55/1/55 56/4/56 49/3/49 50/2/50
f 58/1/58 57/4/57 56/3/56 55/2/55
f 59/1/59 58/4/58 55/3/55 54/2/54
f 57/1/57 60/4/60 53/3/53 56/2/56
f 60/1/60 59/4/59 54/3/54 53/2/53
f 61/1/61 62/4/62 59/3/59 60/2/60
f 64/1/64 61/4/61 60/3/60 57/2/57
f 62/1/62 63/4/63 58/3/58 59/2/59
f 63/1/63 64/4/64 57/3/57 58/2/58
f 66/1/66 65/4/65 64/3/64 63/2/63
f 67/1/67 66/4/66 63/3/63 62/2/62
f 65/1/65 68/4/68 61/3/61 64/2/64
f 68/1/68 67/4/67 62/3/62 61/2/61
f 69/1/69 70/4/70 67/3/67 68/2/68
f 72/1/72 69/4/69 68/3/68 65/2/65
f 70/1/70 71/4/71 66/3/66 67/2/67
f 71/1/71 72/4/72 65/3/65 66/2/66
f 74/1/74 73/4/73 72/3/72 71/2/71
f 75/1/75 74/4/74 71/3/71 70/2/70
f 73/1/73 76/4/76 69/3/69 72/2/72
f 76/1/76 75/4/75 70/3/70 69/2/69
f 47/1/47 46/4/46 45/3/45 48/2/48
f 75/1/75 76/4/76 73/3/73 74/2/74
