# Blender 4.4.0
# www.blender.org
mtllib rShldr.mtl
o rShldr
v -0.279641 0.504744 -0.048957
v -0.282059 0.504349 -0.062476
v -0.200036 0.506228 -0.058874
v -0.197618 0.506622 -0.045356
v -0.279795 0.520961 -0.049403
v -0.282213 0.520567 -0.062921
v -0.200167 0.519961 -0.059251
v -0.197748 0.520355 -0.045733
v -0.174970 0.523906 -0.042868
v -0.178492 0.523332 -0.062554
v -0.174780 0.503907 -0.042319
v -0.178302 0.503333 -0.062005
v -0.162849 0.500257 -0.062138
v -0.157899 0.501064 -0.034468
v -0.163116 0.528366 -0.062910
v -0.158165 0.529172 -0.035240
v -0.146338 0.521108 -0.040600
v -0.150326 0.520458 -0.062893
v -0.146173 0.503774 -0.040123
v -0.150162 0.503124 -0.062417
v -0.116263 0.504638 -0.047014
v -0.113251 0.503090 -0.044648
v -0.114046 0.512838 -0.044473
v -0.111033 0.511290 -0.042107
v -0.311007 0.526300 -0.061444
v -0.308589 0.526694 -0.047926
v -0.310736 0.497663 -0.060658
v -0.308317 0.498057 -0.047140
v -0.317277 0.485620 -0.044297
v -0.319696 0.485226 -0.057815
v -0.320396 0.530639 -0.045052
v -0.322815 0.530245 -0.058570
v -0.332661 0.526546 -0.054069
v -0.334192 0.526888 -0.041071
v -0.330428 0.497421 -0.053620
v -0.331959 0.497764 -0.040621
vn 0.0869 -0.6760 0.7318
vn 0.0832 -0.6771 -0.7311
vn -0.0715 -0.7332 -0.6763
vn -0.1064 -0.6724 0.7325
vn 0.0710 0.7194 0.6910
vn 0.0670 0.6413 -0.7644
vn -0.0863 0.6914 -0.7173
vn -0.1220 0.7070 0.6966
vn -0.3663 0.6818 0.6332
vn -0.2088 0.6430 -0.7368
vn -0.3084 -0.6822 0.6629
vn -0.1626 -0.7017 -0.6937
vn -0.0160 -0.7676 -0.6408
vn 0.0293 -0.6466 0.7622
vn 0.0489 0.7582 -0.6502
vn 0.0971 0.7288 0.6778
vn 0.4834 0.6368 0.6007
vn 0.3652 0.5093 -0.7792
vn 0.2715 -0.7182 0.6407
vn 0.2432 -0.6135 -0.7513
vn 0.2739 -0.7777 -0.5658
vn 0.0741 -0.5069 0.8588
vn 0.3849 0.8331 -0.3972
vn 0.1706 0.3124 0.9345
vn 0.0391 0.6288 -0.7766
vn 0.2947 0.7134 0.6357
vn 0.1736 -0.5163 -0.8386
vn 0.4811 -0.5062 0.7157
vn 0.1909 -0.8164 0.5450
vn -0.0569 -0.8132 -0.5792
vn 0.1559 0.7895 0.5936
vn -0.1981 0.7249 -0.6597
vn -0.7514 0.4506 -0.4820
vn -0.6128 0.4622 0.6410
vn -0.8036 -0.3404 -0.4882
vn -0.6185 -0.3291 0.7135
vt 1.000000 1.000000
vt 1.000000 0.000000
vt 0.000000 0.000000
vt 0.000000 1.000000
s 1
usemtl skeleton.001
f 1/1/1 2/4/2 3/3/3 4/2/4
f 7/1/7 6/4/6 5/3/5 8/2/8
f 7/1/7 3/4/3 2/3/2 6/2/6
f 5/1/5 1/4/1 4/3/4 8/2/8
f 11/1/11 9/4/9 8/3/8 4/2/4
f 10/1/10 12/4/12 3/3/3 7/2/7
f 9/1/9 10/4/10 7/3/7 8/2/8
f 12/1/12 11/4/11 4/3/4 3/2/3
f 13/1/13 14/4/14 11/3/11 12/2/12
f 16/1/16 15/4/15 10/3/10 9/2/9
f 15/1/15 13/4/13 12/3/12 10/2/10
f 14/1/14 16/4/16 9/3/9 11/2/11
f 19/1/19 17/4/17 16/3/16 14/2/14
f 18/1/18 20/4/20 13/3/13 15/2/15
f 17/1/17 18/4/18 15/3/15 16/2/16
f 20/1/20 19/4/19 14/3/14 13/2/13
f 21/1/21 22/4/22 19/3/19 20/2/20
f 24/1/24 23/4/23 18/3/18 17/2/17
f 23/1/23 21/4/21 20/3/20 18/2/18
f 22/1/22 24/4/24 17/3/17 19/2/19
f 26/1/26 28/4/28 1/3/1 5/2/5
f 27/1/27 25/4/25 6/3/6 2/2/2
f 25/1/25 26/4/26 5/3/5 6/2/6
f 28/1/28 27/4/27 2/3/2 1/2/1
f 29/1/29 30/4/30 27/3/27 28/2/28
f 32/1/32 31/4/31 26/3/26 25/2/25
f 30/1/30 32/4/32 25/3/25 27/2/27
f 31/1/31 29/4/29 28/3/28 26/2/26
f 34/1/34 36/4/36 29/3/29 31/2/31
f 35/1/35 33/4/33 32/3/32 30/2/30
f 33/1/33 34/4/34 31/3/31 32/2/32
f 36/1/36 35/4/35 30/3/30 29/2/29
f 33/1/33 35/4/35 36/3/36 34/2/34
