# Blender 4.4.0
# www.blender.org
mtllib rThigh.mtl
o lThigh
v -0.103869 -0.084397 0.011095
v -0.103869 -0.084397 -0.007138
v -0.103905 0.005294 -0.003657
v -0.103905 0.005294 -0.022528
v -0.087173 -0.087168 -0.007138
v -0.087173 -0.087168 0.011095
v -0.085872 0.004677 -0.022528
v -0.085872 0.004677 -0.003657
v -0.084229 -0.149707 0.015945
v -0.084229 -0.149707 -0.002934
v -0.109438 -0.148457 -0.002934
v -0.109438 -0.148457 0.015945
v -0.115317 -0.172715 0.017239
v -0.115317 -0.172715 -0.006061
v -0.075770 -0.175696 -0.006061
v -0.075770 -0.175696 0.017239
v -0.071691 -0.195799 0.021442
v -0.071691 -0.195799 -0.009077
v -0.118708 -0.191949 -0.009077
v -0.118708 -0.191949 0.021442
v -0.103892 -0.026990 -0.013521
v -0.103892 -0.026990 0.001653
v -0.086340 -0.028382 -0.013521
v -0.086340 -0.028382 0.001653
v -0.071214 -0.184053 0.019341
v -0.071214 -0.184053 -0.009132
v -0.117677 -0.180921 0.019341
v -0.117677 -0.180921 -0.009132
v -0.113013 -0.201483 0.014187
v -0.113049 -0.201899 -0.007720
v -0.076988 -0.207298 -0.003701
v -0.076969 -0.207090 0.011316
v -0.095199 -0.193390 0.021306
v -0.091788 -0.196851 0.026267
v -0.110642 -0.195188 0.026267
v -0.106678 -0.192378 0.021306
v -0.089490 -0.207605 0.020613
v -0.089523 -0.207977 0.026534
v -0.110781 -0.206102 0.026534
v -0.110748 -0.205730 0.020613
v -0.110725 -0.205464 0.016397
v -0.089467 -0.207339 0.016398
v -0.101404 -0.190486 0.017198
v -0.100061 -0.190604 0.017198
v -0.101459 -0.216994 0.015757
v -0.105604 -0.216628 0.015757
v -0.105632 -0.216947 0.019866
v -0.105599 -0.216575 0.024400
v -0.101454 -0.216941 0.024400
v -0.101487 -0.217313 0.019866
v -0.088779 -0.202579 0.026401
v -0.090774 -0.200636 0.020959
v -0.112163 -0.200517 0.026401
v -0.109859 -0.198953 0.020959
v -0.106789 -0.197911 0.016798
v -0.093614 -0.199073 0.016798
v -0.078334 0.015291 -0.005301
v -0.078334 0.015291 -0.024172
v -0.105447 0.015884 -0.024172
v -0.105447 0.015884 -0.005301
v -0.107928 0.029858 -0.008795
v -0.107928 0.029858 -0.027666
v -0.081208 0.027925 -0.027666
v -0.081208 0.027925 -0.008795
v -0.075191 0.041562 -0.009252
v -0.075191 0.041562 -0.031433
v -0.110618 0.043025 -0.031433
v -0.110618 0.043025 -0.009252
v -0.112377 0.054900 -0.008909
v -0.112377 0.054900 -0.032918
v -0.063625 0.052922 -0.032918
v -0.063625 0.052922 -0.008909
v -0.056597 0.057749 -0.008453
v -0.056597 0.057749 -0.032233
v -0.091070 0.064410 -0.029835
v -0.091070 0.064410 -0.013819
v -0.100301 0.067388 -0.018842
v -0.100301 0.067388 -0.028008
v -0.109127 0.061840 -0.032233
v -0.109127 0.061840 -0.008453
v -0.077638 0.075103 -0.003752
v -0.077248 0.079525 -0.022384
v -0.041778 0.076360 -0.022245
v -0.047269 0.072468 -0.027260
vn -0.6793 0.1207 0.7238
vn -0.7067 -0.0348 -0.7067
vn -0.6912 0.0681 0.7195
vn -0.6725 -0.2046 -0.7113
vn 0.7017 -0.0503 -0.7106
vn 0.6947 0.0945 0.7131
vn 0.5479 -0.3611 -0.7546
vn 0.6205 -0.0591 0.7820
vn 0.6576 0.1690 0.7341
vn 0.6831 0.1559 -0.7135
vn -0.7000 0.1406 -0.7002
vn -0.6717 0.1584 0.7237
vn -0.6824 0.2939 0.6693
vn -0.6766 0.3525 -0.6465
vn 0.6255 0.4518 -0.6361
vn 0.6306 0.3950 0.6681
vn 0.6263 -0.2858 0.7253
vn 0.6775 -0.2397 -0.6954
vn -0.7292 -0.2299 -0.6445
vn -0.6745 -0.2299 0.7015
vn -0.7305 -0.1313 -0.6701
vn -0.7022 0.1139 0.7028
vn 0.7194 -0.1383 -0.6806
vn 0.7129 0.1027 0.6937
vn 0.7291 0.2742 0.6271
vn 0.7042 0.2336 -0.6705
vn -0.6917 0.2685 0.6704
vn -0.6651 0.2355 -0.7086
vn -0.4533 -0.8186 0.3529
vn -0.4107 -0.7428 -0.5287
vn 0.4088 -0.7984 -0.4420
vn 0.4009 -0.8596 0.3169
vn 0.5436 0.8354 0.0817
vn 0.5610 0.5566 0.6127
vn -0.6274 0.5765 0.5235
vn -0.4903 0.8716 -0.0031
vn 0.9277 -0.3495 -0.1311
vn 0.6965 -0.3566 0.6227
vn -0.7121 -0.2158 0.6681
vn -0.9790 -0.1489 -0.1391
vn -0.7213 -0.0054 -0.6926
vn 0.7264 -0.1749 -0.6646
vn -0.1429 0.8700 -0.4719
vn 0.2487 0.8478 -0.4685
vn 0.2296 -0.6979 -0.6784
vn -0.4540 -0.6051 -0.6541
vn -0.5644 -0.8255 -0.0089
vn -0.4576 -0.6984 0.5503
vn 0.2086 -0.7950 0.5697
vn 0.2816 -0.9594 -0.0126
vn 0.7946 0.1963 0.5746
vn 0.8981 0.3691 -0.2392
vn -0.8264 0.1256 0.5489
vn -0.8906 0.2863 -0.3534
vn -0.4674 0.2765 -0.8397
vn 0.5055 0.3231 -0.8000
vn 0.7632 -0.0574 0.6436
vn 0.7704 -0.2407 -0.5904
vn -0.6964 -0.2571 -0.6701
vn -0.6940 0.0429 0.7187
vn -0.7217 -0.0488 0.6905
vn -0.6836 -0.3107 -0.6605
vn 0.5952 -0.2950 -0.7475
vn 0.6547 0.0661 0.7530
vn 0.5462 -0.3830 0.7449
vn 0.4895 -0.4871 -0.7233
vn -0.6786 -0.2478 -0.6915
vn -0.7091 -0.1263 0.6937
vn -0.7320 0.2478 0.6346
vn -0.7262 0.1531 -0.6702
vn 0.4548 -0.4241 -0.7831
vn 0.4797 -0.3991 0.7814
vn 0.5704 -0.3740 0.7313
vn 0.6026 -0.2909 -0.7432
vn -0.0643 0.6544 -0.7534
vn -0.1385 0.6786 0.7213
vn -0.0654 0.9575 0.2809
vn -0.0726 0.8885 -0.4531
vn -0.4896 0.6226 -0.6104
vn -0.4219 0.7196 0.5516
vn -0.0393 0.5883 0.8077
vn -0.2061 0.9450 -0.2541
vn 0.4848 0.8196 -0.3054
vn 0.7111 0.1530 0.6862
vt 1.000000 1.000000
vt 1.000000 0.000000
vt 0.000000 0.000000
vt 0.000000 1.000000
s 1
usemtl skeleton
f 9/1/9 10/4/10 5/3/5 6/2/6
f 12/1/12 9/4/9 6/3/6 1/2/1
f 10/1/10 11/4/11 2/3/2 5/2/5
f 11/1/11 12/4/12 1/3/1 2/2/2
f 14/1/14 13/4/13 12/3/12 11/2/11
f 15/1/15 14/4/14 11/3/11 10/2/10
f 13/1/13 16/4/16 9/3/9 12/2/12
f 16/1/16 15/4/15 10/3/10 9/2/9
f 21/1/21 2/4/2 1/3/1 22/2/22
f 4/1/4 21/4/21 22/3/22 3/2/3
f 21/1/21 4/4/4 7/3/7 23/2/23
f 2/1/2 21/4/21 23/3/23 5/2/5
f 6/1/6 24/4/24 22/3/22 1/2/1
f 3/1/3 22/4/22 24/3/24 8/2/8
f 24/1/24 6/4/6 5/3/5 23/2/23
f 8/1/8 24/4/24 23/3/23 7/2/7
f 26/1/26 15/4/15 16/3/16 25/2/25
f 18/1/18 26/4/26 25/3/25 17/2/17
f 25/1/25 16/4/16 13/3/13 27/2/27
f 17/1/17 25/4/25 27/3/27 20/2/20
f 28/1/28 14/4/14 15/3/15 26/2/26
f 19/1/19 28/4/28 26/3/26 18/2/18
f 27/1/27 13/4/13 14/3/14 28/2/28
f 20/1/20 27/4/27 28/3/28 19/2/19
f 30/1/30 29/4/29 20/3/20 19/2/19
f 31/1/31 30/4/30 19/3/19 18/2/18
f 29/1/29 32/4/32 17/3/17 20/2/20
f 32/1/32 31/4/31 18/3/18 17/2/17
f 31/1/31 32/4/32 29/3/29 30/2/30
f 33/1/33 36/4/36 35/3/35 34/2/34
f 43/1/43 36/4/36 33/3/33 44/2/44
f 46/1/46 41/4/41 42/3/42 45/2/45
f 45/1/45 42/4/42 37/3/37 50/2/50
f 47/1/47 40/4/40 41/3/41 46/2/46
f 48/1/48 39/4/39 40/3/40 47/2/47
f 49/1/49 38/4/38 39/3/39 48/2/48
f 50/1/50 37/4/37 38/3/38 49/2/49
f 48/1/48 47/4/47 50/3/50 49/2/49
f 45/1/45 50/4/50 47/3/47 46/2/46
f 51/1/51 52/4/52 33/3/33 34/2/34
f 38/1/38 37/4/37 52/3/52 51/2/51
f 53/1/53 51/4/51 34/3/34 35/2/35
f 39/1/39 38/4/38 51/3/51 53/2/53
f 54/1/54 53/4/53 35/3/35 36/2/36
f 40/1/40 39/4/39 53/3/53 54/2/54
f 55/1/55 54/4/54 36/3/36 43/2/43
f 41/1/41 40/4/40 54/3/54 55/2/55
f 56/1/56 52/4/52 37/3/37 42/2/42
f 44/1/44 33/4/33 52/3/52 56/2/56
f 56/1/56 55/4/55 43/3/43 44/2/44
f 42/1/42 41/4/41 55/3/55 56/2/56
f 58/1/58 57/4/57 8/3/8 7/2/7
f 57/1/57 60/4/60 3/3/3 8/2/8
f 59/1/59 58/4/58 7/3/7 4/2/4
f 60/1/60 59/4/59 4/3/4 3/2/3
f 61/1/61 62/4/62 59/3/59 60/2/60
f 62/1/62 63/4/63 58/3/58 59/2/59
f 64/1/64 61/4/61 60/3/60 57/2/57
f 63/1/63 64/4/64 57/3/57 58/2/58
f 66/1/66 65/4/65 64/3/64 63/2/63
f 65/1/65 68/4/68 61/3/61 64/2/64
f 67/1/67 66/4/66 63/3/63 62/2/62
f 68/1/68 67/4/67 62/3/62 61/2/61
f 69/1/69 70/4/70 67/3/67 68/2/68
f 70/1/70 71/4/71 66/3/66 67/2/67
f 72/1/72 69/4/69 68/3/68 65/2/65
f 71/1/71 72/4/72 65/3/65 66/2/66
f 74/1/74 73/4/73 72/3/72 71/2/71
f 73/1/73 76/4/76 69/3/69 72/2/72
f 75/1/75 74/4/74 71/3/71 70/2/70
f 78/1/78 77/4/77 76/3/76 75/2/75
f 79/1/79 78/4/78 75/3/75 70/2/70
f 77/1/77 80/4/80 69/3/69 76/2/76
f 80/1/80 79/4/79 70/3/70 69/2/69
f 77/1/77 78/4/78 79/3/79 80/2/80
f 81/1/81 82/4/82 75/3/75 76/2/76
f 82/1/82 83/4/83 74/3/74 75/2/75
f 84/1/84 81/4/81 76/3/76 73/2/73
f 83/1/83 84/4/84 73/3/73 74/2/74
f 83/1/83 82/4/82 81/3/81 84/2/84
